<svg width="62" height="41" fill="none" xmlns="http://www.w3.org/2000/svg"><path d="M46.986 31.809c.499.027.831.055 1.13.055 4.187 0 8.408.028 12.595 0 .797 0 1.03.167.997.833-.034 2.443-.034 4.913-.034 7.44-.332.027-.631.055-.897.055H39.61c-.897 0-1.794-.028-2.692-.056-2.06-.083-3.522-.916-4.353-2.47-.83-1.5-.498-2.915.731-4.22 3.755-3.858 7.544-7.716 11.299-11.603 1.694-1.748 3.423-3.497 5.117-5.246 1.462-1.5 1.861-3.192.93-4.969-.896-1.721-2.491-2.748-4.751-2.915-1.994-.138-3.656.5-4.985 1.75-1.728 1.61-4.32 1.859-6.347.665-2.06-1.249-2.492-3.97-.83-5.58 3.29-3.191 7.476-4.801 12.46-4.607 7.976.305 13.393 5.663 14.19 10.826.632 3.886-.83 7.19-3.788 10.16-3.09 3.08-6.114 6.218-9.172 9.326-.1.14-.199.278-.432.556ZM8.87 40.136c-2.458-1.665-4.818-3.303-7.244-4.969 3.058-3.192 6.082-6.356 9.172-9.576-.332-.111-.565-.195-.797-.278-5.65-1.97-9.072-5.44-9.87-10.52-.93-6.163 4.42-12.214 11.73-13.547 8.076-1.471 16.117 2.61 18.111 9.272 1.163 3.886.2 7.467-2.758 10.604-3.157 3.358-6.447 6.578-9.637 9.882-2.758 2.859-5.516 5.774-8.241 8.633a5.198 5.198 0 0 1-.465.5ZM20.9 13.543c0-2.692-2.525-4.885-5.649-4.885-3.09.027-5.749 2.193-5.749 4.774 0 2.637 2.592 4.83 5.75 4.83 3.056.028 5.615-2.11 5.648-4.719Z" fill="#E83B68"/></svg>