<svg width="93" height="34" fill="none" xmlns="http://www.w3.org/2000/svg"><path d="M83.12 7.162c-5.154 0-9.365 2.887-9.365 8.577 0 5.719 4.184 8.578 9.365 8.578 5.153 0 9.365-2.887 9.365-8.578-.028-5.718-4.212-8.577-9.365-8.577Zm0 13.102c-2.522 0-4.544-1.527-4.544-4.525 0-3.025 2.022-4.524 4.544-4.524 2.521 0 4.544 1.526 4.544 4.524 0 3.026-2.05 4.525-4.544 4.525ZM50.51 7.967h-4.794v15.517h4.793V7.967ZM8.284 7.162H7.73c-4.267 0-7.73 3.47-7.73 7.744v8.606h4.766v-4.164h6.483v4.164h4.765V14.907c0-4.275-3.463-7.745-7.73-7.745Zm-3.518 8.577v-1.332a3.22 3.22 0 0 1 3.213-3.22c1.801 0 3.27 1.471 3.27 3.275v1.305H4.766v-.028ZM71.926 13.935h-9.198v3.58h4.654c-.775 1.805-2.715 2.749-4.654 2.749-2.522 0-4.544-1.527-4.544-4.525s2.022-4.524 4.544-4.524c1.025 0 2.521.277 3.38.805l3.103-3.11c-1.635-1.138-4.184-1.748-6.511-1.748-5.154 0-9.365 2.887-9.365 8.577 0 5.719 4.184 8.578 9.365 8.578 5.153 0 9.365-2.887 9.365-8.578a7.693 7.693 0 0 0-.139-1.804Z" fill="#0CAFDB"/><path d="M48.099 0c-1.635 0-2.965.916-2.965 2.72 0 1.805 1.33 2.72 2.965 2.72 1.634 0 2.964-.915 2.964-2.72C51.091.916 49.733 0 48.1 0Z" fill="#EC660C"/><path d="M37.348 7.967c0 .666-1.136 3.997-6.483 3.997-5.347 0-6.483-3.331-6.483-3.997h-4.794c0 3.525 3.575 8.772 11.277 8.772 7.675 0 11.277-5.247 11.277-8.772h-4.794Z" fill="#0CAFDB"/><path d="M24.354 7.995H19.59v15.517h4.765V7.995Z" fill="url(#a)"/><path d="M42.142 7.967h-4.794v15.517h4.794V7.967Z" fill="url(#b)"/><path d="M47.323 28.342h-1.08v4.774h1.08v-4.774ZM53.141 28.342h1.025v4.774h-.997l-2.3-3.08v3.08h-1.025v-4.774h.998l2.3 3.081v-3.081ZM56.217 28.342h3.99v.916h-1.47v3.858h-1.052v-3.858h-1.468v-.916ZM62.257 28.342h3.63v.888h-2.55v1.055h2.3v.888h-2.3v1.055h2.632v.888h-3.712v-4.774ZM71.206 33.116l-.748-1.36H69.35v1.36h-1.081v-4.774h2.05c.61 0 1.108.139 1.441.444.332.277.499.694.499 1.221 0 .361-.083.694-.222.944s-.36.472-.665.583l1.025 1.582h-1.191Zm-1.829-2.276h.998c.305 0 .526-.055.692-.194.167-.139.25-.333.25-.61 0-.25-.083-.473-.25-.584-.166-.139-.387-.194-.692-.194h-.998v1.582ZM77.994 28.342h1.025v4.774h-.997l-2.3-3.08v3.08h-1.025v-4.774h.997l2.3 3.081v-3.081ZM81.54 28.342h3.63v.888h-2.549v1.055h2.3v.888h-2.3v1.055h2.632v.888H81.54v-4.774ZM87.11 28.342h3.962v.916H89.63v3.858h-1.08v-3.858h-1.442v-.916Z" fill="#EC660C"/><defs><linearGradient id="a" x1="21.974" y1="23.51" x2="21.974" y2="7.997" gradientUnits="userSpaceOnUse"><stop stop-color="#0CAFDB"/><stop offset=".178" stop-color="#0BADD8"/><stop offset=".32" stop-color="#09A5CF"/><stop offset=".451" stop-color="#0998C0"/><stop offset=".575" stop-color="#0F86AD"/><stop offset=".693" stop-color="#166F94"/><stop offset=".807" stop-color="#1C5679"/><stop offset=".917" stop-color="#1E3D5F"/><stop offset="1" stop-color="#1D2A4B"/></linearGradient><linearGradient id="b" x1="39.699" y1="23.513" x2="39.699" y2="7.996" gradientUnits="userSpaceOnUse"><stop stop-color="#0CAFDB"/><stop offset=".178" stop-color="#0BADD8"/><stop offset=".32" stop-color="#09A5CF"/><stop offset=".451" stop-color="#0998C0"/><stop offset=".575" stop-color="#0F86AD"/><stop offset=".693" stop-color="#166F94"/><stop offset=".807" stop-color="#1C5679"/><stop offset=".917" stop-color="#1E3D5F"/><stop offset="1" stop-color="#1D2A4B"/></linearGradient></defs></svg>