<svg width="89" height="43" fill="none" xmlns="http://www.w3.org/2000/svg"><path fill-rule="evenodd" clip-rule="evenodd" d="M42.04 23.093h-6.813c-3.589 0-6.513-2.498-6.513-5.552v-6.107l13.326 11.66Zm11.73 0h-6.812l13.325-11.686v6.107c0 3.08-2.924 5.58-6.513 5.58Z" fill="#9BC437"/><path fill-rule="evenodd" clip-rule="evenodd" d="M49.483 5.577c0 1.055-.864 1.083-2.26 1.444 1.33-1.277.2-2.36-3.389-3.248 1.23-.194 5.65.75 5.65 1.804Zm-10.035.694c0-1.082.864-1.082 2.26-1.443-1.33 1.277-.2 2.36 3.389 3.248-1.13.166-5.65-.722-5.65-1.805Zm5.283 2.97c4.653.528 8.607-.666 8.906-1.97.266-1.305-.764-1.944-2.459-2.776 1.363 2.442-.764 4.025-6.447 4.746Zm-.498-6.634c-4.652-.527-8.607.666-8.906 1.97-.266 1.306.764 1.944 2.46 2.777-1.33-2.443.763-4.025 6.446-4.747ZM45.928.942c7.244.25 12.893 2.942 12.893 4.968 0 2.027-1.794 2.776-4.652 3.692 2.89-3.442.166-6.301-8.241-8.66Zm-2.891 9.937c-7.245-.25-12.894-2.942-12.894-4.969 0-2.026 1.794-2.776 4.652-3.692-2.858 3.47-.166 6.33 8.242 8.661Zm-13.26-1.443L44.5 22.316 59.22 9.436c-3.223 1.637-8.607 2.72-14.721 2.72-6.115-.028-11.531-1.083-14.722-2.72Z" fill="#E71C83"/><path fill-rule="evenodd" clip-rule="evenodd" d="m.7 35.89.233-.056h.399c.465-.027.731-.055.797-.11.2-.084.366-.25.532-.5.3-.5.665-1.222 1.03-2.138.166-.444.3-.694.333-.805.133-.305.299-.61.432-.916l.83-1.943c.133-.305.432-1 .93-2.082.134-.277.267-.638.433-1.11l.266-.028h.299c.266.416.465.86.664 1.36.1.25.266.639.532 1.138l1.33 3.026.73 1.638c.366.944.632 1.499.731 1.72.133.223.233.362.333.417.033.028.133.056.332.084.2.027.332.055.399.083.266.055.465.11.565.166l.033.14-.033.11h-.399c-.3 0-.83 0-1.595-.028l-.897-.027-1.064.027H8.243l-.165-.055.033-.194.2-.056.93-.055c.232 0 .432-.028.565-.084l.066-.194c0-.083-.066-.305-.232-.694-.1-.25-.2-.472-.266-.694-.067-.222-.399-.944-.93-2.193-.233-.028-.466-.055-.632-.055l-1.894.027h-.565c-.2 0-.432 0-.665.028a3.66 3.66 0 0 1-.166.305l-.764 2.027c-.333.777-.499 1.194-.499 1.277l.067.222c.133.028.299.055.498.083l1.197.083.1.111-.034.111h-.598c-.465 0-1.03 0-1.662-.027H1.565c-.2 0-.333.027-.432.027-.133 0-.333 0-.565-.027v-.056L.7 35.89Zm4.188-4.442c.631.028 1.362.056 2.16.056.465 0 .864 0 1.196-.028-.067-.194-.133-.36-.2-.527-.365-.86-.598-1.333-.63-1.416l-.798-1.693-.1-.139c-.033.056-.166.305-.399.75-.365.777-.631 1.36-.797 1.804-.067.194-.167.389-.233.583-.1.194-.133.333-.166.388l-.1.25.067-.027Zm8.274 4.497c.2-.11.498-.166.997-.222.365-.027.598-.055.665-.083l.1-.11c.099-.195.165-.667.199-1.472.066-1.055.133-2.443.266-4.192.1-1.332.133-2.165.133-2.498v-.194c-.433-.084-1.097-.14-2.028-.25l-.1-.167.067-.139.233-.055.299.028c.299.027.698.055 1.196.055.166 0 .432 0 .864-.027.3-.028.432-.028.465-.028l.333.027.133.14.365.693 2.492 4.608 1.03 1.943c.831-1.36 1.463-2.554 1.895-3.608l.1-.222.132-.278c.067-.111.233-.5.565-1.194.133-.277.233-.5.333-.694.332-.777.531-1.249.598-1.36l.299-.055.365.027c.333 0 .864.028 1.595.028.466 0 .831 0 1.13-.027l.034.11-.034.14c-.199.083-.398.138-.664.138-.532.028-.864.056-.997.111l-.266.167c-.033.083-.066.305-.1.666V28.644c0 .75.034 1.972.067 3.72v2.36c0 .36.033.583.066.639.033.055.166.138.366.194.299.083.83.166 1.562.277l.066.084v.139h-.399c-.332 0-.73 0-1.13-.028C26.056 36 25.823 36 25.79 36c-1.197 0-1.994 0-2.393.028-.232 0-.399.027-.465.027l-.133-.027v-.084l.033-.138c.2-.056.465-.111.798-.14.365-.082.631-.166.797-.277.067-.194.067-.583.067-1.138l-.033-1.499c0-.166 0-.472.033-.916.033-.444.033-1.166.033-2.165 0-.777-.033-1.388-.066-1.804-.1.166-.3.555-.599 1.11l-.132.278-.034.055-1.296 2.582-.465.999-.598 1.221c-.266.556-.499 1.055-.698 1.472-.066.194-.133.36-.2.471h-.199a53.305 53.305 0 0 0-2.392-4.996c-.93-1.721-1.562-2.831-1.928-3.387-.033.222-.1.833-.166 1.832a75.41 75.41 0 0 0-.133 4.109c0 .472.033.999.133 1.582.033.166.1.278.266.36.133.084.532.14 1.13.14.232 0 .465.027.664.055l.067.167-.033.139-2.758-.084c-.2 0-.499 0-.931.028-.233.028-.565.028-1.03.028l.033-.084Zm15.32-.055.398-.083c.898-.056 1.43-.14 1.562-.278.133-.139.2-.75.2-1.888V32.06l-.034-.888.034-.527v-1.277l-.034-.306.034-.388v-.306c0-.305-.034-.638-.067-.971l-.1-.195c-.199-.083-.565-.166-1.063-.194-.498-.028-.764-.055-.83-.11l-.067-.223h.73l2.327.056c.598 0 1.396 0 2.393-.056l-.034.222a5.09 5.09 0 0 1-.598.083c-.565.056-.897.111-1.03.167l-.166.11c-.067.084-.1.25-.1.5l-.033.944.033 3.276v1.305c0 .416-.033.694-.033.832 0 .556 0 .889.033 1.055.033.167.1.25.166.333.067.056.2.111.4.167.265.055.498.083.63.083.333 0 .532.056.632.111l.033.167v.055c-.532.028-.93.028-1.196.028-.133 0-.399 0-.798-.028l-1.23.028h-2.226l.034-.222Zm6.513 0c.864-.083 1.329-.139 1.462-.167l.2-.222v-.083c0-.111.033-.555.066-1.332 0-.222.033-.417.033-.639l-.033-.888.033-1v-3.192c0-.555-.033-.916-.166-1.027-.1-.11-.399-.194-.831-.25-.465-.055-.698-.083-.764-.11l-.067-.112.034-.138c.066-.056.199-.056.398-.084l.233-.027.365-.028h.732l2.326-.028c1.296 0 2.226.083 2.758.25.532.166.93.444 1.263.832.299.39.465.806.465 1.305 0 .916-.565 1.582-1.695 2.082-.2.083-.332.167-.465.222.2.361.465.777.83 1.277l1.13 1.61c.432.583.765.972.93 1.11.167.14.366.278.632.361.233.111.665.195 1.23.278v.222c-.798 0-1.761.028-2.825.028l-.332-.028c-.432-.666-.897-1.416-1.462-2.193l-1.296-1.999a1.862 1.862 0 0 0-.432-.388c-.1-.056-.266-.084-.465-.084h-.998c0 .167-.033.472-.033.972v2.526c0 .083 0 .222.067.389l.232.222c.1.055.432.139.997.25l.366.083.066.194-.332.028c-.532 0-.897 0-1.13-.028h-.266l-1.196.056h-1.163c-.067 0-.332 0-.798.027l-.166-.027v-.084l.067-.166Zm3.29-4.83h.365c.432 0 .897-.056 1.462-.139.399-.055.698-.166.964-.305.233-.14.432-.361.598-.639.166-.277.233-.583.233-.888 0-.333-.133-.694-.366-1.055-.2-.277-.531-.527-.997-.722-.465-.194-1.03-.277-1.661-.277-.166 0-.366 0-.632.028-.033.25-.033.444-.033.582l.033 1.389v.555c0 .388.034.888.034 1.47Zm7.909.333c0-.5.066-.944.232-1.332.133-.39.399-.805.731-1.277.333-.472.765-.833 1.23-1.139.465-.305 1.163-.582 1.994-.805.598-.166 1.362-.25 2.292-.25.632 0 1.23.056 1.828.195.598.139 1.13.333 1.595.583.499.25.964.61 1.462 1.138.333.36.599.75.765 1.138.232.528.332 1.083.332 1.666 0 .638-.066 1.193-.233 1.61-.133.416-.398.86-.764 1.277-.266.333-.764.694-1.429 1.11-.432.278-.997.5-1.661.694a8.917 8.917 0 0 1-2.16.278 9.5 9.5 0 0 1-2.094-.223c-.598-.166-1.13-.333-1.529-.555-.398-.222-.83-.555-1.262-.971a4.443 4.443 0 0 1-.997-1.416 4.878 4.878 0 0 1-.333-1.721Zm6.147 4.608c.499 0 .997-.055 1.529-.167a4.172 4.172 0 0 0 1.429-.583c.398-.277.73-.582.963-.916.233-.333.432-.777.565-1.304.133-.528.2-1.083.2-1.61 0-.666-.133-1.333-.366-1.971-.2-.5-.465-.944-.897-1.333-.399-.388-.897-.694-1.495-.916a5.215 5.215 0 0 0-1.861-.333c-.532 0-1.064.084-1.562.222-.499.14-.93.334-1.263.555-.332.223-.631.556-.93.972-.3.416-.499.888-.632 1.388-.133.5-.232.944-.232 1.332 0 .417.066.861.232 1.388.133.528.332.972.598 1.333.266.389.565.722.93 1 .366.304.798.527 1.264.665.498.195.996.278 1.528.278Zm14.19-8.994c.066.333.066.5.066.555l-.033.666c0 .278-.033.472-.033.528l-.133.028-.067-.028c-.199-.694-.498-1.194-.963-1.5-.466-.304-.997-.471-1.662-.471-.665 0-1.23.167-1.661.472-.432.305-.632.694-.632 1.11 0 .333.166.611.432.889.3.277 1.064.666 2.293 1.193.93.417 1.628.75 2.027 1 .399.25.698.555.93.888.2.333.3.721.3 1.138 0 .527-.166 1.027-.499 1.499-.332.472-.764.805-1.329 1.055-.565.222-1.296.36-2.193.36a8.893 8.893 0 0 1-2.293-.305c-.432-.139-.698-.222-.798-.305l-.133-.25v-.194c.1-.583.133-1.055.133-1.444 0-.222.034-.36.067-.416l.133-.056.133.056.066.166c.067.611.399 1.139.997 1.61a3.246 3.246 0 0 0 2.027.722 3.33 3.33 0 0 0 1.296-.25c.399-.166.698-.388.93-.694.233-.305.333-.61.333-.888 0-.389-.166-.777-.499-1.082-.332-.334-.997-.722-2.027-1.166-.997-.445-1.661-.75-1.993-.972-.499-.333-.864-.694-1.097-1.055-.2-.277-.266-.61-.266-1 0-.693.332-1.248.964-1.748.631-.472 1.528-.722 2.592-.722.598 0 1.13.056 1.562.167.365.111.697.25 1.03.444Zm1.528 8.883.233-.056h.399c.465-.027.73-.055.797-.11.2-.084.399-.25.532-.5.299-.5.665-1.222 1.03-2.138.166-.444.3-.694.332-.805.133-.305.3-.61.432-.916l.831-1.943c.133-.305.432-1 .93-2.082.134-.277.266-.638.433-1.11l.266-.028h.299c.265.416.465.86.664 1.36.1.25.266.639.532 1.138l1.33 3.026.73 1.638c.366.944.632 1.499.731 1.72.133.223.233.362.333.417.033.028.132.056.332.084.2.027.332.055.399.083.266.055.465.11.565.166l.033.14.033.138h-.399c-.299 0-.83 0-1.595-.028l-.897-.028-1.063.028h-.599l-.166-.055.034-.195.199-.055.93-.056c.233 0 .432-.027.565-.083l.067-.194c0-.084-.067-.306-.233-.694-.1-.25-.2-.472-.266-.694-.066-.222-.398-.944-.93-2.193a6.085 6.085 0 0 0-.632-.056l-1.894.028h-.565c-.2 0-.432 0-.664.028-.067.139-.133.25-.166.305l-.765 2.027c-.332.777-.498 1.193-.498 1.276l.066.223c.133.027.3.055.499.083l1.196.083.1.111-.033.111h-.599c-.465 0-1.03 0-1.628-.028h-1.263c-.2 0-.332.028-.432.028-.133 0-.332 0-.565-.028v-.166Zm4.22-4.442c.632.028 1.363.056 2.16.056.466 0 .865 0 1.197-.028-.066-.194-.133-.36-.2-.527a38.3 38.3 0 0 1-.63-1.416l-.798-1.693-.1-.139c-.033.056-.166.305-.399.75-.365.777-.664 1.36-.797 1.804-.067.194-.166.389-.233.583a2.335 2.335 0 0 1-.166.388l-.1.25.067-.027Zm15.154-4.44c.033.332.066.499.066.554l-.033.666c0 .278-.033.472-.033.528l-.133.028-.066-.028c-.2-.694-.499-1.194-.964-1.5-.432-.304-.997-.471-1.662-.471-.664 0-1.23.167-1.661.472-.432.305-.632.694-.632 1.11 0 .333.166.611.466.889.299.277 1.063.666 2.292 1.193.931.417 1.629.75 2.028 1 .398.25.697.555.93.888.2.333.3.721.3 1.138 0 .527-.167 1.027-.5 1.499-.332.472-.764.805-1.329 1.055-.564.222-1.296.36-2.193.36a8.894 8.894 0 0 1-2.293-.305c-.432-.139-.698-.222-.797-.305l-.133-.25v-.194c.066-.583.133-1.055.133-1.444 0-.222.033-.36.066-.416l.133-.056.133.056.067.166c.066.611.398 1.139.997 1.61a3.246 3.246 0 0 0 2.026.722 3.33 3.33 0 0 0 1.296-.25c.4-.166.698-.388.931-.694.233-.305.332-.61.332-.888 0-.389-.166-.777-.498-1.082-.332-.334-.997-.722-2.027-1.166-.997-.445-1.662-.75-1.994-.972-.499-.333-.864-.694-1.097-1.055a1.916 1.916 0 0 1-.266-1c0-.693.333-1.248.964-1.748.632-.472 1.529-.722 2.592-.722.598 0 1.13.056 1.562.167.332.111.665.25.997.444ZM.667 40.941l.067-.028h.133l.232-.028.166-.138c.1-.14.2-.361.3-.611l.1-.222.132-.278.233-.555c.033-.083.133-.305.266-.61l.133-.334h.166l.2.389c.032.083.099.194.165.333l.399.888.2.472c.132.278.166.444.199.5l.1.111.1.028.132.027.166.056v.056H2.827v-.056l.067-.028h.266l.166-.028v-.055l-.067-.194-.066-.195c-.033-.055-.1-.277-.266-.638l-.2-.028H1.798v.083l-.232.583c-.1.222-.133.361-.133.361l.033.056.133.027.332.028.033.028v.028H.667v-.028Zm1.23-1.277h.997l-.067-.166c-.1-.25-.166-.389-.2-.417l-.232-.5-.033-.027-.1.222c-.1.222-.199.389-.232.527l-.067.167-.033.11-.033.084Zm2.758.805.133.278.233.194.299.056.299-.111.1-.195-.134-.25c-.066-.083-.232-.166-.465-.222a1.065 1.065 0 0 1-.465-.222l-.1-.277.1-.25.266-.167.299-.055.332.027.266.084.033.333v.055h-.099l-.233-.277-.3-.111-.265.083-.1.194.067.167c.033.055.166.111.365.166.2.056.333.14.432.167l.2.194.066.222-.133.278-.299.194-.332.056c-.233 0-.432-.028-.598-.111l-.033-.056v-.055c-.034-.195-.034-.306-.034-.333v-.028l.1-.028Zm1.927 0 .133.278.233.194.299.056.3-.111.099-.195-.133-.25c-.067-.083-.233-.166-.465-.222a1.065 1.065 0 0 1-.466-.222l-.1-.277.1-.25.266-.167.3-.055.332.027.265.084.034.333v.055h-.1l-.233-.277-.299-.139-.232.083-.1.195.066.166c.067.056.167.111.366.167.2.055.332.139.432.166l.2.195.066.222-.1.277-.299.195-.332.055c-.2 0-.432-.028-.598-.111l-.034-.056v-.055c-.033-.194-.033-.305-.033-.333v-.028h.033Zm1.728-.305.067-.306.232-.305.333-.194c.166-.056.332-.084.565-.084.332 0 .598.084.797.278.2.194.333.416.333.666 0 .222-.133.444-.333.611a1.41 1.41 0 0 1-.864.278c-.2 0-.399-.056-.598-.14l-.365-.305c-.1-.166-.167-.333-.167-.5Zm1.13.833.366-.084.299-.277a.986.986 0 0 0 .1-.444c0-.111-.034-.25-.067-.39-.066-.138-.133-.249-.266-.332l-.399-.111-.332.055-.299.25a1.17 1.17 0 0 0-.133.528c0 .25.067.471.2.583.166.138.332.222.531.222Zm3.456-.361v.139l-.399.25c-.133.055-.299.083-.465.083-.2 0-.365-.056-.531-.14a.85.85 0 0 1-.366-.36c-.066-.167-.133-.305-.133-.444 0-.167.067-.306.166-.472l.399-.333c.166-.084.366-.111.631-.111.233 0 .432.027.565.11l.1.167-.066.111-.133.056-.3-.139-.166-.11-.166-.029-.399.167a.784.784 0 0 0-.199.555c0 .222.067.416.233.555a.65.65 0 0 0 .498.194l.366-.055.365-.194Zm.499-2.276.066-.112.166-.055.166.055.067.14-.066.11-.167.056-.166-.056-.066-.139Zm-.233 1.138v-.056l.166-.055.2-.111.166-.167h.1v1.638l.033.11.2.084.165.056v.055h-.266l-.299-.028H13.03v-.027l.067-.056.265-.056.1-.055.033-.139v-1.11l-.066-.056-.266-.027Zm3.157 1.221v.028l-.066.11-.167.167-.166.028-.266-.083-.066-.194-.3.166-.232.083-.299.028-.2-.055-.066-.167.233-.36c.133-.14.332-.25.598-.334.166-.056.3-.111.332-.111v-.167c0-.194-.033-.305-.1-.36l-.265-.084-.332.111-.133.278-.067.111-.166.056-.1-.028-.033-.028.133-.25.366-.305.365-.111.332.027.2.111.1.195v1.082l.066.111.1.056.166-.083.033-.028Zm-.731-.056c0-.194.033-.305.033-.388v-.167l-.365.167-.3.25-.1.194.067.139.166.055.2-.055.299-.195Zm2.858-.027v.139l-.399.25a1.24 1.24 0 0 1-.465.083c-.2 0-.366-.056-.532-.14a.85.85 0 0 1-.366-.36c-.066-.167-.132-.305-.132-.444 0-.167.033-.306.133-.472l.398-.333c.167-.084.366-.111.632-.111.232 0 .432.027.565.11l.1.167-.067.111-.133.056-.3-.139-.165-.11-.166-.029-.4.167a.784.784 0 0 0-.199.555c0 .222.067.416.2.555a.65.65 0 0 0 .498.194l.366-.055.432-.194Zm-.997.75.1-.112.265-.305h.1l-.2.277.2.306-.133.277-.332.111-.233-.055-.1-.111.034-.084.066-.027.133.083.166.083.133-.055.067-.139-.067-.139-.2-.11Zm3.223-.667v.028l-.066.11-.166.195-.167.028-.265-.083-.067-.195-.299.167-.232.083-.3.028-.199-.056-.066-.166.199-.361c.133-.139.332-.25.598-.333.166-.056.3-.111.332-.111v-.167c0-.194-.033-.305-.1-.36l-.265-.084-.333.111-.132.278-.067.11-.166.056-.1-.027-.033-.028.133-.25.365-.305.366-.111.332.027.2.111.1.195v1.082l.033.111.133.056.166-.084.033-.027.033-.028Zm-.764-.056c0-.194.033-.305.033-.388v-.167l-.365.167-.3.25-.066.194.066.139.167.055.2-.055.265-.195Zm.399-2.303h.066v.027l-.133.306-.299.11-.2-.027-.199-.111-.199-.111-.133-.028-.133.056-.1.194h-.066v-.028l.1-.278.332-.138.166.028.233.11.332.14.133-.056.1-.194Zm.598 1.804.066-.306.233-.305.299-.194c.166-.056.332-.084.565-.084.332 0 .598.084.797.278.2.194.333.416.333.666 0 .222-.1.444-.332.611a1.41 1.41 0 0 1-.864.278c-.2 0-.4-.056-.599-.14l-.365-.305c-.067-.166-.133-.333-.133-.5Zm1.163.833.365-.084.3-.277a.987.987 0 0 0 .1-.444.939.939 0 0 0-.1-.39c-.067-.138-.133-.249-.266-.332l-.399-.111-.332.055-.3.25a1.17 1.17 0 0 0-.132.528c0 .25.066.471.199.583.166.138.332.222.565.222Zm4.553-1.555V38.666l-.067-.25-.299-.111h-.066v-.083c.232-.028.432-.056.598-.111h.133v1.165l.033.944v.5l.033.166.233.056h.1v.056l-.167.027-.365.056h-.133v-.195l-.133.056a2.654 2.654 0 0 1-.731.139l-.432-.111-.332-.306-.1-.416.066-.36.2-.278.232-.14.233-.082.299-.056c.233 0 .432.028.565.083l.1.028Zm0 1.333v-.583c0-.25 0-.417-.034-.472l-.2-.195-.398-.083a.65.65 0 0 0-.498.194c-.133.14-.2.306-.2.556 0 .222.067.388.233.527a.807.807 0 0 0 .565.194l.332-.055.2-.084Zm.963-.611.067-.306.232-.305.333-.194c.166-.056.332-.084.564-.084.333 0 .599.084.798.278.2.194.332.416.332.666 0 .222-.1.444-.332.611a1.41 1.41 0 0 1-.864.278c-.2 0-.399-.056-.598-.14l-.366-.305a.754.754 0 0 1-.166-.5Zm1.13.833.366-.084.299-.277a.986.986 0 0 0 .1-.444.938.938 0 0 0-.1-.39c-.067-.138-.133-.249-.266-.332l-.399-.111-.332.055-.3.25a1.171 1.171 0 0 0-.132.528c0 .25.066.471.2.583.199.138.365.222.564.222Zm1.761-.528.133.278.233.194.299.056.299-.111.1-.195-.133-.25c-.067-.083-.233-.166-.465-.222a1.066 1.066 0 0 1-.466-.222l-.133-.277.1-.25.266-.167.299-.055.332.027.266.084.033.333v.055h-.099l-.233-.277-.299-.111-.266.083-.1.194.067.167c.033.055.166.111.366.166.199.056.332.14.431.167l.2.194.066.222-.133.278-.299.194-.332.056c-.233 0-.432-.028-.598-.111l-.033-.056v-.055c-.034-.195-.034-.306-.034-.333v-.028l.133-.028Zm2.825.472.066-.028h.133l.233-.028.166-.138c.1-.14.2-.361.3-.611l.099-.222.133-.278.232-.555c.034-.083.133-.305.266-.61l.133-.334h.167l.199.389c.033.083.1.194.166.333l.399.888.199.472c.133.278.2.444.233.5l.1.111.099.028.133.027.166.056v.056h-1.429v-.056l.067-.028h.265l.167-.028v-.055l-.067-.194-.066-.195c-.034-.055-.1-.277-.266-.638l-.2-.028H34.464l-.033.083-.233.583c-.1.222-.133.361-.133.361l.033.056.133.027.366.028.033.028v.028h-1.296l-.033-.028Zm1.23-1.277h.996l-.066-.166c-.1-.25-.166-.389-.2-.417l-.232-.5-.033-.027-.1.222c-.1.222-.2.389-.233.527l-.066.167-.033.11-.034.084Zm2.492 1.277.1-.028.166-.028.066-.083c0-.055.033-.222.033-.555 0-.305 0-.5-.033-.583l-.133-.055-.133-.028v-.083l.233-.084.266-.222h.066V39.61c.2-.14.366-.25.499-.306l.332-.055.365.083.266.25.432-.25.366-.083c.2 0 .365.055.465.166.133.111.2.278.2.472v.861l.033.139.166.027.1.028v.083h-.034l-.266-.027H39.88v-.028l.034-.056.2-.028.165-.055c.034-.028.034-.139.034-.333 0-.416 0-.666-.034-.75l-.166-.25-.332-.083-.3.056-.298.194v1.083l.033.083.2.055.132.028.034.056-.034.028H38.417v-.084l.2-.055.166-.028.033-.028.033-.166V39.943c0-.167-.033-.306-.132-.389l-.333-.11-.365.082-.3.195v.832c0 .167 0 .25.034.278l.133.055.2.056.032.028v.028c-.199 0-.332-.028-.398-.028H37.02v-.028Zm4.353-2.581.066-.112.167-.055.166.055.066.14-.066.138-.166.056-.166-.056-.067-.166Zm-.233 1.138v-.056l.167-.055.199-.111.166-.167h.067v1.638l.033.11.2.084.165.056v.055h-.266l-.299-.028H41.01v-.027l.066-.056.266-.056.1-.055.033-.139v-1.11l-.067-.056-.266-.027Zm1.762 1.665-.2-.083-.232-.167-.067-.11.033-.084.233-.083.266-.084-.1-.055c-.266-.139-.399-.305-.399-.555 0-.195.067-.361.233-.5s.366-.194.631-.194l.333.027.232.111.133.056h.1l.2-.028.199-.027.1.027.033.14-.034.055-.066.027-.233-.027-.2-.028h-.066l.1.333-.133.305-.332.25-.399.083h-.1l-.431.111-.1.084.1.083c.166.083.465.111.93.139.2 0 .365.028.465.083l.233.194.066.25-.133.333c-.1.111-.232.167-.432.25-.199.056-.398.083-.664.083s-.499-.027-.632-.083l-.332-.194-.1-.195.1-.222c.067-.083.2-.166.432-.25l.233-.055Zm-.1-1.221.066.333.2.194.232.056.366-.14c.1-.082.166-.249.166-.443a.632.632 0 0 0-.166-.444l-.366-.167-.365.139c-.1.11-.133.25-.133.472Zm-.1 1.998c.166.111.366.14.598.14l.499-.056.365-.195.133-.25-.033-.138-.1-.111-.199-.056-.233-.028c-.299-.027-.465-.027-.531-.027-.2 0-.333.055-.499.166l-.166.278.166.277Zm2.194-1.776.066-.306.233-.305.332-.194c.166-.056.332-.084.565-.084.332 0 .598.084.797.278.2.194.333.416.333.666 0 .222-.1.444-.333.611a1.433 1.433 0 0 1-1.462.139l-.365-.306a.754.754 0 0 1-.166-.5Zm1.13.833.365-.084.299-.277a.986.986 0 0 0 .1-.444.938.938 0 0 0-.1-.39c-.066-.138-.133-.249-.266-.332l-.399-.111-.332.055-.3.25a1.171 1.171 0 0 0-.132.528c0 .25.067.471.2.583a.895.895 0 0 0 .564.222Zm1.76-.528.134.278.232.194.3.056.298-.111.1-.195-.133-.25c-.066-.083-.233-.166-.465-.222a1.065 1.065 0 0 1-.465-.222l-.1-.277.1-.25.265-.167.3-.055.332.027.232.084.034.333v.055h-.1l-.233-.277-.299-.111-.266.083-.1.194.067.167c.067.055.166.111.366.166.2.056.332.14.432.167l.2.194.066.222-.1.278-.3.194-.332.056c-.232 0-.431-.028-.598-.111l-.033-.056v-.055c-.033-.195-.033-.306-.033-.333v-.028l.1-.028Zm4.753-1.027V38.666l-.067-.25-.299-.111h-.066v-.083c.232-.028.432-.056.598-.111h.133v2.609l.033.166.233.056h.1v.056l-.167.027-.366.056h-.132v-.195l-.133.056a2.653 2.653 0 0 1-.732.139l-.431-.111-.333-.306-.1-.416.067-.36.2-.278.232-.14.233-.082.299-.056c.232 0 .432.028.565.083l.133.028Zm0 1.333v-.583c0-.25 0-.417-.034-.472l-.2-.195-.398-.083a.65.65 0 0 0-.498.194c-.133.14-.2.306-.2.556 0 .222.067.388.233.527.133.139.332.194.565.194l.332-.055.2-.084Zm2.857-.056.034.028-.067.11-.166.167-.166.028-.266-.083-.066-.194-.3.166-.232.083-.3.028-.199-.055-.066-.167.233-.36c.132-.14.332-.25.598-.334l.332-.111v-.167c0-.194-.033-.305-.1-.36l-.266-.084-.332.111-.133.278-.066.111-.166.056-.1-.028-.033-.028.133-.25.365-.305.366-.111.332.027.2.111.1.195v1.082l.066.111.1.056.165-.083.034-.028h-.034Zm-.764-.056v-.555l-.365.167-.3.25-.066.194.066.139.167.055.199-.055.3-.195Zm2.293.39v-.056l.2-.056.199-.028.066-.055c0-.056.033-.167.033-.333l-.033-1.666v-.277l-.033-.111-.2-.056-.199-.055-.033-.028v-.028l.066-.028h1.529l.798-.028h.166l.066.028.034.056v.083l.033.389v.055l-.067.028-.033-.028-.033-.083-.067-.25-.1-.083a2.025 2.025 0 0 0-.531-.056h-.732l-.198.028-.067.083v1.027h.698c.2 0 .332 0 .399-.027l.1-.084.066-.166.033-.167h.067v.167l.033.805-.067.027h-.033l-.133-.333-.066-.055H57.824l-.1.028V40.83l.034.083.2.056.265.055.066.056v.028l-.033.027c-.133-.027-.332-.027-.598-.027l-.432.027-.365.028.066-.11Zm4.62-1.167H60.083l-.033.084v.166l.1.333.298.278c.133.055.266.11.466.11l.232-.027.233-.111.2-.139v.111l-.3.222-.365.14-.3.027-.365-.056a.809.809 0 0 1-.399-.305.845.845 0 0 1-.166-.5l.033-.25.167-.305.199-.194.266-.139.399-.056.398.084.3.25.1.277Zm-1.43-.083h.133c.1 0 .332 0 .798-.028l.133-.028.066-.083-.066-.166-.167-.14-.232-.055c-.2 0-.366.056-.465.195l-.2.305Zm1.96.666.134.278.232.194.3.056.298-.111.1-.195-.133-.25c-.066-.083-.232-.166-.465-.222a1.065 1.065 0 0 1-.465-.222l-.1-.277.1-.25.266-.167.299-.055.332.027.266.084.033.333v.055h-.1l-.232-.277-.333-.111-.265.083-.1.194.066.167c.067.055.167.111.366.166.2.056.332.14.399.167l.2.194.066.222-.1.278-.3.194-.332.056c-.232 0-.431-.028-.598-.111l-.033-.056v-.055c-.033-.195-.033-.306-.033-.333v-.028l.133-.028Zm2.294-1.582h.066V39.36H65.168v.055l-.033.084H64.47l-.033.11v.917c0 .138.033.25.067.305l.2.083.265-.028.166-.083h.066v.056l-.265.139-.366.055-.266-.055-.133-.167c-.033-.056-.033-.194-.033-.389V39.527H63.84v-.028l.033-.028.133-.056.166-.083.166-.139.1-.166-.066-.14Zm2.89 1.832v.028l-.066.11-.166.167-.166.028-.299-.083-.066-.194-.3.166-.232.083-.3.028-.199-.055-.066-.167.233-.36c.132-.14.332-.25.598-.334.166-.056.299-.111.332-.111v-.167c0-.194-.033-.305-.1-.36l-.266-.084-.332.111-.133.278-.066.111-.166.056-.1-.028-.033-.028.133-.25.365-.305.366-.111.332.027.2.111.099.195v1.082l.033.111.1.056.166-.083.033-.028h.067Zm-.763-.056c0-.194.033-.305.033-.388v-.167l-.366.167-.299.25-.1.194.067.139.166.055.2-.055.299-.195Zm4.02-1.22v-.778l-.066-.25-.3-.111h-.066v-.083c.233-.028.432-.056.599-.111h.132v1.165l.034.944v.5l.033.166.233.056h.1v.056l-.167.027-.365.056h-.133v-.195l-.133.056a2.653 2.653 0 0 1-.731.139l-.432-.111-.333-.306-.1-.416.067-.36.2-.278.232-.14.233-.082.299-.056c.232 0 .432.028.565.083l.1.028Zm0 1.331v-.582c0-.25 0-.417-.033-.472l-.2-.195-.365-.083a.65.65 0 0 0-.498.194c-.133.14-.2.306-.2.556 0 .222.067.388.233.527.133.139.332.194.565.194l.332-.055.166-.084Zm2.858-.055v.028l-.066.11-.166.167-.166.028-.266-.083-.067-.194-.299.166-.233.083-.299.028-.199-.055-.066-.167.232-.36c.133-.14.332-.25.598-.334.166-.056.266-.111.333-.111v-.167c0-.194-.034-.305-.1-.36l-.266-.084-.332.111-.133.278-.067.111-.166.056-.1-.028-.033-.028.133-.25.366-.305.365-.111.333.027.199.111.1.195v1.082l.066.111.1.056.166-.083.033-.028Zm-.764-.056c0-.194.033-.305.033-.388v-.167l-.365.167-.3.25-.066.194.067.139.166.055.2-.055.265-.195Zm1.196-.194.133.278.233.194.299.056.299-.111.1-.195-.133-.25c-.067-.083-.233-.166-.466-.222a1.065 1.065 0 0 1-.465-.222l-.1-.277.1-.25.266-.167.3-.055.332.027.265.084.034.333v.055h-.1l-.233-.277-.299-.111-.266.083-.1.194.067.167c.067.055.166.111.366.166.199.056.332.14.432.167l.2.194.066.222-.133.278-.3.194-.332.056c-.232 0-.432-.028-.598-.111l-.033-.056v-.055c-.033-.195-.033-.306-.033-.333v-.028l.1-.028Zm3.024.5c.266-.028.4-.056.432-.056l.067-.055v-.028c0-.028 0-.167.033-.389V38.776c0-.166 0-.277-.033-.305l-.233-.083-.233-.027-.033-.028v-.028l.133-.028h1.03c.4 0 .665.028.798.084l.365.25.133.388c0 .277-.166.472-.498.61l-.133.056c.066.111.133.222.233.361l.332.472c.133.166.233.278.266.333l.2.111.365.083v.056H79.125c-.133-.195-.266-.417-.432-.639l-.399-.583-.132-.11-.133-.028H77.729V40.748l.034.11.066.056.3.084.099.027.033.056H76.766v-.028l.066-.083Zm.964-1.416h.1l.432-.028.266-.083.166-.194.066-.25-.1-.305-.299-.223a1.299 1.299 0 0 0-.498-.083h-.166V39.11c0 .111 0 .25.033.444Zm2.26.61.066-.305.233-.305.332-.194c.166-.056.332-.084.565-.084.332 0 .598.084.797.278.2.194.333.416.333.666 0 .222-.1.444-.333.611a1.41 1.41 0 0 1-.864.278c-.199 0-.398-.056-.598-.14l-.365-.305a.754.754 0 0 1-.166-.5Zm1.13.834.365-.084.3-.277a.986.986 0 0 0 .099-.444.938.938 0 0 0-.1-.39c-.066-.138-.133-.249-.266-.332l-.398-.111-.333.055-.299.25a1.171 1.171 0 0 0-.133.528c0 .25.067.471.2.583a.895.895 0 0 0 .565.222Zm1.727-.528.133.278.233.194.3.056.298-.111.1-.195-.133-.25c-.066-.083-.233-.166-.465-.222a1.065 1.065 0 0 1-.466-.222l-.1-.277.1-.25.266-.167.3-.055.332.027.266.084.033.333v.055h-.1l-.233-.277-.299-.111-.265.083-.1.194.066.167c.067.055.166.111.366.166.2.056.332.14.399.167l.199.194.067.222-.133.278-.3.194-.299.056c-.232 0-.432-.028-.598-.111l-.033-.056v-.055c-.033-.195-.033-.306-.033-.333v-.028l.1-.028Zm3.656.25v.028l-.067.11-.166.167-.166.028-.266-.083-.066-.194-.3.166-.232.083-.299.028-.2-.055-.066-.167.2-.36c.132-.14.332-.25.598-.334.166-.056.299-.111.332-.111v-.167c0-.194-.033-.305-.1-.36l-.266-.084-.332.111-.133.278-.066.111-.166.056-.1-.028-.033-.028.133-.25.365-.305.366-.111.332.027.2.111.1.195v1.082l.032.111.1.056.166-.083.034-.028h.066Zm-.764-.056c0-.194.033-.305.033-.388v-.167l-.366.167-.299.25-.066.194.066.139.166.055.2-.055.266-.195ZM87 40.47l.133.278.232.194.3.056.299-.111.1-.195-.134-.25c-.066-.083-.232-.166-.465-.222a1.065 1.065 0 0 1-.465-.222l-.1-.277.1-.25.266-.167.299-.055.332.027.266.084.033.333v.055h-.1l-.232-.277-.3-.111-.265.083-.1.194.067.167c.066.055.166.111.365.166.2.056.333.14.432.167l.2.194.066.222-.133.278-.299.194-.332.056c-.233 0-.432-.028-.598-.111l-.034-.056v-.055c-.033-.195-.033-.306-.033-.333v-.028l.1-.028Z" fill="#403839"/></svg>