<svg width="94" height="19" fill="none" xmlns="http://www.w3.org/2000/svg"><path fill-rule="evenodd" clip-rule="evenodd" d="M77.744.444h15.654l-.776 4.608H87.58l-2.217 12.936h-5.652l2.217-12.936H76.94l.803-4.608Zm-6.234 0h5.597l-3.048 17.544H68.49L71.51.444ZM61.092 4.33c-2.41 0-3.879 2.166-4.266 6.496 0 2.193.858 3.359 2.548 3.359 1.441 0 2.522-.666 3.242-1.999a9.518 9.518 0 0 0 1.136-4.441c0-1.055-.194-1.916-.665-2.526-.415-.583-1.191-.916-2.05-.916h.055v.027ZM61.896 0c2.438 0 4.35.722 5.541 2.026 1.302 1.305 1.94 3.137 1.94 5.33 0 .389-.056.944-.139 1.666-.222 1.693-.859 3.303-1.718 4.69a10.27 10.27 0 0 1-3.712 3.443c-1.496.86-3.27 1.305-5.181 1.305-2.55 0-4.489-.722-5.625-2.027-1.219-1.332-1.856-3.136-1.856-5.19v-.667c0-.305.055-.583.055-.805 0-.222.139-.527.139-.666.277-1.666.942-3.22 1.8-4.497.86-1.332 2.05-2.526 3.547-3.303A10.89 10.89 0 0 1 61.813 0h.083ZM35.713.444h5.264l4.378 9.577.527-3.859 1.025-5.69h5.32l-3.048 17.543h-5.182L39.51 8.44l-.416 4.025-.997 5.551h-5.347L35.712.445Zm-15.1 0h13.964l-.776 4.108h-8.284l-.499 2.499h7.121l-.776 4.108h-7.065l-.443 2.776h8.7l-.72 4.08H17.592l3.02-17.57ZM7.785 10.687l-.582 3.22h2.66c.693 0 1.357-.166 1.773-.444.527-.305.776-.805.776-1.471 0-.528-.194-.86-.527-1-.443-.166-1.246-.305-2.271-.305h-1.83Zm1.053-6.135-.499 2.943h2.272c.665 0 1.247-.222 1.58-.528.415-.305.664-.805.664-1.415 0-.666-.665-1.027-1.773-1.027H8.838v.027Zm-2.466-.25.166-.86c.083.028.222 0 .305-.055.083-.056.166-.167.222-.334a.783.783 0 0 0 0-.36.493.493 0 0 0-.222-.195c-.056-.027-.11 0-.166.028-.056.028-.111.083-.167.139-.027.055-.083.11-.11.194-.028.056-.056.139-.084.194-.083.223-.166.417-.277.556a.65.65 0 0 1-.332.333c-.139.083-.305.11-.527.055-.304-.055-.526-.194-.664-.472-.111-.277-.139-.61-.056-1.027.056-.305.139-.555.25-.694.11-.166.277-.305.415-.333a1.11 1.11 0 0 1 .527-.028l-.167.861c-.11-.028-.194 0-.305.056a.797.797 0 0 0-.166.305.386.386 0 0 0 .056.305c.055.056.11.111.166.139.166.028.305-.111.443-.444.111-.305.222-.555.305-.666a.706.706 0 0 1 .305-.333c.166-.056.332-.111.582-.084a.822.822 0 0 1 .526.278c.139.139.194.305.25.555.027.194.027.472-.028.722-.056.444-.222.805-.416.971-.166.167-.47.25-.831.195Zm-.499 1.555-1.357.167v.027l1.19.667.167-.86Zm-2.022.555.166-1.055 3.297-.666-.166.972-.638.083-.221 1.277.554.305-.139.833-2.853-1.749ZM3.407 8.8l.167-.861 2.188.389c.305.055.527.194.665.444.139.25.167.555.083.916a1.968 1.968 0 0 1-.249.666.79.79 0 0 1-.416.278c-.166.027-.36.055-.554 0l.167-.86c.11.027.221.027.304 0 .083-.029.167-.084.167-.195.055-.195-.084-.333-.388-.417L3.407 8.8Zm.86 4.219c.304.055.526.055.747 0 .194-.056.333-.278.388-.527l.028-.028a.742.742 0 0 0-.166-.555 1.33 1.33 0 0 0-.693-.306c-.665-.11-1.08.056-1.136.528-.028.138-.028.277.028.36.055.111.11.195.166.278.11.056.194.111.305.167.055.027.194.055.332.083Zm-.112.916a2.122 2.122 0 0 1-1.136-.583c-.249-.305-.332-.777-.249-1.36.055-.278.166-.528.305-.75.138-.194.36-.388.61-.472.276-.083.609-.138.997-.055.415.083.776.277 1.025.583.277.305.36.75.277 1.277a2.45 2.45 0 0 1-.277.722c-.11.194-.277.333-.416.444a2.02 2.02 0 0 1-.526.194 2.235 2.235 0 0 1-.61 0Zm-2.05 2.22.166-.86 2.466.444.25-1.415.61.11-.417 2.277-3.075-.555ZM4.017.446h8.256c4.489 0 6.484 1.443 6.04 4.357a4.749 4.749 0 0 1-.97 2.221c-.526.666-1.246 1.221-1.939 1.666.693.138 1.358.582 1.718 1.165.332.583.554 1.333.554 2.027 0 .222-.055.583-.166.944-.333 1.748-1.247 3.136-2.55 3.886-1.329.805-3.268 1.221-5.54 1.221H.914L4.017.444Z" fill="#E5252B"/></svg>