<svg width="93" height="18" fill="none" xmlns="http://www.w3.org/2000/svg"><path fill-rule="evenodd" clip-rule="evenodd" d="M.398 15.49V1.748c0-.555.139-1 .388-1.305C1.063.14 1.423 0 1.922 0c.499 0 .859.167 1.136.444.277.305.388.75.388 1.305v2.776c1.136 0 2.133.11 3.02.333.887.222 1.662.527 2.3.944 1.08.721 1.911 1.554 2.466 2.526.554.971.83 2.054.83 3.22 0 .888-.22 1.748-.636 2.498a5.036 5.036 0 0 1-1.801 1.86c-.527.333-1.136.555-1.801.722-.665.138-1.497.222-2.522.222H2.31c-.803 0-1.33-.111-1.58-.306-.193-.166-.332-.527-.332-1.055Zm3.048-8.356v6.967h2.327c.998 0 1.774-.222 2.3-.666.526-.444.776-1.082.776-1.915 0-1.25-.499-2.304-1.496-3.137-1.026-.805-2.328-1.221-3.907-1.249Zm22.415 3.636c0 1.832-.582 3.36-1.718 4.525-1.164 1.166-2.632 1.777-4.46 1.777-1.83 0-3.326-.583-4.49-1.75-1.163-1.165-1.717-2.692-1.717-4.551 0-1.86.582-3.387 1.718-4.553 1.136-1.166 2.632-1.749 4.488-1.749 1.801 0 3.297.583 4.46 1.777 1.137 1.166 1.719 2.692 1.719 4.524Zm-6.179-3.608c-.859 0-1.551.333-2.106.971-.526.639-.803 1.5-.803 2.554 0 1.11.25 1.999.803 2.665.527.666 1.22 1 2.106 1 .887 0 1.58-.334 2.106-.972.526-.639.803-1.527.803-2.61 0-1.082-.277-1.97-.803-2.637-.527-.666-1.247-.971-2.106-.971Zm15.433 1.554V8.19c0-.333-.111-.583-.36-.75-.25-.166-.582-.25-1.053-.25h-3.935c-.554 0-.97-.11-1.274-.305-.305-.194-.444-.5-.444-.888 0-.416.139-.722.471-.944.305-.222.748-.333 1.303-.333h4.322c1.413 0 2.41.278 3.048.888.637.583.942 1.527.942 2.832v7.023c0 .555-.111.944-.333 1.193-.221.25-.582.389-1.053.389-.443 0-.748-.111-.997-.36-.222-.25-.36-.612-.36-1.056a4.017 4.017 0 0 1-1.58 1.083c-.637.25-1.357.36-2.16.36-1.358 0-2.439-.332-3.27-.999-.831-.666-1.247-1.554-1.247-2.637 0-1.554.665-2.72 1.94-3.47 1.357-.832 3.352-1.221 6.04-1.249Zm0 2.166c-1.58.027-2.771.222-3.575.61-.83.389-1.246.944-1.246 1.666 0 .444.166.805.526 1.055.36.25.859.36 1.524.36.887 0 1.58-.194 2.078-.582.471-.39.72-.917.72-1.666v-1.443h-.027Zm17.566-.111c0 1.831-.582 3.358-1.718 4.524-1.164 1.166-2.632 1.777-4.461 1.777-1.829 0-3.325-.583-4.489-1.75-1.163-1.165-1.717-2.692-1.717-4.551 0-1.86.582-3.387 1.718-4.553 1.136-1.166 2.632-1.749 4.488-1.749 1.801 0 3.297.583 4.46 1.777 1.164 1.166 1.719 2.692 1.719 4.524Zm-6.179-3.61c-.859 0-1.58.334-2.106.972-.526.639-.803 1.5-.803 2.554 0 1.11.277 1.999.803 2.665.527.666 1.22 1 2.106 1 .887 0 1.58-.334 2.106-.972.526-.639.803-1.527.803-2.61 0-1.082-.25-1.97-.803-2.637-.527-.666-1.22-.971-2.106-.971Zm16.402 2.277c0-.805-.166-1.416-.554-1.832-.36-.416-.914-.61-1.662-.61-.86 0-1.552.25-2.023.749-.47.5-.72 1.166-.72 2.054v5.44c0 .556-.139 1-.416 1.305-.277.306-.665.472-1.136.472-.498 0-.859-.166-1.136-.472-.277-.305-.388-.75-.388-1.304V6.3c0-.555.139-.971.388-1.249.277-.305.638-.444 1.136-.444.471 0 .831.111 1.053.36.222.25.333.64.36 1.194.305-.527.776-.943 1.441-1.22.665-.278 1.468-.445 2.383-.445 1.274 0 2.327.389 3.13 1.166.804.777 1.22 1.776 1.22 2.998v6.579c0 .555-.139.999-.416 1.304-.277.306-.637.472-1.136.472-.499 0-.859-.166-1.136-.472-.25-.305-.388-.75-.388-1.304V9.438Zm11.97 7.44c-.998 0-1.83-.084-2.522-.223a5.453 5.453 0 0 1-1.8-.721c-.776-.472-1.358-1.11-1.802-1.86a4.961 4.961 0 0 1-.665-2.498c0-1.166.278-2.249.86-3.22.581-.972 1.412-1.833 2.493-2.554a6.906 6.906 0 0 1 2.3-.944c.886-.222 1.911-.333 3.02-.333V1.749c0-.555.138-1 .388-1.305C77.394.14 77.782 0 78.28 0c.471 0 .86.167 1.109.444.277.305.388.75.388 1.305v13.74c0 .528-.139.889-.388 1.083-.25.194-.776.305-1.58.305h-2.936Zm-.416-2.749h2.327V7.162c-1.579 0-2.881.416-3.906 1.277-1.026.832-1.524 1.887-1.524 3.136 0 .833.25 1.5.776 1.916.554.416 1.302.638 2.327.638Zm15.377-5.413V8.19c0-.333-.11-.583-.36-.75-.25-.166-.582-.25-1.053-.25h-3.934c-.554 0-.97-.11-1.247-.305-.277-.194-.443-.5-.443-.888 0-.416.138-.722.443-.944.305-.222.748-.333 1.302-.333h4.322c1.413 0 2.41.278 3.048.888.637.583.942 1.527.942 2.832v7.023c0 .555-.11.944-.332 1.193-.222.25-.582.389-1.053.389-.416 0-.776-.111-.998-.36-.221-.25-.332-.612-.332-1.056a4.017 4.017 0 0 1-1.58 1.083c-.637.25-1.357.36-2.16.36-1.358 0-2.439-.332-3.27-.999-.831-.666-1.247-1.554-1.247-2.637 0-1.554.638-2.72 1.968-3.47 1.302-.832 3.297-1.221 5.984-1.249Zm0 2.166c-1.58.027-2.77.222-3.602.61-.83.389-1.246.944-1.246 1.666 0 .444.166.805.526 1.055.36.25.859.36 1.524.36.886 0 1.579-.194 2.05-.582.471-.39.72-.917.72-1.666v-1.443h.028Z" fill="#ED6942"/></svg>