<svg width="55" height="65" fill="none" xmlns="http://www.w3.org/2000/svg"><path d="M16.333 1.305c-.693-.444-1.524-.75-2.466-1C12.925.083 12.066 0 11.262 0 9.49 0 7.8.36 6.302 1.166a10.454 10.454 0 0 0-3.656 3.303C1.704 5.83 1.149 7.44.928 9.216c-.194 1.749 0 3.303.582 4.719a6.796 6.796 0 0 0 2.909 3.275c1.302.778 2.964 1.194 4.849 1.194.858 0 1.828-.083 2.826-.305 1.025-.222 1.94-.528 2.66-.916.249-.084.332-.361.221-.583l-.305-.805c-.554-1.277-1.995-1.999-3.408-1.694-.554.111-1.108.195-1.662.195-.776 0-1.44-.222-1.995-.61-.554-.417-.997-1-1.274-1.75s-.333-1.61-.25-2.581a6.72 6.72 0 0 1 .915-2.748A5.444 5.444 0 0 1 8.74 4.802c.693-.416 1.358-.61 2.106-.61.582 0 1.108.055 1.551.166 1.413.305 2.937-.36 3.658-1.61l.415-.722c.139-.305.083-.61-.138-.721ZM34.924.305h-1.247c-1.801 0-3.408 1.36-3.574 3.082l-.444 3.803h-5.68l.444-3.748c.083-.833-.166-1.665-.72-2.248a3.11 3.11 0 0 0-2.41-.944l-1.165.028a.48.48 0 0 0-.47.416L17.8 17.516a.438.438 0 0 0 .11.36.483.483 0 0 0 .333.167h1.247c1.773 0 3.408-1.415 3.574-3.081l.444-3.775h5.624l-.415 3.664c-.084.833.166 1.61.692 2.22.554.611 1.413 1 2.3 1h1.247c.249 0 .47-.194.47-.444L35.34.833a.438.438 0 0 0-.11-.361c-.056-.111-.167-.167-.305-.167ZM49.802.638a.442.442 0 0 0-.443-.333h-3.851c-.166 0-.305.084-.416.25l-8.7 16.822c-.055.111-.055.305.028.472.083.111.25.222.416.222h2.078c1.357 0 2.687-.805 3.269-2.026l.803-1.61h5.763l.416 1.526c.332 1.277 1.524 2.11 2.937 2.11h.36l1.8-.222c.112 0 .25-.083.333-.194a.698.698 0 0 0 .056-.417L49.802.638ZM47.67 10.41h-2.715l1.717-3.47.998 3.47ZM12.51 30.618H7.05l.332-3.053h3.962c1.774 0 3.408-1.416 3.575-3.082l.055-.333c0-.166-.028-.277-.11-.36-.084-.084-.223-.167-.333-.167H3.227a.502.502 0 0 0-.47.416L.9 40.833a.438.438 0 0 0 .11.361c.084.083.223.167.333.167H2.59c1.801 0 3.408-1.416 3.574-3.081l.416-3.665h2.743c1.8 0 3.408-1.36 3.602-3.08l.027-.334c0-.167-.027-.278-.11-.36-.084-.14-.194-.223-.333-.223ZM26.252 23.928c-.056-.222-.25-.333-.471-.333h-3.824a.43.43 0 0 0-.416.25l-8.7 16.822c-.055.11-.055.305.028.472.056.11.222.222.416.222h2.078c1.33 0 2.687-.805 3.27-2.027l.775-1.61h5.79l.416 1.527c.305 1.277 1.524 2.11 2.91 2.11h.36l1.8-.222a.352.352 0 0 0 .333-.195c.083-.11.083-.277.056-.416l-4.821-16.6ZM24.09 33.7h-2.715l1.718-3.47.997 3.47ZM13.756 57.405a6.773 6.773 0 0 0 1.94-1.72 5.653 5.653 0 0 0 1.108-2.832c.221-1.999-.36-3.498-1.746-4.525-1.302-.971-3.075-1.471-5.264-1.471H3.255c-.25 0-.47.194-.47.416L.871 64.095a.438.438 0 0 0 .111.361c.083.083.222.167.333.167h1.246c1.801 0 3.408-1.416 3.575-3.082l.304-2.748h2.466l1.912 4.136c.471 1.027 1.524 1.694 2.77 1.694h2.854c.167 0 .305-.084.416-.223a.565.565 0 0 0 .028-.471l-3.131-6.524ZM7.41 50.91h1.94c.83 0 1.468.166 1.856.5.332.277.47.749.415 1.415-.055.583-.332 1.055-.803 1.416-.526.36-1.191.527-1.967.527H6.996l.415-3.858ZM26.224 46.857H22.15a.502.502 0 0 0-.471.416l-1.856 16.822a.438.438 0 0 0 .11.361.483.483 0 0 0 .333.167h1.247c1.773 0 3.408-1.416 3.574-3.082l1.58-14.129a.438.438 0 0 0-.112-.36c-.055-.14-.221-.195-.332-.195ZM45.148 46.996a.55.55 0 0 0-.36-.167H31.155a.48.48 0 0 0-.471.417l-.028.36c-.083.833.166 1.61.693 2.221.554.61 1.413 1 2.3 1h4.876L28.496 60.93c-.083.055-.111.166-.166.277l-.305 2.832c0 .138.028.277.11.36.084.084.222.167.333.167h14.49c.25 0 .472-.194.472-.444l.055-.333a2.875 2.875 0 0 0-.693-2.193c-.554-.666-1.413-1-2.3-1h-5.928l10.223-10.104c.056-.083.111-.194.111-.277l.333-2.86c.055-.11 0-.25-.084-.36Z" fill="#000"/></svg>