<svg width="98" height="18" fill="none" xmlns="http://www.w3.org/2000/svg"><path d="M8.281 6.745v.916H2.546V1.915H8.28v.972h1.912v-1A1.888 1.888 0 0 0 8.309 0H2.546A1.888 1.888 0 0 0 .662 1.888V7.66c0 1.028.831 1.888 1.884 1.888h5.763a1.888 1.888 0 0 0 1.884-1.888v-.916H8.28ZM31.36 6.745v.916h-5.735V1.915h5.736v.972h1.911v-1A1.888 1.888 0 0 0 31.388 0h-5.763a1.888 1.888 0 0 0-1.884 1.888V7.66c0 1.028.832 1.888 1.884 1.888h5.763a1.888 1.888 0 0 0 1.884-1.888v-.916h-1.911ZM13.629 7.661V0h-1.885v9.549h6.899V7.661H13.63ZM22.162 0h-1.884v9.55h1.884V0ZM48.594.028h-.138l-3.02 5.052-3.02-5.052h-2.134v9.549h1.829V3.414l2.327 4.053h1.829l2.327-3.997v6.107h1.856V.027h-1.856ZM61.173 1.888V.028h-9.115V9.55h9.115V7.69h-7.26V5.717h5.736v-1.86h-5.735v-1.97h7.259ZM72.2.028h-9.392v1.86h3.768v7.661h1.856V1.888H72.2V.028ZM76.328.028h2.078l4.073 9.521h-2.05l-1.025-2.526h-3.242l.693-1.693h1.8l-1.357-3.22-2.992 7.44h-2.023L76.328.027ZM85.97.028h-1.884V9.52h1.884V.028ZM97.108 2.887v-.944A1.917 1.917 0 0 0 95.197.028H89.46c-1.052 0-1.911.86-1.911 1.915v1.888c0 1.055.859 1.915 1.911 1.915h5.736v1.888h-5.68V6.69H87.55v.944c0 1.055.859 1.915 1.911 1.915h5.736c1.052 0 1.911-.86 1.911-1.915V5.746a1.917 1.917 0 0 0-1.911-1.915H89.46V1.943h5.68v.944h1.967ZM12.326 14.435h.083c.028 0 .056.027.056.055v2.332a.06.06 0 0 1-.056.055h-.055a.06.06 0 0 1-.055-.055v-2.054l-.97 1.471c0 .028-.028.028-.056.028h-.027c-.028 0-.056 0-.056-.028l-.97-1.471v2.054c0 .028-.027.055-.055.055h-.055a.06.06 0 0 1-.056-.055V14.49c0-.028.028-.055.056-.055h.083c.028 0 .055.027.083.055l1.025 1.5 1.025-1.5c-.055-.055-.027-.055 0-.055ZM15.319 15.99c0 .055-.056.082-.084.082h-1.44c.055.361.332.667.72.667a.709.709 0 0 0 .526-.222c.028-.028.056-.028.084 0l.055.027c.028.028.055.056.028.084-.167.194-.416.277-.693.277-.526 0-.914-.416-.914-.944 0-.5.36-.943.886-.943.471.055.832.416.832.971Zm-1.524-.084h1.33c-.056-.389-.305-.666-.665-.666-.36 0-.638.305-.665.666ZM17.147 16.71a.06.06 0 0 1 .056.056v.056a.06.06 0 0 1-.056.055c-.277.028-.554-.055-.554-.555v-1.055h-.277c-.028 0-.055-.027-.055-.055v-.056a.06.06 0 0 1 .055-.055h.277v-.306c0-.027.028-.055.055-.055h.056c.028 0 .055.028.055.056v.305h.36a.06.06 0 0 1 .056.055v.056c0 .028-.028.055-.056.055h-.36v1.083c.028.25.083.389.388.36ZM20.029 15.156v1.666a.06.06 0 0 1-.056.055h-.055c-.028 0-.055-.027-.055-.055v-.278a.815.815 0 0 1-.693.389c-.527 0-.887-.416-.887-.944 0-.527.388-.944.887-.944.305 0 .554.14.692.389v-.278c0-.027.028-.055.056-.055h.055a.06.06 0 0 1 .056.055Zm-.194.833c0-.416-.305-.75-.693-.75-.415 0-.693.334-.693.75s.277.75.693.75c.416 0 .693-.334.693-.75ZM21.248 14.601c0-.055.055-.11.11-.11.084 0 .111.055.111.11 0 .083-.055.111-.11.111-.056 0-.111-.027-.111-.11Zm.027 2.22v-1.665a.06.06 0 0 1 .056-.055h.055a.06.06 0 0 1 .056.055v1.666a.06.06 0 0 1-.056.055h-.055a.06.06 0 0 1-.055-.055ZM23.825 16.405c0 .278-.194.528-.638.528-.305 0-.526-.139-.61-.333-.027-.028 0-.083.028-.083l.056-.028c.027 0 .055 0 .083.028.055.11.222.222.443.222.277 0 .444-.14.444-.334s-.139-.25-.416-.305c-.277-.055-.582-.139-.582-.5 0-.277.25-.527.554-.527.25 0 .444.111.527.333.027.028 0 .083-.056.083l-.055.028c-.028 0-.056 0-.083-.027-.056-.14-.194-.195-.36-.195-.222 0-.36.139-.36.333 0 .195.166.278.443.333.249 0 .582.084.582.444ZM28.23 17.571h-.056a.06.06 0 0 1-.055-.055v-.944a.815.815 0 0 1-.693.389c-.526 0-.886-.417-.886-.944 0-.527.388-.944.886-.944.305 0 .555.139.693.389v-.278c0-.028.028-.055.055-.055h.056c.027 0 .055.027.055.055v2.332a.06.06 0 0 1-.055.055Zm-.831-2.331c-.416 0-.693.333-.693.75 0 .416.277.749.693.749.415 0 .692-.333.692-.75 0-.416-.277-.75-.692-.75ZM30.945 15.1c.028 0 .055.029.055.056v1.666c0 .028-.027.055-.055.055h-.055a.06.06 0 0 1-.056-.055V16.6a.642.642 0 0 1-.582.333c-.526 0-.72-.416-.72-.777v-1a.06.06 0 0 1 .055-.055h.056c.028 0 .055.028.055.055v1c0 .25.111.583.527.583.415 0 .581-.334.581-.583v-1a.06.06 0 0 1 .056-.055h.083ZM33.854 15.99c0 .055-.055.082-.083.082h-1.44c.055.361.332.667.72.667a.709.709 0 0 0 .526-.222c.028-.028.056-.028.083 0l.056.027c.027.028.055.056.027.084-.166.194-.415.277-.692.277-.527 0-.915-.416-.915-.944 0-.5.36-.943.887-.943.471.055.831.416.831.971Zm-1.524-.084h1.33c-.055-.389-.304-.666-.665-.666-.36 0-.637.305-.665.666ZM38.038 15.1h.055c.028 0 .056.029.056.056l-.693 1.666c-.028.028-.055.055-.083.055h-.083c-.028 0-.083-.027-.083-.055l-.693-1.666c-.028-.027 0-.055.055-.055h.084c.027 0 .083.028.083.055l.61 1.472.609-1.472c0-.027.028-.055.083-.055ZM40.864 15.156v1.666a.06.06 0 0 1-.055.055h-.056a.06.06 0 0 1-.055-.055v-.278a.815.815 0 0 1-.693.389c-.526 0-.887-.416-.887-.944 0-.527.388-.944.887-.944.305 0 .554.14.693.389v-.278a.06.06 0 0 1 .055-.055h.056a.06.06 0 0 1 .055.055Zm-.166.833c0-.416-.305-.75-.693-.75-.416 0-.693.334-.693.75s.278.75.693.75c.388 0 .693-.334.693-.75ZM42.166 14.435h.056c.027 0 .055.027.055.055v2.332a.06.06 0 0 1-.055.055h-.056a.06.06 0 0 1-.055-.055V14.49c0-.028.028-.055.055-.055ZM45.27 15.99a.93.93 0 0 1-.915.943c-.526 0-.914-.416-.914-.944a.93.93 0 0 1 .914-.944c.499.028.914.444.914.944Zm-.195 0a.746.746 0 0 0-.748-.75.746.746 0 0 0-.748.75c0 .415.333.749.748.749a.746.746 0 0 0 .748-.75ZM47.126 15.073c.027 0 .055.028.055.056v.083a.06.06 0 0 1-.055.055c-.36.028-.582.278-.582.694v.833c0 .028-.028.056-.055.056h-.056c-.028 0-.055-.028-.055-.056V15.13c0-.028.027-.056.055-.056h.056c.027 0 .055.028.055.056v.333c.138-.195.332-.361.582-.389ZM48.262 14.601c0-.055.055-.11.11-.11.084 0 .111.055.111.11 0 .083-.055.111-.11.111-.056 0-.111-.027-.111-.11Zm.027 2.22v-1.665a.06.06 0 0 1 .056-.055h.055a.06.06 0 0 1 .056.055v1.666a.06.06 0 0 1-.056.055h-.055a.06.06 0 0 1-.056-.055ZM50.81 16.71c.028 0 .056.029.056.056v.056c0 .028-.028.055-.055.055h-1.164c-.028 0-.055-.027-.055-.055v-.083c0-.028 0-.056.027-.084l.998-1.388h-.942c-.028 0-.056-.027-.056-.055v-.056c0-.027.028-.055.056-.055h1.108c.028 0 .055.028.055.055v.084c0 .027 0 .055-.027.083l-.998 1.388h.998ZM53.692 15.156v1.666a.06.06 0 0 1-.055.055h-.056a.06.06 0 0 1-.055-.055v-.278a.815.815 0 0 1-.693.389c-.526 0-.886-.416-.886-.944 0-.527.388-.944.886-.944.305 0 .554.14.693.389v-.278a.06.06 0 0 1 .055-.055h.056a.06.06 0 0 1 .055.055Zm-.194.833c0-.416-.304-.75-.692-.75-.416 0-.693.334-.693.75s.277.75.693.75c.388 0 .692-.334.692-.75ZM57.377 15.767v1.055a.06.06 0 0 1-.055.055h-.056a.06.06 0 0 1-.055-.055v-1.055c0-.25-.11-.527-.443-.527-.36 0-.5.305-.5.555v1.027a.06.06 0 0 1-.054.055h-.056a.06.06 0 0 1-.055-.055v-1.055c0-.25-.111-.527-.444-.527-.36 0-.498.305-.498.555v1.027a.06.06 0 0 1-.056.055h-.055a.06.06 0 0 1-.056-.055v-1.666a.06.06 0 0 1 .056-.055h.055a.06.06 0 0 1 .056.055v.195c.11-.167.249-.306.498-.306.277 0 .471.167.555.361.11-.194.304-.36.554-.36.388.027.61.388.61.721ZM61.977 15.156v1.666a.06.06 0 0 1-.056.055h-.055a.06.06 0 0 1-.056-.055v-.278a.815.815 0 0 1-.692.389c-.527 0-.887-.416-.887-.944 0-.527.388-.944.887-.944.304 0 .554.14.692.389v-.278a.06.06 0 0 1 .056-.055h.055a.06.06 0 0 1 .056.055Zm-.194.833c0-.416-.305-.75-.693-.75-.416 0-.693.334-.693.75s.277.75.693.75c.388 0 .692-.334.692-.75ZM66.022 16.405c0 .278-.194.528-.638.528-.304 0-.526-.139-.61-.333-.027-.028 0-.083.028-.083l.056-.028c.028 0 .055 0 .083.028.055.11.222.222.443.222.277 0 .444-.14.444-.334s-.139-.25-.416-.305c-.277-.055-.582-.139-.582-.5 0-.277.25-.527.554-.527.25 0 .444.111.527.333.028.028 0 .083-.056.083l-.055.028c-.028 0-.055 0-.083-.027-.056-.14-.194-.195-.36-.195-.222 0-.36.139-.36.333 0 .195.166.278.443.333.277 0 .582.084.582.444ZM68.57 15.1c.028 0 .056.029.056.056v1.666c0 .028-.028.055-.055.055h-.056c-.028 0-.055-.027-.055-.055V16.6a.642.642 0 0 1-.582.333c-.526 0-.72-.416-.72-.777v-1c0-.027.027-.055.055-.055h.055c.028 0 .056.028.056.055v1c0 .25.11.583.526.583.416 0 .582-.334.582-.583v-1c0-.027.028-.055.055-.055h.084ZM71.535 15.156v1.666a.06.06 0 0 1-.055.055h-.056a.06.06 0 0 1-.055-.055v-.278a.815.815 0 0 1-.693.389c-.526 0-.886-.416-.886-.944 0-.527.388-.944.886-.944.305 0 .554.14.693.389v-.278a.06.06 0 0 1 .055-.055h.056a.06.06 0 0 1 .055.055Zm-.194.833c0-.416-.304-.75-.692-.75-.416 0-.693.334-.693.75s.277.75.693.75c.388 0 .692-.334.692-.75ZM76.91 15.767v1.055a.06.06 0 0 1-.055.055h-.056a.06.06 0 0 1-.055-.055v-1.055c0-.25-.11-.527-.443-.527-.36 0-.499.305-.499.555v1.027a.06.06 0 0 1-.055.055h-.056a.06.06 0 0 1-.055-.055v-1.055c0-.25-.111-.527-.444-.527-.36 0-.498.305-.498.555v1.027a.06.06 0 0 1-.056.055h-.11a.06.06 0 0 1-.056-.055v-1.666a.06.06 0 0 1 .056-.055h.055c.028 0 .055.028.055.055v.195c.111-.167.25-.306.5-.306.276 0 .47.167.553.361.111-.194.305-.36.554-.36.444.027.665.388.665.721ZM79.82 15.156v1.666a.06.06 0 0 1-.056.055h-.055a.06.06 0 0 1-.056-.055v-.278a.815.815 0 0 1-.692.389c-.527 0-.887-.416-.887-.944 0-.527.388-.944.887-.944.304 0 .554.14.692.389v-.278a.06.06 0 0 1 .056-.055h.055s.056.028.056.055Zm-.194.833c0-.416-.305-.75-.693-.75-.416 0-.693.334-.693.75s.277.75.693.75c.388 0 .692-.334.692-.75ZM81.814 15.073c.028 0 .056.028.056.056v.083a.06.06 0 0 1-.056.055c-.36.028-.581.278-.581.694v.833c0 .028-.028.056-.056.056h-.055c-.028 0-.056-.028-.056-.056V15.13c0-.028.028-.056.056-.056h.055c.028 0 .055.028.055.056v.333a.749.749 0 0 1 .582-.389ZM84.474 16.572a.918.918 0 0 1-.72.361.935.935 0 0 1-.942-.944c0-.527.415-.944.942-.944.305 0 .554.14.72.361.028.028.028.083-.028.083l-.055.028c-.028.028-.055 0-.083-.027a.736.736 0 0 0-.582-.278.746.746 0 0 0-.748.75c0 .416.333.749.748.749.25 0 .443-.111.582-.278.028-.027.055-.027.083-.027l.055.027c.056.056.056.111.028.14ZM87.273 15.156v1.666a.06.06 0 0 1-.056.055h-.055a.06.06 0 0 1-.056-.055v-.278a.815.815 0 0 1-.692.389c-.527 0-.887-.416-.887-.944 0-.527.388-.944.887-.944.304 0 .554.14.692.389v-.278a.06.06 0 0 1 .056-.055h.055a.06.06 0 0 1 .056.055Zm-.194.833c0-.416-.305-.75-.693-.75-.416 0-.693.334-.693.75s.277.75.693.75c.416 0 .693-.334.693-.75Z" fill="#404964"/></svg>