<svg width="107" height="40" fill="none" xmlns="http://www.w3.org/2000/svg"><path fill-rule="evenodd" clip-rule="evenodd" d="M12.648 25.169h4.266v-5.83h4.96c3.158 0 5.624 1.166 5.624 4.97v6.495c0 3.775-2.493 4.996-5.624 4.996h-4.96v-3.58c-.027-.722.527-1.277 1.663-1.638l6.816-2.277H12.648v8.578c0 1.97 3.075 2.082 3.407 2.082h5.819c5.098 0 9.891-1.693 9.891-7.828V24.03c0-6.135-4.793-7.828-9.891-7.828h-9.226v8.966Z" fill="#64C7F0"/><path d="M37.39 34.857c0 .194.055.444.055.444s-.333-.278-.97-.278c-.803 0-1.496.472-1.496 1.277v1.444c0 .832.61 1.304 1.69 1.304.305 0 .693-.139 1.08-.139.195 0 .416.028.61.14v-5.22c0-.582-.914-.555-.97-.555v1.583Zm0 3.386s-.278.083-.638.083c-.61 0-.803-.222-.803-.694v-1.22c0-.5.25-.695.61-.695.415 0 .803.25.803.61v1.916h.028Zm1.884.278c0 .472.97.472.97.472v-3.47c0-.472-.915-.5-.97-.5v3.498Zm0-4.247c0 .11.11.222.277.222h.665v-.611c0-.111-.167-.222-.277-.222h-.665v.61Zm4.045 3.525c0 .416-.444.527-.776.527-.554 0-1.22-.138-1.247-.777-.25.278-.36.5-.36.694 0 .528.637.805 1.58.805 1.135 0 1.717-.472 1.717-1.194 0-1.776-2.41-.916-2.41-1.637 0-.306.249-.444.775-.444.638 0 1.164.222 1.164.694.194-.25.277-.472.277-.667 0-.5-.61-.75-1.524-.75-1.053 0-1.662.417-1.662 1.25.055 1.555 2.466.666 2.466 1.499Zm1.634-.083c0 .832.555 1.304 1.552 1.304.887 0 1.33-.388 1.33-.86 0-.222-.11-.444-.305-.666 0 .61-.443.777-.886.777-.555 0-.72-.278-.72-.777v-1.5h.969c.554 0 .554-.721.554-.721h-1.524v-.278c0-.638-.776-.638-.97-.638v3.359Zm4.267 1.277v-3.165c.083 0 .305-.083.554-.083.444 0 .804.222.804.666.055-.083.332-.36.332-.722 0-.5-.47-.694-.997-.694-.443 0-.776.167-1.108.167a1.26 1.26 0 0 1-.582-.139v3.498c.028.472.997.472.997.472Zm2.161-.472c0 .472.97.472.97.472v-3.47c0-.472-.914-.5-.97-.5v3.498Zm.028-4.247c0 .11.11.222.277.222h.665v-.611c0-.111-.166-.222-.277-.222h-.665v.61Zm5.209 2.026c0-.805-.693-1.277-1.496-1.277-.61 0-.97.278-.97.278s.056-.25.056-.444v-1.055c0-.583-.915-.556-.97-.556v5.525c.582.027.997.277 1.607.277 1.136 0 1.745-.472 1.745-1.305V36.3h.028Zm-2.41.028c0-.361.415-.61.803-.61.36 0 .61.221.61.693v1.221c0 .472-.167.694-.804.694-.333 0-.526-.083-.637-.11v-1.888h.028Zm4.183-.805c0-.472-.97-.5-.97-.5v2.748c0 .972.804 1.25 1.58 1.25.415 0 .748-.167 1.108-.167.388 0 .665.166.665.166v-3.497c0-.5-.97-.5-.97-.5v3.165s-.332.11-.72.11c-.527 0-.72-.221-.72-.61v-2.165h.027Zm3.297 2.998c0 .472.97.472.97.472v-3.47c0-.472-.914-.5-.97-.5v3.498Zm.028-4.247c0 .11.11.222.277.222h.665v-.611c0-.111-.166-.222-.277-.222h-.665v.61Zm4.156.583c0 .194.055.444.055.444s-.332-.278-.97-.278c-.803 0-1.495.472-1.495 1.277v1.444c0 .832.609 1.304 1.69 1.304.304 0 .692-.139 1.08-.139.194 0 .416.028.61.14v-5.22c0-.582-.915-.555-.97-.555v1.583Zm0 3.386s-.305.083-.637.083c-.61 0-.804-.222-.804-.694v-1.22c0-.5.25-.695.61-.695.415 0 .803.25.803.61v1.916h.028Zm5.375-1.915c0-.833-.582-1.305-1.8-1.305-1.22 0-1.802.5-1.802 1.305v1.388c0 .832.582 1.304 1.801 1.304 1.22 0 1.801-.5 1.801-1.304v-1.388Zm-.97 1.277c0 .444-.138.721-.83.721-.694 0-.832-.25-.832-.721v-1.166c0-.444.138-.722.831-.722s.831.25.831.722v1.166Zm2.77 1.388v-3.165c.084 0 .306-.083.555-.083.443 0 .804.222.804.666.055-.083.332-.36.332-.722 0-.5-.471-.694-.997-.694-.444 0-.776.167-1.109.167a1.26 1.26 0 0 1-.582-.139v3.498c.028.472.998.472.998.472Zm4.185-.778s-.305.14-.693.14c-.416 0-.665-.167-.665-.5 0-.667 1.191-.445 1.358-.833v1.193Zm-2.328-.36c0 .888.748 1.165 1.524 1.165.416 0 .804-.138 1.164-.138.194 0 .388.027.582.11v-2.72c0-.805-.582-1.277-1.69-1.277-.61 0-1.469.195-1.469.833 0 .194.055.444.277.722 0-.639.554-.833 1.192-.833.581 0 .72.25.72.5-.305.61-2.3.25-2.3 1.638Z" fill="#1E2547"/><path fill-rule="evenodd" clip-rule="evenodd" d="M12.648 18.756v.889c-.25.083-.554.139-.832.166-.665.056-1.136 0-1.579-.36-.554-.445-.582-1.028-.748-1.694l-.499-1.915 1.192 1.582c.859-.777 1.468-1.055 2.66-1.36 1.745-.472 3.712-.5 5.485-.833.998-.194 1.857-.472 2.882-.75-.277.278-1.524.889-1.967 1.083-2.688 1.305-5.625 1.388-6.4 1.805-.333.194-.555.444-.61.721-.055.333.194.583.416.666ZM.263 12.54l.305.721c.11.111.249.361.36.5.72 1 1.8 1.749 2.964 1.998.665.14 1.33.195 2.106.056.61-.111 1.94-.527 2.41-.916 0-.416-.221-1 .222-1.638.305-.472.887-.833 1.44-1.166 2.079-1.36 3.215-1.832 5.598-2.082a12.36 12.36 0 0 1 1.745-.055c.554.028.998.277 1.413.833.305.444.748 1.443.86 1.97-.777-.083-3.132.361-3.88.528-1.33.333-3.13.944-4.35 1.638.25-.028 3.048-1 5.21-1.25a18.067 18.067 0 0 1 2.41-.138c.47 0 1.302.055 1.69.222.194.083.277.194.47.333l-1.911-4.414c1.829-.444 3.242-.832 4.184-2.331.304-.5.526-1.25.581-1.944.028-.5 0-1.138-.11-1.665-.028-.167-.139-.5-.167-.61l-.249-.611c-.332-.334-.388-.833-1.33-1.388-.499-.278-1.053-.472-1.718-.472-1.053 0-2.105.222-2.992.943-.305.25-.416.445-.637.667C15.862.38 13.257-.231 11.317.075c-.276.055-.803.222-.997.25l-.665.277c-.138.139-.415.278-.61.389C8.077 1.713 7.8 2.49 7.19 3.378c-.997 1.444-.942 1.471-2.133 2.887-.25.305-.582.61-.887.888l-.997.833c1.108-.333 3.02-1.888 3.879-2.693.886-.86 2.078-2.415 2.964-3.025 2.05-1.444 4.433-1.333 6.013.333.498.527.277.333.305.916 0 .25.027.833.11 1.055.305-1.388 1.58-2.748 2.993-3.137 1.385-.36 3.075.305 3.574 1.999.277.888.11 1.499-.028 2.193-.11.527-.526 1.276-1.025 1.776-.582.583-1.302 1.027-2.189 1.221-.554.112-1.524.223-2.078.084l-.083-.028h-.028c.25-.527.36-.444.471-1.221.111-.639-.027-.86-.11-1.388-.167.527 0 .86-.776 1.943-.194.277-.499.61-.804.805-.415.25-.83.25-1.246.36.083-.166.166-.305.221-.471.166-.444.222-1.055.139-1.582-.167-.861-.555-1.583-1.08-2.249.22.639.387.944.442 1.61.139 1.416-.415 2.693-1.911 3.414 0-.333 0-.583-.139-.971a10.848 10.848 0 0 0-.25-.555c-.055-.084-.11-.14-.138-.195l-.166-.166c.416.944.194 1.832-.416 2.36-.415.36-2.133 1.22-2.715 1.415a3.917 3.917 0 0 1-2.521.028c-.388-.139-1.829-.805-2.05-1.027.194.416.997 1.166 1.33 1.388.858.555 1.468.582 1.634.694-.61 1.832-2.438 2.137-4.073 1.61-2.41-.75-3.63-3.692-1.884-6.024.444-.61 1.192-1.138 1.884-1.666C4.834 5.738 6.22 4.461 6.47 3.212c-.305.388-.222.5-.831 1.138C3.975 6.126.789 7.237.208 9.485c-.472 1.97 0 2.36.055 3.054Z" fill="#FECB05"/><path d="M35.007 29.916c0 1.36 2.715 1.36 2.715 1.36V21.56c0-1.332-2.549-1.36-2.715-1.36v9.716Zm.055-11.881c0 .305.333.61.776.61h1.856v-1.748c0-.306-.443-.611-.775-.611h-1.857v1.749Zm11.886 11.88c0 1.333 2.716 1.36 2.716 1.36v-7.744c0-2.72-2.272-3.47-4.434-3.47-1.135 0-2.105.444-3.13.444-1.08 0-1.884-.444-1.884-.444v9.827c0 1.36 2.715 1.36 2.715 1.36v-8.855s.914-.305 1.995-.305c1.496 0 1.995.638 1.995 1.748v6.08h.027Zm11.388-.832s-.831.389-1.94.389c-1.191 0-1.884-.473-1.884-1.416 0-1.86 3.353-1.25 3.824-2.36v3.387Zm-6.511-1c0 2.499 2.105 3.304 4.267 3.304 1.19 0 2.244-.389 3.297-.389.526 0 1.052.056 1.607.333V23.67c0-2.276-1.635-3.581-4.71-3.581-1.718 0-4.157.555-4.157 2.36 0 .555.194 1.22.804 2.026 0-1.749 1.58-2.36 3.352-2.36 1.607 0 2.023.667 2.023 1.416-.887 1.666-6.483.639-6.483 4.553Zm18.258 1.833c0 1.332 2.716 1.36 2.716 1.36V23.53c.027-.971 1.163-1.471 2.271-1.471.998 0 1.746.583 1.746 1.943v5.885c0 1.332 2.715 1.36 2.715 1.36V23.67c0-2.443-1.967-3.637-4.267-3.637-2.604 0-3.574.916-3.574.916-.859-.666-2.105-.916-3.297-.916-1.136 0-2.106.445-3.13.445-1.053 0-1.885-.445-1.885-.445v9.827c0 1.36 2.716 1.36 2.716 1.36v-8.855s.914-.305 1.995-.305c1.496 0 1.994.638 1.994 1.749v6.107Zm11.942 0c0 1.36 2.715 1.36 2.715 1.36V21.56c0-1.332-2.549-1.36-2.715-1.36v9.716Zm.055-11.881c0 .305.333.61.776.61h1.829v-1.748c0-.306-.444-.611-.776-.611H82.08v1.749Zm13.3 9.133c-.028 1.249-1.358 2.137-3.187 2.137-1.69 0-2.438-.639-2.438-2.165v-2.832c0-1.748.997-2.193 2.521-2.193 1.33 0 2.688.722 2.688 2.443.554-.833.803-1.499.803-2.082 0-1.86-2.355-2.415-3.99-2.415-2.992 0-4.737 1.416-4.737 3.692v3.914c0 2.332 1.856 3.692 4.82 3.692 2.383 0 4.157-.972 4.157-2.498.027-.5-.194-1.055-.638-1.694Zm8.699 1.915s-.831.389-1.939.389c-1.192 0-1.884-.473-1.884-1.416 0-1.86 3.352-1.25 3.823-2.36v3.387Zm-6.538-1c0 2.499 2.105 3.304 4.266 3.304 1.192 0 2.245-.389 3.297-.389.527 0 1.053.056 1.607.333V23.67c0-2.276-1.634-3.581-4.71-3.581-1.717 0-4.156.555-4.156 2.36 0 .555.194 1.22.804 2.026 0-1.749 1.579-2.36 3.352-2.36 1.607 0 2.023.667 2.023 1.416-.887 1.666-6.483.639-6.483 4.553ZM56.48 15.342c-3.464 2.249-5.348 5.635 0 1.915 5.347 3.748 3.518.361 0-1.915Z" fill="#1E2547"/></svg>