<svg width="118" height="27" fill="none" xmlns="http://www.w3.org/2000/svg"><path d="M110.562.364c-3.696 0-6.48 1.041-8.1 2.707-.249.277-.498.555-.706.867-.041.07-.124.173-.166.243a5.049 5.049 0 0 0-.54 1.353c-.083.416-.166.833-.166 1.25 0 .624.083 1.18.291 1.7a28.96 28.96 0 0 0 4.071-1.978c.373-.208.706-.417.955-.59.374-.243.665-.451.872-.625.083-.07.166-.104.208-.173.581-.486 1.62-.833 3.074-.833 2.492 0 3.78.59 4.818 1.006l.457-1.353.706-2.151.125-.382c-1.454-.52-3.032-1.041-5.899-1.041ZM89.17.572c-2.866 0-5.94.174-7.477.451v11.243c1.163-.07 2.326-.14 3.531-.243 3.157-.278 5.94-.694 8.39-1.215.915-.208 1.787-.416 2.618-.624l.374-.104c2.035-.972 2.99-2.499 2.99-4.095 0-.243 0-.486-.041-.694a3.052 3.052 0 0 0-.25-.867 2.481 2.481 0 0 0-.29-.555c-.166-.243-.332-.486-.54-.694-.042-.035-.083-.104-.125-.14a6.609 6.609 0 0 0-1.786-1.214 8.953 8.953 0 0 0-2.45-.832c-.624-.14-1.33-.209-2.12-.278C91.124.607 90.21.572 89.17.572ZM69.938.607c-3.074 0-5.483.139-7.352.382v10.86c.249.035.54.07.83.104 1.828.174 4.113.347 6.771.451 1.703.07 3.572.07 5.608.07 1.412-.347 2.824-1.353 3.697-2.776.207-.312.332-.66.457-1.041.041-.173.124-.347.166-.52.083-.417.166-.868.166-1.32V6.645c0-.45-.083-.902-.166-1.283-.333-1.25-1.039-2.256-2.16-3.02-.748-.52-1.62-.867-2.659-1.144-1.454-.417-3.157-.59-5.358-.59Zm19.772 3.47c1.288 0 2.326.243 3.033.659.207.139.373.278.54.451.041.035.082.07.124.139.25.347.416.763.416 1.249 0 1.214-.79 2.082-2.202 2.429a6.433 6.433 0 0 1-1.703.208h-2.493V4.25c.457-.104 1.039-.173 2.285-.173Zm-19.44.104h.125c1.62 0 2.866.416 3.53 1.214.333.382.54.833.582 1.388v.625c-.166 1.7-1.828 2.776-4.57 2.776 0 0-1.287.034-1.62-.035V4.25c.167-.034.54-.07.54-.07.416.035.915 0 1.413 0Zm36.471 2.394a33.142 33.142 0 0 1-5.109 2.81c1.038 1.666 3.198 2.88 6.106 3.713 3.074.902 3.904 1.666 3.904 3.02 0 1.387-1.412 2.324-4.07 2.324-2.16 0-4.237-.52-5.774-1.076a20.654 20.654 0 0 1-1.288-.52c.042-.313.125-.625.125-.972 0-2.22-1.537-3.851-3.656-4.754-2.326.694-4.818 1.25-7.394 1.666h-.041v.035c2.742.035 4.985.763 4.985 2.845 0 2.22-2.326 3.053-4.944 3.053-.996 0-1.661 0-2.242-.069v-5.586a115.65 115.65 0 0 1-5.733.555v7.842s-.29-.694-.581-1.596c-.374-1.18-.873-2.533-1.288-3.782-.374-1.041-.872-1.735-1.537-2.29-2.825.103-5.441.104-7.768.034v.035c1.579.312 2.95 1.18 3.656 3.261a282.017 282.017 0 0 0 1.827 5.17H88.09c5.608 0 7.975-.659 9.845-1.908.041-.035.083-.07.124-.07.707.417 1.994.972 3.905 1.458 1.495.382 3.365.66 5.275.66 7.02 0 10.302-3.054 10.302-6.663 0-3.019-1.579-4.962-6.106-6.35-3.116-1.006-4.569-1.63-4.694-2.845Zm-98.322.972c-4.984 0-8.183 2.949-8.183 7.564 0 2.463.914 4.406 2.285 5.552 1.578 1.318 3.49 1.735 5.483 1.735 1.952 0 3.572-.417 4.403-.694V15.04H7.589v.833h3.655v5.274c-.54.209-1.495.417-3.032.417-3.947 0-6.688-2.186-6.688-6.593 0-4.268 2.866-6.558 6.895-6.558 1.454 0 2.451.243 3.199.555l.374-.833c-.665-.277-1.953-.59-3.573-.59Zm11.673 4.129c-1.579 0-2.783 1.006-3.282 2.186h-.041l-.042-1.978h-1.122c.042.902.084 1.943.084 2.88v7.46h1.204v-5.83c0-.312.042-.659.083-.936.25-1.562 1.413-2.81 3.074-2.81.166 0 .332 0 .457.034v-1.006h-.415Zm20.27 0c-1.786 0-3.157.66-4.029 2.012h-.041l-.083-1.804h-1.122c.042.867.083 1.839.083 3.296v11.312h1.205v-5.76h.041c.706 1.041 1.994 1.735 3.614 1.735 2.659 0 5.068-1.735 5.068-5.517 0-3.262-1.994-5.274-4.736-5.274Zm12.005 0c-2.741 0-5.234 1.839-5.234 5.482 0 3.4 2.285 5.344 5.068 5.344h.041c2.493 0 5.234-1.631 5.234-5.483 0-3.4-2.16-5.343-5.109-5.343Zm-29.7.208v6.246c0 3.47 2.077 4.337 3.822 4.337 1.952 0 3.24-1.041 3.738-1.804h.042l.083 1.596h1.121c-.041-.764-.124-1.562-.124-2.568v-7.807h-1.205v6.627c0 .417-.083.764-.166 1.11-.374.868-1.496 2.013-3.24 2.013-2.202 0-2.908-1.561-2.908-3.678V11.92h-1.163v-.035Zm17.405.624c2.533 0 3.821 2.152 3.821 4.477 0 2.637-1.329 4.65-3.904 4.65-1.537 0-3.033-.834-3.531-2.534-.083-.243-.083-.555-.083-.833v-2.22c0-.278.083-.59.124-.868.416-1.561 1.953-2.671 3.573-2.671Zm12.212 0c2.95 0 3.946 2.707 3.946 4.511 0 2.395-1.537 4.615-3.988 4.615h-.041c-2.41 0-3.905-2.22-3.905-4.545.042-2.082 1.163-4.58 3.988-4.58Zm10.302.868v8.883h5.732v-8.501a188.737 188.737 0 0 1-5.732-.382Z" fill="#2554A2"/></svg>