<svg width="58" height="68" fill="none" xmlns="http://www.w3.org/2000/svg"><path d="M23.704 24.265c-1.053 0-1.884.556-2.716 1.388v7.773c.61.194 1.247.305 1.801.305 2.355 0 3.353-1.471 3.353-4.636 0-3.275-.831-4.83-2.438-4.83Z" fill="#E30613"/><path d="M57.506 55.022c-.693-1.97-1.386-5.08-2.161-9.216-.776-4.136-1.441-9.41-1.441-17.321 0-7.912.665-13.186 1.44-17.322.776-4.136 1.441-7.245 2.162-9.216.138-.416.138-1.055-.333-1.527-.47-.471-1.108-.471-1.524-.333-1.967.694-5.07 1.388-9.198 2.166-4.128.777-9.393 1.443-17.289 1.443-7.896 0-13.16-.666-17.289-1.443C7.745 1.475 4.642.809 2.674.087 2.26-.05 1.677-.079 1.151.42.624.948.65 1.53.818 1.947c.693 1.971 1.385 5.08 2.161 9.216.776 4.136 1.441 9.41 1.441 17.322 0 7.911-.665 13.185-1.44 17.321-.777 4.136-1.442 7.245-2.162 9.216-.138.416-.138 1.055.333 1.527.47.472 1.108.472 1.523.333 1.968-.694 5.07-1.388 9.2-2.165 4.127-.777 9.392-1.444 17.288-1.444 7.896 0 13.16.666 17.289 1.444 4.128.777 7.231 1.443 9.198 2.165.416.139.998.167 1.524-.333a1.464 1.464 0 0 0 .333-1.527ZM14.45 35.73v.555h-2.77c-.638 0-.915-.333-.915-.944V21.656h2.77c.638 0 .915.333.915.944v13.13Zm0-16.24h-2.77c-.638 0-.915-.332-.915-.943v-2.443h2.77c.638 0 .915.333.915.944v2.443Zm8.146 16.99c-1.469 0-3.187-.223-4.378-.584-.665-.194-.915-.36-.915-.999V16.104h2.771c.637 0 .914.333.914.944v5.802c.998-.972 2.356-1.61 3.74-1.61 4.074 0 5.293 3.22 5.293 7.245 0 4.858-2.023 7.994-7.425 7.994Zm13.216-.75v.555H33.04c-.637 0-.914-.333-.914-.944V21.656h2.77c.638 0 .915.333.915.944v13.13Zm0-16.24H33.04c-.637 0-.914-.332-.914-.943v-2.443h2.77c.638 0 .915.333.915.944v2.443Zm6.732 16.99c-1.44 0-2.743-.195-3.768-.528-.388-.167-.61-.555-.61-.972v-1.86c1.192.306 2.744.556 3.741.556 1.662 0 2.355-.5 2.355-1.416 0-2.36-6.234-1.777-6.234-6.607 0-2.304 1.552-4.191 4.987-4.191 1.441 0 2.494.222 3.464.527.415.139.637.555.637.972v1.86c-1.108-.334-2.383-.556-3.436-.556-1.69 0-2.05.528-2.05 1.222 0 1.97 6.262 1.554 6.262 6.606-.028 2.693-2.245 4.386-5.348 4.386Z" fill="#E30613"/><path d="M23.565 47.028c-.11 0-.166-.056-.166-.167v-1.166h-1.191v1.333h-.471c-.111 0-.167-.056-.167-.167v-2.887h.471c.111 0 .167.056.167.167v1.027h1.191v-1.222h.471c.11 0 .166.056.166.167V47h-.47v.028ZM24.563 45.5c0-1.026.47-1.61 1.357-1.61.86 0 1.302.528 1.302 1.61 0 1.028-.47 1.61-1.357 1.61-.859 0-1.302-.526-1.302-1.61Zm1.995 0c0-.804-.222-1.082-.665-1.082-.444 0-.665.333-.665 1.083 0 .805.221 1.11.665 1.11.443-.027.665-.36.665-1.11ZM28.47 47.028c-.111 0-.167-.056-.167-.167v-2.387h-.859v-.306c0-.11.056-.194.166-.194h2.19v.333c0 .111-.056.167-.167.167h-.693v2.554h-.47ZM32.348 46.806c0 .11-.055.166-.138.194a4.58 4.58 0 0 1-.887.083c-.942 0-1.108-.305-1.108-1.11v-1.999h1.995v.333c0 .111-.056.167-.167.167h-1.19v.722h1.218v.333c0 .11-.055.166-.166.166h-1.053v.278c0 .527.139.61.637.61.25 0 .61-.027.86-.083v.306ZM34.759 46.806c0 .11-.056.166-.139.194a3.588 3.588 0 0 1-.72.083c-.887 0-1.053-.305-1.053-1.11v-1.999h.47c.112 0 .167.056.167.167v1.804c0 .527.139.61.582.61.25 0 .471-.027.693-.083v.334ZM36.06 47.055c-.304 0-.553-.027-.775-.11-.083-.029-.138-.084-.138-.195v-.305c.249.055.554.11.775.11.388 0 .555-.138.555-.388 0-.583-1.386-.416-1.386-1.416 0-.471.305-.832.998-.832.304 0 .498.055.692.11.083.028.139.084.139.195v.305a2.062 2.062 0 0 0-.72-.11c-.389 0-.5.138-.5.305 0 .527 1.358.36 1.358 1.415.083.555-.332.916-.997.916Z" fill="#fff"/><path d="M8.77 61.49H7.55v5.885h1.22V61.49ZM9.823 64.432c0-1.748 1.219-2.998 2.992-2.998.97 0 1.662.25 2.133.806l-.83.804c-.306-.305-.638-.527-1.303-.527-1.053 0-1.745.833-1.745 1.915 0 1.083.72 1.944 1.939 1.944.388 0 .859-.056 1.136-.223v-.86h-1.413v-1.055h2.521v2.554c-.332.278-1.191.694-2.244.694-1.94-.028-3.186-1.305-3.186-3.054ZM20.711 67.375h-1.385l-.97-1.5c-.11.029-.221.029-.332.029h-.416v1.47H16.39V61.49h1.635c1.635 0 2.632.777 2.632 2.22 0 .917-.416 1.5-1.136 1.833l1.191 1.832Zm-2.742-2.498c.997 0 1.412-.306 1.412-1.138 0-.833-.443-1.166-1.413-1.166h-.387v2.304h.387ZM21.681 61.49h3.88v1.083H22.9v1.86h2.354v1.054H22.9v.833H25.7v1.055H21.68V61.49ZM26.308 66.348l.998-.583c.194.333.36.61.775.61.388 0 .638-.166.638-.749v-4.108h1.219v4.136c0 1.249-.72 1.832-1.801 1.832-.97-.028-1.524-.528-1.829-1.138ZM32.348 61.49H31.13v5.885h1.22V61.49ZM35.313 64.654c-.305-.277-.693-.804-.693-.804s.083.638.083 1.082v2.47h-1.136v-5.94h.111l2.965 2.776c.277.278.692.805.692.805s-.083-.666-.083-1.082V61.49h1.136v5.94h-.11l-2.965-2.776ZM39.635 61.49h1.191v3.026h2.522V61.49h1.219v5.885h-1.22v-1.777h-2.52v1.777h-1.192V61.49ZM47.92 61.462h.11l2.688 5.94h-1.275l-.277-.666h-2.383l-.277.667h-1.163l2.576-5.94Zm.83 4.247-.415-1.027c-.166-.416-.36-1.055-.36-1.055s-.166.639-.333 1.055l-.415 1.027h1.524Z" fill="#E30613"/></svg>