<svg width="111" height="36" fill="none" xmlns="http://www.w3.org/2000/svg"><path d="M73.32 3.963c.936 0 1.695-.634 1.695-1.416 0-.781-.76-1.415-1.695-1.415-.936 0-1.695.634-1.695 1.415 0 .782.759 1.416 1.695 1.416ZM2.339 3.963c.936 0 1.695-.634 1.695-1.416 0-.781-.76-1.415-1.695-1.415-.936 0-1.695.634-1.695 1.415 0 .782.759 1.416 1.695 1.416Z" fill="#42BBD8"/><path d="M2.339 22.229c-.532 0-.93-.361-.93-.778V6.74c0-.444.431-.777.93-.777.498 0 .93.36.93.777v14.712c0 .417-.399.777-.93.777ZM65.843 22.228c-.532 0-.93-.36-.93-.777V1.465c0-.444.431-.777.93-.777.498 0 .93.36.93.777V21.45c0 .417-.432.777-.93.777ZM73.652 22.229c-.532 0-.93-.361-.93-.778V6.74c0-.444.432-.777.93-.777.532 0 .93.36.93.777v14.712c0 .417-.431.777-.93.777ZM16.562 21.618c-5.218 0-8.009-2.943-8.009-5.08v-3.83c0-1.139.266-2.194.797-3.138 1.33-2.387 2.925-2.886 3.988-2.886h4.885c.532 0 .93.36.93.777 0 .444-.431.777-.93.777h-4.885c-.764 0-1.595.722-2.293 1.999a5.23 5.23 0 0 0-.631 2.47v3.83c0 1.195 1.86 3.526 6.148 3.526.598 0 1.163-.055 1.661-.139 1.828-.333 3.124-1.776 3.124-3.386V1.104c0-.444.432-.777.93-.777.499 0 .93.36.93.777v15.434c0 2.332-1.927 4.414-4.585 4.913a14.74 14.74 0 0 1-2.06.167ZM38.328 21.618h-5.384c-1.23 0-2.392-.555-3.422-1.638a5.848 5.848 0 0 1-1.629-4.08v-5.191c0-3.248 4.52-4.303 4.719-4.359.066-.027.166-.027.233-.027h3.223c.897 0 1.728.138 2.492.388 2.592.889 4.021 2.388 4.021 4.247 0 1.166-.498 2.221-1.429 3.137-1.23 1.138-3.057 1.804-5.017 1.804h-3.822c-.532 0-.93-.36-.93-.777 0-.444.431-.777.93-.777h3.822c1.428 0 2.758-.472 3.622-1.277.631-.61.963-1.305.963-2.082 0-1.527-1.562-2.36-2.858-2.804-.531-.194-1.13-.277-1.794-.277h-3.09c-.565.139-3.224.971-3.224 2.804v5.19c0 1.194.432 2.277 1.23 3.11.465.471 1.163 1.054 1.96 1.054h5.25c.2-.055.5-.194.599-.36.266-.361.864-.473 1.296-.25.432.222.565.721.299 1.082-.565.75-1.661 1.027-1.794 1.055-.1 0-.167.028-.266.028ZM104.457 21.618h-5.383c-1.23 0-2.393-.555-3.423-1.638-1.063-1.11-1.662-2.554-1.662-4.08v-5.191c0-3.248 4.52-4.303 4.72-4.359.066-.027.165-.027.232-.027h3.223c.897 0 1.728.138 2.492.388 2.592.889 4.021 2.388 4.021 4.247 0 1.166-.498 2.221-1.429 3.137-1.229 1.138-3.057 1.804-5.017 1.804h-3.822c-.532 0-.93-.36-.93-.777 0-.444.431-.777.93-.777h3.822c1.428 0 2.758-.472 3.622-1.277.631-.61.963-1.305.963-2.082 0-1.527-1.561-2.36-2.857-2.804-.532-.194-1.13-.277-1.795-.277h-3.09c-.565.139-3.224.971-3.224 2.804v5.19c0 1.194.432 2.277 1.23 3.11.465.471 1.163 1.054 1.96 1.054h5.251c.199-.055.498-.194.598-.36.266-.361.864-.473 1.296-.25.432.222.565.721.299 1.082-.565.75-1.661 1.027-1.794 1.055-.067 0-.167.028-.233.028ZM55.209 21.618h-3.223a7.976 7.976 0 0 1-2.493-.389c-2.592-.888-4.02-2.387-4.02-4.247 0-1.166.498-2.22 1.428-3.137 1.23-1.138 3.057-1.804 5.018-1.804h3.822c.531 0 .93.36.93.777 0 .444-.432.777-.93.777h-3.822c-1.429 0-2.758.472-3.622 1.277-.631.611-.964 1.305-.964 2.082 0 1.527 1.562 2.36 2.858 2.804.532.194 1.13.277 1.795.277h3.09c.565-.138 3.223-.971 3.223-2.803V12.04c0-1.194-.432-2.276-1.23-3.109-.464-.472-1.162-1.055-1.96-1.055h-5.25c-.2.056-.499.194-.598.361-.266.36-.864.472-1.296.25-.432-.222-.565-.722-.3-1.083.566-.75 1.662-1.027 1.795-1.055.066-.027.166-.027.233-.027h5.383c1.23 0 2.393.555 3.423 1.637a5.848 5.848 0 0 1 1.628 4.081v5.19c0 3.249-4.52 4.303-4.719 4.359-.033 0-.133.028-.199.028ZM90.6 21.174h-11c-.332 0-.664-.167-.83-.417-.167-.25-.133-.555.033-.805L88.24 8.21h-9.537c-.532 0-.93-.36-.93-.777 0-.444.432-.777.93-.777h11.265c.333 0 .665.166.831.416.166.25.133.555-.033.805L81.328 19.62h9.239c.531 0 .93.361.93.777.033.444-.399.778-.897.778Z" fill="#47426B"/><path d="m76.71 28.336.498.11c-.1.362-.3.64-.565.834-.266.194-.598.277-.997.277s-.731-.083-.964-.222c-.266-.139-.432-.36-.565-.638a2.06 2.06 0 0 1-.2-.889c0-.36.067-.666.233-.916.133-.25.366-.444.632-.583.266-.138.565-.194.897-.194.366 0 .698.083.93.25.267.166.433.416.532.722l-.498.11c-.1-.25-.2-.416-.366-.527-.166-.11-.365-.166-.631-.166-.3 0-.532.055-.731.194a.819.819 0 0 0-.399.5c-.066.194-.133.416-.133.638 0 .278.033.527.133.75.1.222.233.36.432.472.2.11.399.166.632.166.265 0 .498-.083.697-.222.233-.194.366-.389.432-.666ZM77.64 27.863c0-.555.166-.999.498-1.304.332-.306.764-.472 1.296-.472.332 0 .665.083.93.222.267.139.5.36.632.61.133.278.233.556.233.889 0 .333-.067.639-.233.916a1.551 1.551 0 0 1-.631.61c-.266.14-.565.195-.897.195-.366 0-.665-.083-.931-.222a1.526 1.526 0 0 1-.631-.61 1.487 1.487 0 0 1-.266-.834Zm.531 0c0 .417.133.722.366.944.233.222.532.361.897.361.366 0 .665-.11.897-.36.233-.223.366-.556.366-1 0-.278-.067-.5-.166-.722-.1-.194-.266-.36-.465-.472a1.374 1.374 0 0 0-.665-.166c-.332 0-.631.11-.897.333-.266.222-.333.583-.333 1.082ZM81.827 29.501v-3.359h.498l1.96 2.638v-2.638h.466v3.36h-.498l-1.961-2.638v2.637h-.465ZM85.416 28.419l.465-.028c.033.167.067.305.166.416.067.111.2.195.366.25.166.056.365.111.565.111.199 0 .365-.027.498-.083.133-.056.266-.111.332-.194a.474.474 0 0 0 .1-.278.417.417 0 0 0-.1-.277c-.066-.084-.166-.14-.332-.195-.1-.028-.332-.083-.665-.166-.332-.084-.565-.14-.73-.223a1.353 1.353 0 0 1-.4-.305c-.1-.11-.132-.25-.132-.416 0-.167.066-.333.166-.472.1-.139.266-.25.465-.333.2-.084.432-.111.665-.111.266 0 .531.027.73.11.2.084.366.195.5.362.099.166.165.333.165.527l-.465.028c-.033-.222-.1-.361-.266-.472-.133-.111-.365-.167-.631-.167-.3 0-.499.056-.665.14-.133.11-.2.221-.2.36a.38.38 0 0 0 .134.305c.1.084.332.167.73.25.4.084.666.139.832.222a.905.905 0 0 1 .465.333c.1.14.166.306.166.472 0 .167-.066.333-.166.5-.1.166-.266.277-.499.36-.199.084-.465.14-.73.14-.333 0-.632-.056-.831-.14a1.17 1.17 0 0 1-.532-.388c-.1-.222-.166-.416-.166-.638ZM91.464 26.142h.498v1.944c0 .333-.033.61-.133.805a.983.983 0 0 1-.465.472 1.912 1.912 0 0 1-.864.194c-.332 0-.631-.056-.864-.167a.983.983 0 0 1-.465-.472c-.1-.194-.133-.471-.133-.832v-1.944h.498v1.944c0 .277.034.5.1.638.067.139.166.25.3.305.132.056.331.111.53.111.366 0 .632-.083.765-.222.166-.138.233-.444.233-.86v-1.916ZM92.76 29.501v-3.359h.498v2.943h1.828v.389H92.76v.027ZM96.216 29.501V26.56h-1.23v-.389h2.958v.389h-1.23V29.5h-.498ZM98.21 27.863c0-.555.166-.999.498-1.304.332-.306.764-.472 1.296-.472.332 0 .665.083.931.222.265.139.498.36.631.61.133.278.233.556.233.889 0 .333-.067.639-.233.916a1.556 1.556 0 0 1-.631.61c-.266.14-.565.195-.898.195-.365 0-.664-.083-.93-.222a1.525 1.525 0 0 1-.632-.61c-.199-.25-.265-.528-.265-.834Zm.498 0c0 .417.133.722.366.944.232.222.531.361.897.361.365 0 .664-.11.897-.36.233-.223.366-.556.366-1 0-.278-.067-.5-.167-.722a1.146 1.146 0 0 0-.465-.472 1.372 1.372 0 0 0-.664-.166c-.333 0-.632.11-.898.333-.266.222-.332.583-.332 1.082ZM102.397 29.501v-3.359h1.661c.333 0 .598.028.765.084a.805.805 0 0 1 .398.305.91.91 0 0 1 .166.5c0 .25-.099.444-.265.61-.167.167-.432.278-.798.306.133.055.233.11.299.166.133.111.266.278.399.445l.631.916h-.598l-.498-.694a4.71 4.71 0 0 0-.366-.472c-.1-.111-.166-.195-.232-.222a.333.333 0 0 0-.233-.084c-.067 0-.133-.027-.266-.027h-.565v1.499h-.498v.027Zm.498-1.86h1.064c.232 0 .398-.027.531-.055a.525.525 0 0 0 .299-.194.49.49 0 0 0 .1-.306c0-.166-.066-.277-.199-.388-.133-.111-.333-.14-.599-.14h-1.163v1.084h-.033ZM106.218 29.501v-3.359h.498v3.36h-.498ZM107.149 29.501l1.429-3.359h.531l1.529 3.36h-.565l-.432-1.028h-1.562l-.399 1.027h-.531Zm1.096-1.388h1.263l-.399-.916c-.133-.277-.199-.5-.266-.694a2.341 2.341 0 0 1-.199.639l-.399.971ZM74.05 35.109v-3.36h2.692v.39H74.55v1.026h2.06v.39h-2.06v1.137h2.293v.389h-2.791v.028ZM77.507 35.109v-3.36h.73l.865 2.36c.066.222.133.389.166.5.033-.111.1-.305.2-.528l.897-2.331h.664v3.359h-.465v-2.804l-1.063 2.804h-.432l-1.064-2.86v2.86h-.498ZM83.289 35.109v-3.36h1.396c.232 0 .432 0 .565.029.166.027.332.083.465.166a.787.787 0 0 1 .299.333c.066.139.1.278.1.444 0 .278-.1.528-.3.722-.199.194-.564.305-1.096.305h-.964v1.36h-.465Zm.465-1.75h.964c.332 0 .532-.055.664-.166.133-.11.2-.25.2-.444a.497.497 0 0 0-.133-.36c-.066-.112-.166-.167-.3-.195-.099-.028-.232-.028-.464-.028h-.964v1.194h.033ZM86.745 35.109v-3.36h1.661c.333 0 .599.029.765.084a.81.81 0 0 1 .399.305c.1.14.166.334.166.5 0 .25-.1.444-.266.61-.166.167-.432.278-.798.306.133.056.233.111.3.167.132.11.265.277.398.444l.632.916h-.632l-.498-.694a4.747 4.747 0 0 0-.366-.472c-.1-.111-.166-.194-.232-.222a.332.332 0 0 0-.233-.083c-.066 0-.133-.028-.266-.028h-.565v1.499h-.465v.028Zm.498-1.86h1.064c.233 0 .399-.028.531-.056a.526.526 0 0 0 .3-.194.492.492 0 0 0 .1-.305c0-.167-.067-.278-.2-.39-.133-.11-.332-.138-.598-.138h-1.163v1.083h-.034ZM90.334 33.47c0-.554.166-.998.498-1.304.333-.305.765-.472 1.296-.472.333 0 .665.084.93.222.267.14.5.361.632.611.133.278.233.555.233.888 0 .333-.067.639-.233.916a1.552 1.552 0 0 1-.631.611c-.266.139-.565.194-.897.194-.366 0-.665-.083-.93-.222a1.526 1.526 0 0 1-.632-.61c-.2-.25-.266-.528-.266-.833Zm.498.029c0 .416.133.721.366.943.233.222.532.361.897.361.366 0 .665-.11.897-.36.233-.223.366-.556.366-1 0-.277-.067-.5-.166-.722-.1-.194-.266-.36-.465-.472a1.374 1.374 0 0 0-.665-.166c-.332 0-.631.11-.897.333-.2.222-.333.583-.333 1.083ZM94.255 34.165l.432-.056c0 .25.067.444.166.528.1.083.233.139.4.139a.643.643 0 0 0 .331-.084c.1-.055.167-.11.2-.194.033-.083.033-.222.033-.416v-2.305h.499v2.277c0 .277-.034.5-.1.638-.067.167-.2.278-.366.361a1.27 1.27 0 0 1-.565.111c-.332 0-.565-.083-.764-.25-.2-.166-.266-.416-.266-.75ZM97.113 35.109v-3.36h2.692v.39H97.61v1.026h2.06v.39h-2.06v1.137h2.293v.389h-2.791v.028ZM101.499 35.109v-2.943h-1.229v-.388h2.957v.388h-1.229v2.943h-.499ZM103.493 33.47c0-.554.166-.998.499-1.304.332-.305.764-.472 1.296-.472.332 0 .664.084.93.222.266.14.499.361.632.611.133.278.232.555.232.888 0 .333-.066.639-.232.916a1.559 1.559 0 0 1-.632.611c-.266.139-.565.194-.897.194-.366 0-.665-.083-.93-.222a1.527 1.527 0 0 1-.632-.61c-.199-.25-.266-.528-.266-.833Zm.499.029c0 .416.133.721.365.943.233.222.532.361.898.361.365 0 .664-.11.897-.36.232-.223.365-.556.365-1 0-.277-.066-.5-.166-.722-.1-.194-.266-.36-.465-.472a1.373 1.373 0 0 0-.665-.166c-.332 0-.631.11-.897.333-.266.222-.332.583-.332 1.083ZM107.514 34.026l.465-.028c.034.167.067.306.167.417.066.11.199.194.365.25.166.055.366.11.565.11.2 0 .366-.027.499-.083.132-.055.265-.11.332-.194a.477.477 0 0 0 .1-.278.42.42 0 0 0-.1-.277c-.067-.084-.166-.14-.332-.195-.1-.027-.333-.083-.665-.166s-.565-.139-.731-.222a1.363 1.363 0 0 1-.399-.306c-.1-.11-.133-.25-.133-.416 0-.166.067-.333.166-.472.1-.139.266-.25.466-.333a1.74 1.74 0 0 1 .664-.111c.266 0 .532.028.731.111.2.083.366.194.499.36.099.168.166.334.166.528l-.465.028c-.034-.222-.1-.36-.266-.472-.133-.11-.366-.166-.632-.166a1.41 1.41 0 0 0-.664.138c-.133.111-.2.222-.2.361 0 .111.034.222.133.306.1.083.333.166.731.25.399.083.665.138.831.222a.9.9 0 0 1 .632.805c0 .166-.067.333-.167.5-.099.166-.265.277-.498.36a1.969 1.969 0 0 1-.731.139c-.332 0-.632-.056-.831-.139a1.169 1.169 0 0 1-.532-.389 1.43 1.43 0 0 1-.166-.638Z" fill="#42BBD8"/></svg>