<svg width="94" height="45" fill="none" xmlns="http://www.w3.org/2000/svg"><path d="M46.143 36.725v-5.968h3.352c.527 0 .914.055 1.164.166.277.14.498.361.637.694.11.222.166.445.166.694 0 .306-.083.611-.25.86-.165.278-.36.445-.609.556.582.278.86.722.86 1.416 0 .388-.084.721-.278.971-.166.222-.36.389-.61.472-.249.084-.637.139-1.108.139h-3.324Zm1.274-3.525h1.718c.166 0 .305 0 .388-.028a.983.983 0 0 0 .25-.111c.193-.139.276-.333.276-.583 0-.25-.083-.416-.25-.528-.138-.083-.332-.11-.609-.11h-1.745l-.028 1.36Zm0 2.442h1.718c.166 0 .305 0 .388-.027a.983.983 0 0 0 .25-.111c.193-.14.276-.334.276-.583 0-.25-.083-.417-.25-.528-.138-.083-.332-.11-.609-.11h-1.745l-.028 1.36Zm4.932-3.275h1.773c.36 0 .637.028.831.083.194.056.36.139.499.25.139.111.222.277.277.444.056.167.083.444.083.777v.417h-1.136v-.222c0-.306-.055-.528-.166-.639-.11-.11-.305-.166-.61-.166h-.332v3.414h-1.191l-.028-4.358Zm7.065 1.693c0-.305-.055-.5-.194-.61-.11-.112-.36-.167-.72-.167h-2.023v-.916H58.5c.36 0 .61 0 .748.028.138 0 .277.055.415.083.665.25.97.86.942 1.804v2.443h-2.52c-.444 0-.777 0-.943-.028a1.056 1.056 0 0 1-.443-.166c-.36-.25-.527-.611-.527-1.083 0-.305.084-.555.222-.777.139-.222.333-.389.554-.472.194-.083.554-.111 1.025-.111l1.441-.028Zm0 .944h-1.579c-.139 0-.25.028-.333.111-.083.083-.11.166-.11.305 0 .14.055.25.138.306.11.055.277.083.499.083h1.385v-.805Zm6.096-2.637v.944h-2.106c-.25 0-.388 0-.471.027-.139.056-.194.167-.194.361 0 .167.055.278.194.361.083.056.277.083.582.083h.72c.443 0 .803.084 1.08.306.278.222.444.527.444.944 0 .305-.083.61-.25.86a1.313 1.313 0 0 1-.47.416 3.445 3.445 0 0 1-.942.112H61.63v-.944H64.318c.222-.028.305-.14.305-.361 0-.167-.083-.306-.222-.361-.083-.028-.25-.056-.526-.056h-.72c-.278 0-.5-.027-.666-.055a1.14 1.14 0 0 1-.415-.194c-.166-.111-.277-.278-.388-.472a1.65 1.65 0 0 1-.139-.639c0-.444.167-.777.472-1.027.193-.139.526-.222.997-.222l2.494-.083Zm1.135 0h1.192v4.358h-1.192v-4.358Zm0-.444v-1.166h1.192v1.166h-1.192Zm3.547 4.802H69v-5.968h1.19v5.968Z" fill="#057751"/><path fill-rule="evenodd" clip-rule="evenodd" d="M86.317 30.007c-.083.14-.194.333-.194.444.305.528 0 1.028-.36 1.389a13.3 13.3 0 0 1-.637.582c-.388.334-.998.833-1.524.833-.914 0-2.133.305-3.02.61-.443.14-2.91 1.111-2.66 1.805l.083.25-.055.25c-.028.139 0 .36 0 .5.083.638.25 1.304-.139 1.915-.221.36-.776.583-1.136.86-.304.334-.637.972-.83 1.388-.278.5-.998 1.277-1.58 1.61-.222.25-.471.639-.638.889-.221.277-.415.583-.664.86-.36.416-.86.777-1.441.528-.25-.111-.36-.222-.471-.417-.388-.61-.277-.971-.028-1.443l-.055-.056c-.444-.36-1.053-.5-1.552-.944-.305.056-.61-.055-.859-.305-.138-.139-.388-.527-.499-.61a.946.946 0 0 1-.997-.112c-.776-.555-.332-1.693.277-2.165.11-.083.333-.25.443-.389h1.192c-.111.112-.222.25-.333.361-.083.222-.582.611-.748.75-.36.277-.554 1.082 0 .527.111-.11.444.14.61.222.332.195.47.555.665.75.194.194.25-.278.443-.083l.36.333c.333.333 1.053.555 1.524.916 1.164.944-.166 1.027.277 1.72.25.39 1.496-1.748 1.912-2.109.305-.111 1.08-.833 1.33-1.304.305-.556.637-1.222 1.025-1.61.139-.14.942-.611.97-.667.277-.444-.166-1.416 0-2.11-.693-2.054 4.488-3.608 6.538-3.608.278 0 1.801-1.305 1.746-1.444-.332-.527.083-1.304.443-1.665 1.192-.389.776-2.887 1.441-3.692.693-.86-.25-3.137.748-4.136 1.053-1.055 5.209-5.08 3.99-7.079-.665-1.97-2.965-1.582-4.378-3.33-1.191-1.444-4.211-.722-5.652-1.056-.277-.055-.61-.999-1.191-1.276-1.053-.528-3.353-1.083-4.516-1.36-.416-.084-1.995-4.997-2.328-4.442-1.053 1.693-.36 1.804-2.272 1.804.139-.194-1.302 0-1.8 0-1.053 0-.25 1.305-1.497.528-.582-.361-.942.25-1.496.305-3.27.389-.859-4.414-2.494-3.914-.775.222-2.188 2.138-3.685 1.277-1.468-.833-.083.278-.083.916 0 1.471.776.472-.665 1.666-.304.25-.665.555-.97.749-1.523.972-1.634-1.527-2.271-1.443-.416.055-3.88 1.054-1.968 1.054 1.026 0-1.108 1.027-1.136 1.055-.443.694 1.22 1.055.915 1.888-.194.527-.499 2.054-.305 2.72-.222.083-.25.666-.526.389-.305-.306-.444-.278-.748-.083-.5.305-1.192.444-1.746.61-.11.028-.305.444-.526.944h-.998c.333-.805.72-1.665 1.275-1.804.443-.14 1.136-.25 1.496-.5.277-.166.526-.277.803-.277.028-.722.167-1.527.36-2.11l-.11-.111c-.638-.555-1.22-1.25-.638-2.138.084-.138.277-.277.471-.388 0-.056-.027-.084-.027-.14-.166-1.026 1.136-1.387 1.884-1.61.415-.138 1.025-.332 1.44-.388a.79.79 0 0 1 .36 0c.721.14.97.833 1.275 1.388a.974.974 0 0 0 .139.222.21.21 0 0 1 .11-.055c.305-.195.61-.472.887-.694.139-.111.25-.194.388-.306-.028-.194-.055-.36-.055-.582-.028-.056-.056-.112-.083-.14-.305-.499-.832-1.026-.333-1.693.526-.694 1.302-.277 1.856.056.832.472 2.134-1.11 2.965-1.36.416-.139.859-.111 1.22.166.803.583.581 1.805.581 2.665 0 .25.028.777.194.972.11.139.499.11.665.11.222-.055.554-.332.942-.388.332-.055.665-.028.97.111.249-.36.61-.555 1.219-.555.25 0 .498-.028.748-.055.415-.028.942-.084 1.357.055.167 0 .36 0 .471-.028.056-.11.111-.222.139-.305.166-.361.36-.694.554-1.055.139-.194.25-.36.61-.444.498-.111.886.167 1.163.527.139.195.25.417.36.639.25.527.472 1.082.72 1.61.167.388.5 1.304.777 1.776 1.385.333 3.241.778 4.405 1.36.305.167.554.39.776.667.138.166.277.416.415.583.665.11 1.663.027 2.3.027 1.302.028 2.77.223 3.657 1.305 1.247 1.555 3.63 1.138 4.489 3.526 1.385 2.581-2.522 6.467-4.184 8.133-.582.583.277 2.887-.693 4.08-.138.167-.249 1.083-.277 1.333-.138.888-.388 2.026-1.302 2.47Z" fill="#057751"/><path fill-rule="evenodd" clip-rule="evenodd" d="M32.705 9.771c-.887-1.832-1.108-4.191 2.715-5.69 5.043-1.916 5.43 1.804 11.47-.056-3.906 3.192-3.269 5.635-8.09 7.717-2.382 1.055-4.848.305-6.095-1.97Zm4.682-1.138c1.275.416 2.05.638 3.076 1.027-1.303-.25-2.494-.444-4.018-.75-.332.056-.692.223-1.108.25 1.22.472 2.106.805 2.91 1.277A50.006 50.006 0 0 1 34.45 9.41c-2.133.306-3.99.5-5.818.75l-.055-.61c1.884-.195 3.795-.334 5.54-.667.943-1.138 1.636-2.526 2.162-3.859-.25 1.166-.748 2.36-1.413 3.637.36-.028.748-.167 1.247-.25.942-1.166 1.69-2.415 2.327-3.914-.526 1.25-.803 2.387-1.607 3.803l1.635-.5c.831-.944 1.302-1.97 1.856-3.025-.277.971-.582 1.943-1.191 2.83a30.262 30.262 0 0 0 4.932-1.914 32.23 32.23 0 0 1-4.738 2.276c1.108.194 1.912.333 2.715.555-1.053-.111-1.967-.167-3.242-.333a9.22 9.22 0 0 1-1.413.444ZM.593 28.786v-12.13c0-4.387 2.77-7.773 7.287-7.773 4.322 0 7.287 3.303 7.287 7.134 0 4.164-3.852 6.8-7.62 6.8h-.166V17.35h.166c.887 0 1.58-.638 1.58-1.499 0-.583-.277-1.47-1.22-1.47-1.246-.029-1.163 1.61-1.163 2.303v12.13l-6.151-.027Zm14.878 0v-7.967c0-3.137 1.968-6.134 5.403-6.134 3.796 0 5.514 2.997 5.514 6.134v7.967h-4.295v-4.47h-1.828V20.68h1.828v-.416c0-1.804-2.327-1.832-2.327.083v8.467l-4.295-.028Zm21.057-9.605h-.997c-1.8 0-3.823.472-3.823 2.832 0 2.193 1.994 2.665 3.823 2.665h1.08v4.136h-.609c-4.572 0-8.59-1.25-8.59-6.801 0-5.33 4.24-6.995 8.59-6.995h.499l.027 4.163Zm2.162 9.605V15.018h4.294v13.768H38.69Zm6.289 0v-8.772c0-3.137 1.718-4.996 4.96-4.996h2.992v3.83h-2.328c-.858 0-1.302.694-1.302 1.472v.166h3.63v3.636H49.3v4.636l-4.322.028Zm10.251 0V15.018h4.295v13.768H55.23Zm6.29-13.768h4.294v8.633c0 .777.554 1.304 1.33 1.304h2.161v3.83H66.48c-3.186 0-4.987-1.61-4.987-4.83l.028-8.937Zm-35.188-5.08c1.413-1.083 2.605-2.887.582-5.469-2.77-3.47-4.6-.722-8.09-4.469 1.385 3.997-.083 5.69 2.383 9.216 1.246 1.693 3.325 2.054 5.125.722ZM23.562 7.3c-1.08-.195-1.718-.306-2.55-.389 1.026.305 1.912.638 3.104.944.194.222.388.416.637.638-1.053-.055-1.8-.139-2.521-.083.942.194 1.884.416 3.13.638 1.33 1 2.522 1.944 3.741 2.804l.332-.416c-1.274-.86-2.493-1.721-3.629-2.637-.194-1.277-.055-2.638.11-3.887a14.158 14.158 0 0 0-.581 3.442c-.25-.194-.443-.444-.776-.694-.138-1.332-.083-2.553.028-3.97-.222 1.14-.471 2.166-.526 3.526l-.915-.971c-.194-1.11-.083-2.054 0-3.081-.194.86-.416 1.72-.388 2.664-.942-1.054-1.828-2.165-2.576-3.358.637 1.276 1.413 2.442 2.3 3.553-.86-.25-1.47-.444-2.134-.611.803.305 1.44.638 2.438.972.222.305.471.582.776.916Z" fill="#057751"/><path d="M46.143 36.725v-5.968h3.352c.527 0 .914.055 1.164.166.277.14.498.361.637.694.11.222.166.445.166.694 0 .306-.083.611-.25.86-.165.278-.36.445-.609.556.582.278.86.722.86 1.416 0 .388-.084.721-.278.971-.166.222-.36.389-.61.472-.249.084-.637.139-1.108.139h-3.324Zm1.274-3.525h1.718c.166 0 .305 0 .388-.028a.983.983 0 0 0 .25-.111c.193-.139.276-.333.276-.583 0-.25-.083-.416-.25-.528-.138-.083-.332-.11-.609-.11h-1.745l-.028 1.36Zm0 2.442h1.718c.166 0 .305 0 .388-.027a.983.983 0 0 0 .25-.111c.193-.14.276-.334.276-.583 0-.25-.083-.417-.25-.528-.138-.083-.332-.11-.609-.11h-1.745l-.028 1.36Zm4.932-3.275h1.773c.36 0 .637.028.831.083.194.056.36.139.499.25.139.111.222.277.277.444.056.167.083.444.083.777v.417h-1.136v-.222c0-.306-.055-.528-.166-.639-.11-.11-.305-.166-.61-.166h-.332v3.414h-1.191l-.028-4.358Zm7.065 1.693c0-.305-.055-.5-.194-.61-.11-.112-.36-.167-.72-.167h-2.023v-.916H58.5c.36 0 .61 0 .748.028.138 0 .277.055.415.083.665.25.97.86.942 1.804v2.443h-2.52c-.444 0-.777 0-.943-.028a1.056 1.056 0 0 1-.443-.166c-.36-.25-.527-.611-.527-1.083 0-.305.084-.555.222-.777.139-.222.333-.389.554-.472.194-.083.554-.111 1.025-.111l1.441-.028Zm0 .944h-1.579c-.139 0-.25.028-.333.111-.083.083-.11.166-.11.305 0 .14.055.25.138.306.11.055.277.083.499.083h1.385v-.805Zm6.096-2.637v.944h-2.106c-.25 0-.388 0-.471.027-.139.056-.194.167-.194.361 0 .167.055.278.194.361.083.056.277.083.582.083h.72c.443 0 .803.084 1.08.306.278.222.444.527.444.944 0 .305-.083.61-.25.86a1.313 1.313 0 0 1-.47.416 3.445 3.445 0 0 1-.942.112H61.63v-.944H64.318c.222-.028.305-.14.305-.361 0-.167-.083-.306-.222-.361-.083-.028-.25-.056-.526-.056h-.72c-.278 0-.5-.027-.666-.055a1.14 1.14 0 0 1-.415-.194c-.166-.111-.277-.278-.388-.472a1.65 1.65 0 0 1-.139-.639c0-.444.167-.777.472-1.027.193-.139.526-.222.997-.222l2.494-.083Zm1.135 0h1.192v4.358h-1.192v-4.358Zm0-.444v-1.166h1.192v1.166h-1.192Zm3.547 4.802H69v-5.968h1.19v5.968Z" fill="#057751"/></svg>