<svg width="149" height="42" fill="none" xmlns="http://www.w3.org/2000/svg"><path d="m7.097 31.92.2.166v-.027a.503.503 0 0 1 .165-.278c-.033.028-.1.028-.133.056l-.166.027-.066.056Zm-2.193-5.025.199-.083v-.055c0-.167.066-.361.233-.5h-.067c-.166.028-.399.028-.532-.056l.167.694Zm-.532 2.915.598.139c-.066-.111-.133-.25-.2-.361l-.033-.305c-.1.027-.199.027-.266.027h-.1l-.066-.055c0 .028-.033.028-.033.055l-.066.084h-.133c-.033 0-.1 0-.133-.028.2.139.365.305.432.444ZM6.698 3.717c-.233.083-.465.166-.665.25l-.797-1.305c.399-.139.83-.305 1.23-.416l.332.582c.266-.083.498-.166.764-.222l-.3-.583c.433-.11.865-.222 1.33-.333l.266.583.83-.166-.265-.611c.465-.083.897-.167 1.362-.25l.499 1.388c-.266.056-.499.083-.764.139.132.36.299.694.431 1.055 1.164-.195 2.327-.306 3.523-.417-.1-.36-.166-.721-.266-1.11l-.764.083L13.045.97c.465-.056.93-.084 1.396-.14.033.223.1.417.133.64l.864-.056-.133-.639L16.7.691l.1.638.864-.027-.066-.639c.465-.027.93-.028 1.395-.028l.1 1.472-.764.027.1 1.139c1.428-.028 2.758-.028 4.187 0l.1-1.139-.765-.027.1-1.472c.465 0 .93.028 1.395.028l-.066.639.864.027c.033-.222.066-.444.1-.638l1.395.083-.133.639.864.055c.034-.222.1-.416.133-.638h.1c.432.028.864.083 1.296.139L27.6 2.384l-.764-.083-.266 1.11c1.196.111 2.326.222 3.522.417.133-.361.266-.694.433-1.055-.266-.056-.499-.083-.765-.139l.499-1.388c.465.083.897.167 1.362.25l-.266.61c.266.056.532.112.831.167l.266-.583c.432.111.864.222 1.33.333l-.3.583c.266.084.498.14.764.222l.333-.582c.398.138.83.277 1.23.416-.267.444-.532.86-.798 1.305-.233-.084-.432-.167-.665-.25-.532.916-1.063 1.804-1.595 2.72.432.194.731.444.731.722 0 .25-.2.416-.432.555.1.278-.166.5-.399.666.1.278-.166.5-.399.666.133.39-.332.667-.664.805h3.09v14.574c0 3.47-1.495 6.607-4.054 8.855-2.492 2.165-5.948 3.498-10.069 3.498-4.087 0-7.576-1.333-10.069-3.498-2.558-2.248-4.054-5.385-4.054-8.827V9.879h3.09c-.332-.139-.797-.444-.664-.805-.266-.166-.498-.388-.399-.666-.232-.167-.498-.389-.399-.666-.199-.139-.432-.306-.432-.555 0-.278.3-.528.732-.722-.599-.944-1.13-1.86-1.662-2.748Zm.2 35.753c-1.463-1.027-2.759-2.193-3.822-3.498C1.88 34.557 1.049 33.113.35 31.476l2.459 1.249.698-2.332c.631 1.471 1.362 2.72 2.426 3.997.598.694 1.262 1.36 1.96 1.971l1.496-1.194a.765.765 0 0 1 .166-.083l-.366-.583h-.332v.084l-.133.055c-.2.083-.332.083-.532.111h-.066l-.067-.028c-.132-.083-.365-.194-.398-.333l-.067-.25.3.028c.265.028.531.028.797.084l.166.027v.056h.133l-.598-.333-.233-.25h-.232c0 .139-.133.194-.333.194H7.53l-.033-.028a9.942 9.942 0 0 1-.599-.305l-.066-.028v-.055c-.033-.167.033-.25.166-.25v-.028c-.233-.055-.266-.194-.299-.416l-.033-.25.266.083v-.083l.033-.028c.1-.083.2-.11.299-.139l-.067-.138-.265-.222c-.133.166-.466.055-.632 0h-.033l-.033-.028c-.2-.167-.465-.555-.499-.805l-.033-.194.2-.028h.166l-.034-.028v-.111l-.897-.722-.498-.11c-.067.249-.2.332-.798.249l-.365-.083.265-.222c.034-.028.1-.056.133-.084-.166-.139-.398-.222-.465-.444l-.033-.222.266.028a.71.71 0 0 1 .232.055c-.066-.055-.1-.166-.133-.277l-.033-.084h-.066c-.166 0-.2 0-.366-.055l-.166-.028v-.139c.033-.388-.1-.832.532-.916l.2-.027V27.7l.032-.166.2.028h.1v-.028l.232.028c.067 0 .1 0 .166.027h.033l.067-.555-.764-.305c-.067.055-.133.055-.2.055l-.033-.027c-.332-.167-.366-.306-.432-.583l-.067-.25.3.055c.033 0 .066.028.1.028v-.055l.265.055c.233.056.366.305.366.472v.083l-.034.028.532.222-.232-.888c-.167.11-.432 0-.565-.111-.3-.222-.133-.444-.266-.61l-.033-.029v-.055c0-.195.1-.222.199-.361l.066-.056h.1c.133 0 .233 0 .3.056-.034-.083 0-.194.066-.278l.033-.055h.166c.033-.111.033-.25.066-.361-.033 0-.066 0-.1-.028l-.032-.027-.034-.028c-.266-.306-.2-.444-.2-.805v-.389l.333.278.067.055c-.034-.222.066-.444.266-.61l.265-.223.067.306c.066.25 0 .694-.332.777-.034.167-.067.333-.1.472v.139c-.033.138-.067.305-.1.444l.033.028a.351.351 0 0 1 .167-.028h.1l.032.055.2.056c.166.055.266.222.299.36v.084l-.067.055-.033.028v.306c.1 0 .133.027.233.083l.066.055-.033.084c-.033.11-.332.416-.399.527l-.033.028a.757.757 0 0 1 .266-.139l.332-.083-.066.277c-.067.25-.166.583-.532.639h-.066l-.333.139-.066.5.166.055c.465.139.465.527.233.777h.1l-.134.167h.034v.222c0 .194-.167.333-.333.416l.034.305.265.472.333.278.2-.278-.167-.222c-.033 0-.1-.027-.1-.083a.702.702 0 0 1-.133-.666l.067-.195.2.084c.331.139.265.416.265.666.066-.111.233-.194.432-.194h.366l-.167.25c-.133.166-.166.416-.465.444l-.133.027-.166.389.366.305c.066-.083.132-.11.299-.11l.1-.084.066-.056h.1c.033 0 .066 0 .132.028v-.083h.2c.133 0 .2.028.299.083l.1.056v.083c0 .056 0 .139-.034.222v.056c.333.055.466.583.233.832l.2-.083.265-.028-.033.223c-.033.222-.233.388-.465.444l-.133.027v.028c.133-.055.232-.028.399 0l.166.028v-.028l.232.028c.432.055.898.971.333 1.138l-.166.055s0 .028-.034.028l-.066.056h-.067l.233.277c.133.084.233.14.332.195-.133-.278-.1-.556.2-.778l.266-.166.066.278c.066.333.233.582-.133.86l.465.75c.067 0 .166-.028.233 0 .2.027.399.083.598.25 2.791 2.053 6.28 3.053 9.97 3.053 3.688 0 7.177-1.027 9.969-3.054.199-.139.398-.222.598-.25.166 0 .299 0 .399.056l.564-.555.466-.333.066-.528-.166-.166c-.166.027-.3-.167-.332-.306-.034-.166.066-.305.199-.416l.266-.166.066.277c.033.139.033.36-.066.5l.1.11c0-.277.1-.554.465-.638l.266-.083-.034.25c-.033.222-.166.61-.465.666l-.166.028-.033.36.498-.36.93-.972c-.099.028-.199.056-.431.084h-.1l-.066-.056c-.2-.166-.366-.333-.565-.472l-.067-.028-.033-.055c-.166-.305.2-.75.631-.722h.1c.133-.083.399-.083.565-.055.066-.14.266-.25.432-.25h.066l.034.027.265-.416-.332-.694h-.099l-.067-.028c-.332-.222-.332-.194-.432-.555l-.067-.25.3.056c.1.028.232.111.365.222l.033-.222c-.033 0-.066 0-.1-.028-.332-.194-.265-.389-.298-.666v-.222l.266.028c.398.055.465.471.431.75v.082l-.1.5a.744.744 0 0 1 .067.222l-.033.111.266.528.432-.667v-.027c-.3-.25-.399-.223-.432-.667v-.194h.133a5.724 5.724 0 0 0-.233-.277l-.033-.056v-.056c.033-.388.365-.36.399-.471l.066-.084h.233c.266 0 .365.056.398.278h.167c.066-.056.133-.111.232-.139l.3-.833-.665-.527h-.1l-.033-.028c-.366-.139-.333-.388-.366-.638l-.033-.222.266.055c.233.028.532.528.498.722v.055l.432.361-.1-.472-.464-.916v-.027l-.067-.028c-.498-.333-.631-.583-.266-1.055l.033-.056c-.033 0-.033-.027-.033-.027l-.033-.028v-.056c0-.11-.066-.222 0-.333.033-.083.133-.11.233-.139v-.166h-.133c-.266-.111-.466-.222-.599-.444l-.166-.278.366.028c-.2-.25-.3-.472-.266-.777l.033-.417.3.333c.265.278.398.417.365.778v.055l.1.194a.977.977 0 0 1 .199.25l.033.028v.056c0 .027 0 .055-.033.083l.033.277.033.028c.034.028.067.028.067.056.066-.028.1-.028.166-.056v-.055l.066-.028c.366-.167.698.139.632.444.133 0 .2.028.299.139l.066.055v.028l.166-.028-.066.25c-.033.083-.033.167-.066.222l-.034.084-.066.027c-.066.028-.166.084-.233.111-.066.223-.332.528-.631.528-.1 0-.166 0-.266-.028l.432.86.133.5.166-.277-.033-.084c-.066-.305.465-.721.797-.75l.233-.027-.033.222c-.033.333-.399.666-.798.722l-.1.166c.167-.055.366-.083.566-.083l.332.028-.166.222c-.166.222-.532.305-.831.278h-.133v.027c-.1.25-.166.445-.233.667h.034l.232-.028V28.7h.166l.034.055c.199 0 .199.028.299.167l.066.11-.1.084c-.033.028.1.361-.232.472-.033.028-.1.028-.166.028 0 .027 0 .027-.033.055.1 0 .199.056.232.195l.033.11-.1.056c-.365.25-.431.361-.93.361h-.066c-.166-.056-.266-.056-.3-.222h-.033c-.166.277-.365.583-.565.916l.266.028-.033-.139v-.139l.066-.055c.167-.167.233-.278.532-.278h.233l-.166.028a.53.53 0 0 1-.133.222c.166-.056.332-.083.498 0l.233.139-.2.139c-.199.11-.332.166-.565.166a.72.72 0 0 0 .2.111l.465.278-.565.027c-.332.028-.664-.083-.698-.388l-.033-.111-.332-.028-.166.25c.033.028.033.055.033.11.066.029.2.056.266.084l.1.056v.083c0 .36-.167.777-.632.888l-.166.028-.399.416.067.056.1-.028v-.055c.066-.306.465-.389.764-.361l.299.028-.133.221c-.133.195-.465.306-.698.306h-.166l.033.055c.166.167.3.889-.1.889-.432-.195-.399-.5-.266-.833l.034-.111-.067-.056-.631.667-1.163.805-.532.527 1.462 1.194a14.618 14.618 0 0 0 1.96-1.971c1.064-1.277 1.795-2.554 2.427-3.998l.697 2.332 2.46-1.249a18.058 18.058 0 0 1-2.725 4.497c-1.097 1.305-2.393 2.47-3.822 3.498-.266.166-.498.25-.698.277-.232.028-.432-.028-.565-.139l-1.561-1.276c-3.157 1.887-6.913 2.83-10.767 2.83-3.888 0-7.61-.943-10.767-2.83L8.16 39.553c-.133.111-.332.167-.565.14-.232.027-.465-.056-.698-.223Z" fill="#000"/><path fill-rule="evenodd" clip-rule="evenodd" d="M16.734 34.224c1.13.333 2.36.5 3.622.527L31.72 24.98h-.2l-14.787 9.244Zm-3.024-1.305c.864.5 1.794.916 2.791 1.222l14.688-9.189h-.166L13.71 32.92Zm3.821-1.943 13.06-6.024h-.133L17.83 29.2c0 .028 0 .084-.066.084l-.565.11-.266.084c-.033.25.266.444.465.305.1.14.2.278.233.472-.266.056-.266.417-.033.528a.453.453 0 0 1-.067.194Zm-.631.277.332-.138c-.166-.028-.299.027-.332.139Zm-5.317.028c.565.556 1.23 1.083 1.96 1.527l3.024-1.388c-.066 0-.132-.028-.199-.055.067-.25-.232-.472-.465-.306-.1-.139-.2-.277-.233-.472.266-.055.266-.416.034-.527.033-.056.033-.111.066-.167l-.598.195c.033 0 .033.027.066.027-.033.167-.133.278-.266.389-.199-.194-.498-.056-.465.194-.166.028-.332 0-.498-.055 0-.083 0-.139-.034-.195l-2.392.833Zm5.981-2.165 12.362-4.136h-.066l-6.347 1.499a.594.594 0 0 1-.399.25c-.166 0-.3-.028-.465-.028h-.067l-2.492.583a1.75 1.75 0 0 1-.3.639c-.232.333-.564.555-.93.555-.066 0-.1 0-.166-.028l-.631-.111a1.338 1.338 0 0 1-.764-.416l-2.06.5-.067.11 2.392.583Zm-2.525.833.897-.306.1-.027-.1-.389-1.396-.333c-.066.25.233.444.432.305.1.14.2.278.233.444-.166.028-.2.167-.166.306Zm-4.819-.333a9.89 9.89 0 0 0 1.23 1.526l2.36-.805a.31.31 0 0 0-.267.028c-.1-.138-.199-.277-.232-.444.232-.055.266-.389.033-.5.033-.166.133-.277.266-.388.033.028.066.055.1.055l-.067-.277-.797.194c0 .028 0 .028.033.056-.233.055-.233.388-.033.471a.73.73 0 0 1-.233.361c-.166-.166-.465-.055-.432.195a.859.859 0 0 1-.465-.056c.066-.222-.233-.416-.399-.277a.806.806 0 0 1-.2-.361l-.897.222Zm13.392-3.36 5.517-1.304-5.384.86c-.033.14-.066.306-.133.445Zm-3.489.834 2.193-.528c-.1-.083-.199-.194-.265-.305l-1.895.389c.034.138 0 .305-.033.444Zm-4.785 1.138 1.828-.444c0-.028-.034-.028-.034-.056-.166-.222-.265-.5-.332-.833l-.73.111-.732 1.222Zm-2.592.61.83-.194-1.528-.36v.027c.067 0 .1.028.166.056-.066.222.233.416.399.277.067.056.1.111.133.195Zm-2.758.445.1.166 1.13-.277c.033-.111 0-.278-.134-.334a.732.732 0 0 1 .233-.36l.066.055-.1-.472-.697-.166-.565.083a.267.267 0 0 0 .366.083.9.9 0 0 1 .199.389c-.2.055-.233.36 0 .444-.033.139-.133.25-.233.36a.416.416 0 0 0-.365.029Zm13.724-3.637L28 24.952l-4.32.444c.033.084.033.167.033.25Zm-7.277 1.166.1-.028H16.5l-.066.028ZM9.988 27.84l.166-.028-.3-.055v.055c.034 0 .1 0 .134.028Zm-.997-.971c.033.138.066.277.1.388l.265-.055h.034l1.86.416.2-.028 1.828-.471c-.1-.195-.2-.417-.2-.667l-4.087.417Zm7.444-1.36h-.2v.027c.033.056.033.111.067.195l.232.027-.1-.25Zm7.177-.278 2.792-.278h-.033l-2.825.167c.033.028.066.083.066.11Zm-14.787.722c.033.25.066.5.133.777l4.087-.417v-.027c0-.195.033-.389.1-.583l-4.32.25Zm6.081 1.887h-.233l-.531-.083a.962.962 0 0 1-.466-.194l-1.329.333 2.193.5.366-.556Zm1.33-2.47h.132l-.1-.306h-.033v.306Zm-7.445-.167c0 .194.034.389.034.583l4.386-.25c.033-.11.1-.194.166-.277.034-.056.067-.111.133-.14l-4.719.084Z" fill="#7E4500"/><path fill-rule="evenodd" clip-rule="evenodd" d="M36.739 25.313c-.034-.055-.034-.055 0-.11.166-.029.398-.14.565-.223.066-.056.1-.139.199-.139-.033.083-.033.167-.067.222-.166.111-.531.25-.697.25Zm-3.058 7.329c-.232-.195-.365-.361-.598-.5-.1-.222.166-.528.432-.5-.1.417-.232.5.266.777.1 0 .2 0 .332.084-.1.139-.299.139-.432.139Zm.233-.306c-.399-.194-.366-.25-.332-.583.365.028.963.028.997.472-.266.111-.4.111-.665.111Zm.698-.305c-.266-.278-.499-.333-.864-.389.033-.055.399-.028.465 0 .133.028.233.111.498.25.034.056-.033.111-.1.139Zm0 .388c0-.166.299-.305.232-.582-.166-.084-.332-.195-.465-.278-.033-.083.133-.194.266-.194.066.055.133.083.133.222.1.083.2.055.332.11 0 .278-.133.64-.498.722Zm.963-2.914c.034-.333-.166-.555-.365-.777.033-.306.299-.223.399-.39.133 0 .166-.027.2.14-.134.083-.566.222-.4.444.166-.028.233-.25.698-.306.133.111 0 .778-.2.916-.099 0-.265.028-.331-.027Zm.599-.084c.066-.388-.067-.943.498-.999v.083c-.266.167-.232.833-.498.916Zm-.4.445c-.331-.278-.398-.195-.431-.583.232 0 .033.305.266.36.066.028.2.028.432.028.266-.11.432-.416.73-.222-.032.167-.265.305-.431.417-.2-.028-.399 0-.565 0Zm.4.222c-.1-.028-.166-.028-.166-.111.166 0 .299 0 .498-.056.066-.11.432-.305.498-.139-.398.25-.432.306-.83.306Zm.365-.833v-.083c.499 0 .332-.084.532-.389.133 0 .066 0 .133.083-.166.14.033.361-.166.417-.067.055-.266.055-.499-.028Zm.3-.444c-.1-.028-.067-.056-.067-.084.033-.027.066-.027.166-.027.033.11-.067.11-.1.11Zm-.2.25c-.1-.056-.1-.111-.1-.14.1-.055.133-.082.3 0 0 .056-.034.084-.067.14h-.133Zm.033-4.303c-.033-.028-.033-.028-.033-.083.1-.084.1-.14.232-.195 0-.055-.033-.138-.132-.138-.034-.14-.1-.084-.067-.195.266-.11.499.25.2.472a.205.205 0 0 1-.2.139Zm-.465.86c-.465-.305-.499-.471-.233-.804.665 0 .665.471.333.805h-.1Zm.1-.86c-.067-.028-.366-.222-.366-.25-.033-.194-.1-.277.166-.305.033.027.067.027.1.055 0 .278-.033.222.233.472.033.056-.034.056-.133.028Zm.332.944c-.166 0-.166 0-.233-.028 0-.139.499-.389.665-.36-.033.138-.2.388-.432.388Zm.565-.778c-.067-.11-.067-.11-.133-.305.1 0 .166-.028.266.083 0 .084-.034.14-.1.25 0-.028-.033-.028-.033-.028Zm-.465.223c0-.14.066-.472.232-.472.067.194.1.416-.232.472Zm-.233-.472c-.166-.195-.332-.389.033-.417.166.056-.1.111-.1.14.067.027.167.027.3.027v.028c-.034 0-.2.222-.233.222Zm-28.38 8.744c-.265-.25-.331-.5-.199-.777.4 0 .499.527.266.777h-.066Zm-.331-.14c-.133-.193-.333-.638-.333-.776.1-.084.2-.028.333 0 0 .055 0 .055-.067.222 0 .139.067.36.067.555Zm-.765-.249c-.133 0-.166-.028-.2-.25h.034c.166.361.166-.028.2-.139.1-.083.232-.138.265 0-.133.084-.166.028-.166.223.133 0 .1-.084.2-.056.066.056.066.111.066.222-.033.056-.332.028-.399 0Zm.665.555c-.332-.083-.465-.194-.565-.416.332 0 .532.222.897.333.033.028.033.028.033.083h-.365Zm-.133.195c-.233-.111-.233-.111-.598-.306-.033-.11.066-.083.166-.055.166.055.399.222.565.277 0 .084 0 .084-.133.084Zm-1.196-1.916c-.2-.166-.4-.527-.432-.694h.1s.132.306.332.5c.1.11.332.194.398.25-.066.055-.332-.028-.398-.056Zm.432-.11c-.366-.084-.632-.417-.466-.667.366.028 1.13.222.665.666h-.2Zm.465-.084c.1-.305.066-.389 0-.639.2 0 .332.583 0 .639Zm-.432-.61c-.565-.14-.565-.14-.598-.167.033-.14.033-.167.2-.167.099.111.298.167.498.305-.034.056-.034.028-.1.028Zm-.266-.334c-.033-.083 0-.055.066-.11.067 0 .133.027.2.027.033.055.033.083.033.194a.461.461 0 0 1-.299-.11Zm.498.25c-.033-.028-.1-.389-.1-.416.067 0 .1 0 .2.055 0 .056-.033.417-.1.36Zm-2.625-1.832c-.033-.028-.033-.028 0-.083.166-.056.432-.195.632-.25 0 .25-.4.333-.632.333Zm-.498-.111c.232-.167.399-.195.698-.195.1-.11.232-.305.398-.277-.066.083-.1.166-.166.25-.365.194-.531.083-.797.472-.1-.028-.1-.167-.133-.25Zm-.1-.25c-.498-.805.532-.916.631-.111-.166.083-.465.111-.63.111Zm-.498 0c.033-.36-.1-.694.365-.75-.066.167-.2.223-.166.417 0 .11.1.25.133.389-.166 0-.166-.028-.332-.056Zm1.096-.555c-.266-.195-.365-.222-.332-.472h.133c.066.11.133.222.232.333 0 .083.067.111-.033.139Zm.033-.25c-.066-.111-.033-.167-.033-.25.034 0 .1 0 .133.028.033.11.033.194-.1.222Zm.3.139c-.1-.167-.1-.167-.034-.306h.1c.033.111.1.167.1.306H4.77Zm.066.36v-.194c.066-.027.166-.083.233-.11.033-.167-.1-.278-.1-.362.399.084.299.528-.133.667Zm-.798-2.72c-.199-.166-.1-.388-.232-.583 0-.11.066-.166.166-.25.1 0 .166-.027.2.056-.366.25-.134.639.199.86-.067.084-.266-.055-.333-.083Zm.499.056c-.366-.111-.532-.777-.1-.777.2.166.765.749.1.777Zm.332-.389c-.133-.305-.531-.527-.332-.777h.1s.332.86.232.777Zm.067-.527c-.133-.056-.133-.14-.133-.195.1-.055.1-.055.133-.055.1.083.266.25 0 .25Zm.133.25c-.067-.028-.034-.056-.034-.056.233-.083.2-.139.2-.333.066.028.133.111.166.222-.1.083-.2.111-.332.167Zm-.233.75c0-.112.066-.14.133-.195.066-.167.033-.528.365-.5 0 .333.034.638-.498.694Zm-.033.11c.365 0 .531-.11.664-.416.1-.028.067 0 .133.027 0 .056-.299.39-.365.472-.133.028-.399.056-.432-.083Zm3.688 7.3c-.033-.305-.066-.527-.299-.693v-.111c.266.027.632.721.3.805Z" fill="#E30613"/><path fill-rule="evenodd" clip-rule="evenodd" d="M32.85 33.502c0-.222.067-.444.3-.5 0 .111-.1.472-.3.5Zm1.363.5c-.2-.222-.133-.417-.033-.611.166.139.133.694.033.61Zm.498-4.83c-.265-.167-.199-.334-.232-.556.266.028.299.334.266.556 0 .027 0 .027-.033 0Zm-.066.805c-.332-.222-.299-.14-.366-.472.1.027.466.305.432.472h-.066Zm.93 1.249c.167 0 .3.139.499.25-.233 0-.465-.056-.498-.25Zm.432-.194c-.033 0-.033-.028-.033-.028v-.056c.1-.028.366-.139.499-.055-.2.11-.3.139-.465.139Zm-.431-.223v-.055c.132-.111.199-.222.398-.222-.033.166-.266.25-.398.277Zm.299-7.078a.882.882 0 0 1-.499-.389c.366.056.399.056.598.306 0 .083-.033.083-.1.083Zm.133 3.026c-.266-.111-.233-.334-.233-.528.066 0 .365.389.332.528h-.1Zm1.23.055c-.034-.194.398-.527.63-.583-.033.25-.332.555-.63.583Zm-.2.61v-.055c.166-.083.398-.139.664-.139-.1.111-.332.223-.664.195Zm-1.496-4.33c-.133-.166-.266-.333-.232-.666.232.25.365.361.332.666-.033.028-.067 0-.1 0ZM8.127 34.585c-.133-.056-.3-.167-.332-.223.232.028.498.028.797.084v.055c-.166.084-.299.084-.465.084Zm-.631-2.471a.437.437 0 0 1 .299-.305c0 .139-.133.25-.3.305ZM6 29.949c0-.167.1-.361.332-.361-.1.083-.166.333-.332.36Zm-.332-.361c-.133-.139-.166-.305-.1-.527.266.11.133.471.133.527-.033.028-.033.028-.033 0Zm-1.562.305c-.133-.139-.465-.277-.498-.444.199.028.531.222.564.444h-.066Zm-.233.25c.166-.139.432-.083.532-.055-.066.11-.399.083-.532.055Zm-.1-3.47c-.298-.138-.298-.277-.332-.472.233.028.333.25.432.444-.066.028-.066.028-.1.028Zm.2-.138c-.1-.14-.166-.195-.166-.334.1.028.233.167.233.306-.067.055-.067.055-.067.027Zm1.362.222c0-.195.133-.445.366-.5-.066.166-.1.444-.365.5Zm-.73-2.832c-.233-.277-.167-.388-.134-.694.266.222.2.583.2.694h-.067Zm.299-.666c-.067-.222 0-.416.199-.583.033.139.033.555-.2.583Zm4.253 10.188c.067.25.2.471-.1.694-.1-.14-.232-.472.1-.694Zm25.322-.39c.033-.193.332-.249.532-.221-.1.166-.432.222-.532.222ZM14.34 15.293v.028h-.1v.527h.167v.028-.583h-.067Zm2.226 0c0 .056 0 .111-.033.167-.033.055-.033.11-.066.166-.033.028-.067.084-.1.111.033.056.033.084.067.14 0 0 0 .027.033.027h.299v-.583h-.2v-.028Zm7.178 0c-.033.084-.066.139-.1.194l.1.084c.067.083.1.166.133.25v-.556h-.133v.028Zm5.018-.75-.166-.166c-.2-.194-.631-.583-.964-.61-.232-.028-.697.11-.963.138-1.097.167-1.861-.61-2.659-1.082-.399-.25-1.362-.056-1.828 0-.465.055-.996.138-1.462.083-.631-.083-1.462.139-1.994.472-.531.305-2.658.36-3.323.333-.764-.028-1.86-.083-2.592.166-.365.112-.73.306-1.063.5-.133.056-.233.139-.366.194h4.188c.133 0 .299 0 .432.056.133.028.232.083.332.139a.41.41 0 0 1 .2.25c.032.027.032.083.032.11v-.555h1.363c.133 0 .299 0 .432.056.133.028.233.083.332.139a.41.41 0 0 1 .2.25.854.854 0 0 1 .066.305c0 .056 0 .111-.033.194-.033.056-.033.111-.067.167-.033.028-.066.083-.1.11.034.056.034.084.067.14 0 0 0 .027.033.027h.3l.531-1.332h1.23l.531 1.332h.266v-.582h-.2v-.75h1.33c.133 0 .3 0 .432.056a.93.93 0 0 1 .3.138c.032.028.099.084.099.111v-.305h1.362c.133 0 .3 0 .432.056.133.027.233.083.333.138a.41.41 0 0 1 .2.25.854.854 0 0 1 .066.306c0 .055 0 .11-.034.194-.033.055-.033.11-.066.166-.033.028-.067.084-.1.111.033.056.033.084.067.14 0 0 0 .027.033.027h.299l.532-1.332h1.23l.53 1.332h.134l.531-.555h-.598v-.805h.133v-.111Zm1.728 1.305-.299-.166-.166.166h.465Zm1.695.667a7.534 7.534 0 0 1-1.495-.556v.694H27.6l-.1-.333h-.366l-.1.333h-1.562c-.1 0-.199-.027-.299-.055-.033-.028-.066-.028-.1-.056v.111h-1.428v-.222l-.067.056c-.2.11-.432.166-.698.166h-2.359l-.1-.333h-.365l-.133.333h-1.562c-.1 0-.2-.027-.3-.055-.032-.028-.066-.028-.099-.056v.111h-1.96c-.1 0-.2-.027-.3-.055-.033-.028-.066-.028-.1-.056v.111h-3.389v-.75h.2v-.582.028h-.2v.638h-.399v.666h-1.528v-.75h.2v-.582h-.2v-.25c-.166.083-.366.167-.532.25a8.75 8.75 0 0 1-.964.36v1.278H32.22v-.444h-.033Zm-14.622 7.91c-.1 0-.232-.027-.332-.027.033.083.067.194.1.305l.2-.083.032-.194Zm-8.773.528v.056l4.919-.111c.066-.028.1-.056.166-.083-.1-.084-.2-.14-.332-.223.531-.083 1.096-.194 1.595-.055a.427.427 0 0 1-.167-.333c-2.26-.139-4.452-.167-6.214-.222v.971h.034Zm11.83 9.771c6.381-.083 11.565-4.441 11.565-9.77h-.2l-11.364 9.77Zm11.698-1.415c-.067-.084-.1-.278.1-.389a.691.691 0 0 1-.034.389h-.066Z" fill="#338C2B"/><path fill-rule="evenodd" clip-rule="evenodd" d="M28.963 7.242c-2.16-.333-5.151-.555-8.474-.555-3.323 0-6.314.222-8.474.555-2.127.333-3.423.777-3.423 1.25 0 .166.166.305.332.388.4-.444 1.762-.86 3.756-1.138 2.06-.306 4.818-.472 7.842-.472s5.782.166 7.842.472c1.994.277 3.357.666 3.756 1.138.132-.083.332-.222.332-.389-.067-.472-1.363-.916-3.49-1.249Zm.265-.722c-2.226-.36-5.35-.555-8.74-.555-3.422 0-6.512.222-8.739.555-2.193.333-3.556.805-3.556 1.277 0 .167.167.306.3.389.398-.472 1.794-.888 3.854-1.166 2.16-.305 5.018-.5 8.142-.5 3.123 0 5.981.195 8.141.5 2.06.305 3.49.694 3.855 1.166.133-.083.3-.222.3-.389 0-.472-1.363-.916-3.556-1.277Zm-.565 1.444c-2.093-.333-4.984-.528-8.174-.528-3.19 0-6.082.195-8.175.528-2.06.305-3.323.75-3.323 1.193 0 .25.332.472.964.667h1.894c-.632-.167-.997-.333-.997-.5 0-.305 1.063-.61 2.758-.833 1.761-.222 4.187-.388 6.879-.388 2.691 0 5.117.138 6.878.388 1.695.222 2.759.528 2.759.833 0 .167-.366.36-.997.5h1.894c.631-.222.964-.444.964-.667 0-.471-1.263-.888-3.323-1.193Zm.864-2.138c-2.326-.36-5.516-.583-9.038-.583-3.523 0-6.713.223-9.039.583-2.26.361-3.655.833-3.655 1.333 0 .166.166.305.299.388.365-.5 1.827-.916 3.954-1.221 2.227-.305 5.184-.527 8.44-.527 3.257 0 6.215.194 8.441.527 2.127.305 3.59.722 3.955 1.221.133-.083.299-.222.299-.388 0-.528-1.396-1-3.655-1.333ZM34.38 9.99H6.565v14.407c0 3.414 1.462 6.523 3.988 8.716 2.426 2.138 5.882 3.442 9.902 3.442 4.055 0 7.477-1.304 9.903-3.442 2.526-2.22 3.988-5.302 3.988-8.716V9.99h.033ZM17.564 2.523l.565-.028-.033-.472-.565.028.033.472Zm-7.61.777.532-.11-.166-.417c-.2.028-.365.083-.565.11l.2.417Zm6.015-1.166.1.472c.432-.027.864-.055 1.33-.055l-.067-.472c-.465 0-.93.028-1.363.055Zm2.891-.277L18.794.719l-.964.028.067.638c-.399 0-.831.028-1.23.055l-.1-.638c-.332.028-.664.028-.996.056l.1.638c-.433.028-.832.056-1.263.083l-.133-.638c-.333.028-.665.055-.997.11.1.362.2.723.299 1.111a56.835 56.835 0 0 1 5.283-.305Zm-3.09.277c-.465.028-.897.056-1.362.111l.1.472c.464-.027.896-.055 1.328-.083l-.066-.5Zm3.423 2.332h.498v-.5h-1.196l.033.472c.2.028.432.028.665.028Zm.033.167.033.472h1.13v-.472a8.127 8.127 0 0 0-1.163 0Zm-1.363.5 1.164-.028-.034-.472c-.398 0-.797.028-1.196.028l.066.471Zm-1.428-.417.1.472c.398-.028.797-.028 1.162-.028l-.066-.472c-.399-.027-.798 0-1.196.028Zm-1.296.527c.398-.027.797-.055 1.196-.055l-.1-.472-1.196.083.1.444ZM13.61 4.91l.133.472c.399-.028.797-.055 1.163-.083l-.1-.472c-.398 0-.797.028-1.196.083Zm-1.23.583c.4-.055.798-.083 1.163-.139l-.132-.471c-.4.027-.798.083-1.197.138l.166.472Zm-1.561-.222.199.444c.399-.055.764-.11 1.163-.166l-.166-.444a8.853 8.853 0 0 0-1.196.166Zm-1.13.694c.365-.083.73-.166 1.13-.25l-.2-.444c-.399.083-.764.167-1.13.25l.2.444Zm-1.462-.028.232.417c.333-.111.698-.222 1.03-.333l-.232-.417a7.405 7.405 0 0 0-1.03.333ZM20.389 3.3h-1.263l.034.472h1.229V3.3Zm-2.658.528c.398 0 .83-.028 1.23-.028l-.034-.472-1.263.028.067.472Zm-.698.194.066.472c.399-.028.798-.028 1.197-.028l-.034-.472c-.399 0-.83.028-1.23.028Zm-.2 0c-.398.028-.83.028-1.23.056l.067.5c.4-.029.798-.029 1.23-.056l-.067-.5Zm-.133-.805-.066-.472c-.432.028-.897.056-1.33.083l.1.472 1.296-.083Zm1.496-.055-.033-.472c-.432.027-.864.027-1.296.055l.066.472c.399-.028.83-.028 1.263-.055Zm-1.994.25.1.471c.432-.027.83-.027 1.262-.055l-.066-.472c-.465.028-.864.028-1.296.055Zm-1.529-.056.565-.028-.1-.472-.564.028.1.472Zm.133.638c.432-.027.831-.055 1.263-.083l-.1-.472-1.296.083.133.472Zm-.664.222.133.472c.398-.027.797-.055 1.23-.083l-.1-.472c-.433 0-.865.028-1.263.083Zm-.2 0c-.399.028-.83.084-1.23.14l.167.443c.399-.055.797-.083 1.23-.11l-.167-.473Zm.565-.694c-.432.028-.864.084-1.296.111l.133.472c.432-.027.83-.083 1.263-.11l-.1-.473Zm-2.592.75c.432-.056.831-.111 1.263-.139l-.133-.472c-.432.056-.864.111-1.263.167l.133.444Zm-.664.277.166.445 1.196-.167-.166-.444-1.196.166Zm-.2.028c-.399.056-.797.139-1.196.222l.2.444c.398-.083.764-.138 1.162-.222l-.166-.444Zm-.299-.75-.166-.443c-.432.083-.83.166-1.263.25l.2.444a9.655 9.655 0 0 1 1.23-.25Zm.798.029c-.432.055-.831.138-1.263.222l.2.444c.431-.084.797-.14 1.229-.195l-.166-.471Zm-2.659.527.233.416 1.196-.25-.2-.444a15.4 15.4 0 0 0-1.229.278Zm-.365.777.232.417c.399-.111.731-.195 1.13-.278l-.2-.444c-.398.083-.764.194-1.162.305Zm-.2.056c-.166.055-.299.083-.465.138l.233.417.432-.139-.2-.416Zm-.764-.444.233.416c.398-.139.73-.222 1.13-.333l-.233-.417c-.366.111-.764.223-1.13.334Zm.964-1.139c.432-.11.797-.194 1.262-.277l-.199-.444c-.432.083-.864.194-1.296.305l.233.416Zm-.632.361.233.417c.399-.111.797-.222 1.196-.306l-.2-.444c-.431.111-.83.222-1.229.333Zm-.2.056-.498.166.233.417.465-.167-.2-.416Zm-.797-.417.233.417c.399-.139.798-.25 1.196-.361l-.232-.416c-.4.11-.798.222-1.197.36Zm16.483-1.11-.565-.028.033-.472.565.028-.033.472Zm7.61.777-.532-.11.166-.417c.2.028.366.083.565.11l-.2.417Zm-5.982-1.166-.1.472c-.432-.027-.864-.055-1.329-.055l.067-.472c.465 0 .897.028 1.362.055Zm-2.89-.277.066-1.138.963.028-.066.638c.399 0 .83.028 1.23.055l.099-.638c.332.028.665.028.997.056l-.133.638c.432.028.83.056 1.263.083l.133-.638c.332.028.664.055.997.11-.1.362-.2.723-.3 1.111a56.133 56.133 0 0 0-5.25-.305Zm3.09.277c.465.028.897.056 1.362.111l-.1.472c-.465-.027-.897-.055-1.329-.083l.067-.5Zm-4.121 1.833v.5H19.89v-.5h1.196Zm.665.5h-.499v-.5h1.196l-.033.471c-.2.028-.432.028-.665.028Zm0 .166-.034.472h-1.13v-.472a8.131 8.131 0 0 1 1.163 0Zm1.329.5-1.163-.028.033-.472c.399 0 .797.028 1.196.028l-.066.471Zm1.462-.417-.1.472c-.399-.028-.797-.028-1.163-.028l.067-.472c.398-.027.797 0 1.196.028Zm1.296.527c-.399-.027-.798-.055-1.196-.055l.1-.472 1.196.083-.1.444Zm1.529-.333-.133.472c-.4-.028-.798-.055-1.163-.083l.1-.472c.398 0 .797.028 1.195.083Zm1.23.583c-.4-.055-.799-.083-1.164-.139l.133-.471c.399.027.797.083 1.196.138l-.166.472Zm1.56-.222-.199.444c-.398-.055-.764-.11-1.163-.166l.167-.472c.398.055.797.11 1.196.194Zm1.098.694a62.317 62.317 0 0 0-1.13-.25l.2-.444c.398.083.763.167 1.129.25l-.2.444Zm1.495-.028-.233.417c-.332-.111-.698-.222-1.03-.333l.233-.417c.332.084.664.195 1.03.333ZM20.589 3.3h1.262l-.033.472h-1.23V3.3Zm2.658.528c-.399 0-.83-.028-1.23-.028l.034-.472 1.262.028-.066.472Zm.698.194-.067.472c-.398-.028-.797-.028-1.196-.028l.033-.472c.399 0 .798.028 1.23.028Zm.2 0c.398.028.83.028 1.229.056l-.1.471c-.399-.027-.798-.027-1.23-.055l.1-.472Zm.099-.805.066-.472c.432.028.898.056 1.33.083l-.1.472-1.296-.083Zm-1.462-.055.033-.472c.432.027.864.027 1.296.055l-.067.472c-.432-.028-.83-.028-1.262-.055Zm1.994.25-.1.471c-.432-.027-.83-.027-1.263-.055l.067-.472c.431.028.863.028 1.296.055Zm1.528-.056-.565-.028.1-.472.565.028-.1.472Zm-.166.638c-.432-.027-.83-.055-1.263-.083l.1-.472 1.296.083-.133.472Zm.698.222-.133.472c-.399-.027-.798-.055-1.23-.083l.1-.472c.432 0 .83.028 1.263.083Zm.2 0c.431.028.83.084 1.229.14l-.166.443a16.583 16.583 0 0 0-1.23-.11l.166-.473Zm-.566-.694c.432.028.864.084 1.296.111l-.133.472c-.432-.027-.83-.083-1.262-.11l.1-.473Zm2.592.75c-.432-.056-.83-.111-1.263-.139l.134-.472c.431.056.863.111 1.262.167l-.133.444Zm.632.277-.166.445-1.197-.167.166-.444 1.197.166Zm.2.028c.398.056.797.139 1.195.222l-.199.444c-.399-.083-.764-.138-1.163-.222l.166-.444Zm.331-.75.166-.443c.433.083.831.166 1.263.25l-.2.444a9.655 9.655 0 0 0-1.229-.25Zm-.797.029c.432.055.83.138 1.263.222l-.2.444a18.848 18.848 0 0 0-1.23-.195l.167-.471Zm2.658.527-.232.416-1.197-.25.2-.444c.399.084.83.167 1.23.278Zm.366.777-.233.417a16.74 16.74 0 0 0-1.13-.278l.2-.444c.398.083.764.194 1.163.305Zm.166.056c.166.055.3.083.465.138l-.232.417-.432-.139.199-.416Zm.797-.444-.232.416c-.399-.139-.731-.222-1.13-.333l.233-.417c.365.111.764.223 1.13.334Zm-.963-1.139a16.274 16.274 0 0 0-1.263-.277l.2-.444c.431.083.863.194 1.296.305l-.233.416Zm.631.361-.232.417c-.4-.111-.798-.222-1.197-.306l.2-.444c.398.111.797.222 1.23.333Zm.166.056.499.166-.233.417-.465-.167.2-.416Zm.831-.417-.233.417c-.398-.139-.797-.25-1.196-.361l.233-.416c.399.11.797.222 1.196.36Zm-4.154-1.165c.133-.361.266-.722.4-1.055.331.055.63.11.963.166l-.266.611 1.196.25.266-.583c.3.083.631.166.93.25l-.299.583c.366.11.765.222 1.13.333.1-.195.233-.389.333-.583.299.083.565.194.864.305l-.599 1c-1.628-.611-3.19-.972-4.918-1.277Zm2.46 16.183H8.558v6.301c0 5.469 5.35 9.938 11.897 9.938 6.546 0 11.896-4.47 11.896-9.938v-6.301h.033ZM8.591 17.124H32.42V11.74H8.592v5.385Zm8.241 6.69-.232-.166c-.034.027-.067.083-.067.11l.233.195.897.111c.1.028.2.055.3.028a.311.311 0 0 0 .199-.084c-.067-.027-.1-.055-.133-.055-.067 0-.167.028-.3.055l-.897-.194Zm-1.76-.028-.067.14.166.055-.033-.195h-.067Zm.93-1.36c-.034.028-.067.084-.034.139h-.133l.034.139c-.067 0-.1.027-.133.11.066.029.1.056.166.084l.066-.139c.034 0 .167-.027.167-.027v-.111c0-.056 0-.111-.034-.167 0-.056-.066-.056-.1-.028ZM11.05 2.468c-.133-.361-.266-.722-.399-1.055-.332.055-.631.11-.963.166l.266.611-1.197.25-.266-.583c-.299.083-.631.166-.93.25l.299.583c-.399.11-.764.222-1.13.333-.1-.195-.232-.389-.332-.583-.3.083-.565.194-.864.305l.598 1c1.628-.611 3.19-.972 4.918-1.277Z" fill="#FD0"/><path fill-rule="evenodd" clip-rule="evenodd" d="M17 24.203c.199.027.398.027.598.055v-.055l-.93-.139-.167-.139c0 .028-.033.056-.033.083l-.1-.083c0 .056 0 .111.033.194.1 0 .4.056.599.084Zm15.186-5.386H8.758v5.025c1.96.055 3.955.11 5.915.222h.233l-.133-.056c.033-.083.033-.166.066-.25h-.1l.2-.416c.067-.194.166-.388.366-.5v-.166h.133c0-.055-.034-.083-.034-.139-.166.028-.299 0-.465 0 0-.083 0-.166.067-.222.066-.083.166-.11.299-.139.033-.166.166-.222.332-.277.133-.028.233-.084.332-.111.067.055.1.139.167.194.132-.028.332-.055.431 0 .1.056.1.111.133.194-.133.056-.265.111-.432.167a.768.768 0 0 1 0 .389c-.033.083-.1.11-.199.11l-.033.084c.266.166.498.416.764.61-.033 0-.033.028-.066.028l.166.14.73.138v-.056c.034-.277.3-.527.666-.527.332 0 .531.25.498.5l1.595.027v-.666h3.788l.166-3.47h.765l.166 3.47h.764v-.75l1.994.667v-.666l1.994.666v-.666l2.16.75v-4.303Zm-14.29 4.942c.067-.028.167-.028.3-.028h.465c.033-.167-.1-.333-.299-.333a.47.47 0 0 0-.465.36Zm14.29-7.44v-4.413H8.758v3.58c.3-.11.598-.222.898-.333.232-.11.431-.194.63-.277v-.333h.699c1.86-.916 1.695-1.083 4.453-1 1.362.028 2.857-.11 3.19-.305.598-.36 1.462-.583 2.16-.5 1.063.167 2.625-.5 3.356-.055.665.416 1.496 1.194 2.526 1.055.997-.14 1.096-.389 2.093.527.1.083.2.194.3.278h1.628v.666l-.333.36c.465.278 1.03.528 1.828.75Z" fill="#009DDC"/><path fill-rule="evenodd" clip-rule="evenodd" d="m28.73 16.042.864-.889h-.83v-.444h1.727v.417l-.864.888h.864v.472H28.73v-.444Zm-1.23-.361-.166-.5-.166.5h.332Zm-1.329.388h.2l.531-1.332h.93l.532 1.332h.2v.417h-.765l-.1-.333h-.664l-.1.333h-.697v-.417h-.067Zm-1.263-.638c.067 0 .1 0 .133-.028.034-.028.034-.055.034-.11 0-.084-.067-.14-.2-.14h-.2v.278h.233Zm-1.063.638h.2v-.916h-.2v-.444h1.163c.133 0 .266 0 .366.028.1.028.2.056.266.111a.783.783 0 0 1 .166.167.457.457 0 0 1 .066.222c0 .055 0 .11-.033.138 0 .028-.033.084-.067.111a73.26 73.26 0 0 0-.1.084c-.032.027-.066.055-.132.083a.4.4 0 0 1 .1.111c.033.028.033.083.066.111.033.028.033.083.066.111.034.028.067.028.133.028h.1v.416h-.498c-.067 0-.133 0-.2-.027-.033-.028-.1-.056-.133-.111-.033-.056-.066-.084-.1-.14-.033-.055-.033-.11-.066-.138-.033-.056-.033-.083-.066-.139-.034-.028-.067-.083-.1-.083h-.133v.222h.166v.416h-1.03v-.36Zm-1.13-.027c.067 0 .1 0 .166-.028.034-.028.067-.056.067-.111 0-.056-.033-.083-.067-.111-.033-.028-.1-.028-.166-.028h-.2v.305h.2v-.027Zm-.033-.639c.066 0 .133 0 .133-.028.033-.027.033-.055.033-.083 0-.028 0-.055-.033-.083-.033-.028-.067-.028-.133-.028h-.166v.25h.166v-.028Zm-1.03.666h.2v-.916h-.2v-.444h1.13c.166 0 .299 0 .398.028a.57.57 0 0 1 .233.111c.067.055.1.083.133.139.033.055.033.11.033.166 0 .111-.033.167-.1.25a.866.866 0 0 1-.199.139.497.497 0 0 1 .3.167.4.4 0 0 1 .099.25.436.436 0 0 1-.2.388 1.087 1.087 0 0 1-.564.139h-1.263v-.417Zm-1.263-.388-.166-.5-.166.5h.332Zm-1.33.388h.2l.532-1.332h.93l.532 1.332h.2v.417h-.798l-.1-.333h-.664l-.1.333h-.698v-.417h-.033Zm-1.262-.638c.066 0 .1 0 .133-.028s.033-.055.033-.11c0-.084-.066-.14-.2-.14h-.199v.278h.233Zm-1.063.638h.199v-.916h-.2v-.444h1.164c.133 0 .266 0 .365.028.1.028.2.056.266.111a.783.783 0 0 1 .166.167.457.457 0 0 1 .067.222c0 .055 0 .11-.034.138 0 .028-.033.084-.066.111l-.1.084c-.033.027-.066.055-.133.083a.4.4 0 0 1 .1.111c.033.028.033.083.067.111.033.028.033.083.066.111.033.028.066.028.133.028h.1v.416h-.499c-.066 0-.133 0-.2-.027-.032-.028-.099-.056-.132-.111-.033-.056-.066-.084-.1-.14-.033-.055-.033-.11-.066-.138-.034-.056-.034-.083-.067-.139-.033-.028-.066-.083-.1-.083h-.132v.222h.166v.416h-1.03v-.36Zm-1.263-.638c.066 0 .1 0 .133-.028s.033-.055.033-.11c0-.084-.066-.14-.2-.14h-.199v.278h.233Zm-1.063.638h.199v-.916h-.2v-.444h1.164c.133 0 .265 0 .365.028.1.028.2.056.266.111a.782.782 0 0 1 .166.167.455.455 0 0 1 .067.222c0 .055 0 .11-.034.138 0 .028-.033.084-.066.111l-.1.084c-.033.027-.066.055-.133.083.034.028.067.056.1.111.033.028.033.083.066.111.034.028.034.083.067.111.033.028.066.028.133.028h.1v.416h-.499c-.066 0-.133 0-.2-.027-.033-.028-.099-.056-.132-.111-.034-.056-.067-.084-.1-.14-.033-.055-.033-.11-.066-.138-.034-.056-.034-.083-.067-.139-.033-.028-.066-.083-.1-.083h-.133v.222h.167v.416h-1.03v-.36Zm-1.961 0h.2v-.916h-.2v-.444h1.695v.444h-.798v.167h.698v.444h-.698v.222h.864v.444h-1.761v-.36Zm-7.31 20.514.564.084h.2c.033 0 .1-.028.1-.028.032-.028.032-.028.032-.056 0-.027 0-.055-.033-.083-.033-.028-.066-.056-.1-.056-.033-.027-.1-.027-.166-.055l.1-.333c.133.028.233.055.332.11.1.056.2.112.3.195.132.111.199.25.199.361 0 .111-.034.194-.166.278a.568.568 0 0 1-.233.11.434.434 0 0 1-.266 0c-.1 0-.166-.027-.266-.027-.1-.028-.166-.028-.266-.056l.2.084s0 .027.033.027c0 0 0 .028.033.028.034.028.034.028.067.028s.033 0 .066-.028l.2.25c-.067.028-.133.083-.2.083-.066.028-.133.028-.166.028a.282.282 0 0 1-.166-.056c-.067-.027-.133-.083-.2-.138l-.1-.084c-.032-.027-.032-.055-.066-.083-.033-.028-.033-.055-.066-.083-.033-.028-.033-.056-.067-.083l-.1-.084c-.032-.027-.066-.055-.132-.083l.332-.25Zm-.267-.75.466.5-.3.195-.465-.5.3-.194Zm-.664-.86v-.083c0-.028.033-.056.033-.083 0-.028.033-.056.066-.056l.067-.055c.066-.028.133-.056.166-.056.066 0 .133 0 .2.028.066.028.132.055.166.083.066.028.1.083.166.139.066.055.1.111.133.194a.301.301 0 0 1 .033.167c0 .055 0 .11-.033.166a.243.243 0 0 1-.133.111c-.034 0-.034.028-.067.028s-.066.028-.1.028h-.1c-.032 0-.066 0-.099-.028v.111c0 .028 0 .056-.033.083 0 .028-.033.056-.067.084l-.066.055-.2.083H4.14l-.2-.083-.199-.166a.787.787 0 0 1-.132-.222c-.034-.056-.034-.14-.034-.195 0-.055.034-.11.034-.166.033-.056.066-.084.132-.139.067-.028.133-.056.233-.056.1-.027.166-.027.233.028Zm-.166.528c.033.027.066.055.1.055.032 0 .099 0 .132-.028.033-.027.067-.055.067-.083 0-.028 0-.083-.034-.11-.033-.029-.066-.056-.1-.056-.033 0-.099 0-.132.027-.033.028-.067.056-.067.084 0 .055 0 .083.034.11Zm.564-.334c.034.028.067.028.1.056.033 0 .067 0 .1-.028s.066-.055.066-.083c0-.028 0-.056-.033-.083C4.804 35 4.804 35 4.737 35c-.033 0-.066 0-.1.028-.033.027-.066.055-.066.083 0 0 0 .028.033.055Zm23.461 3.248-.332-.333.066.444.266-.11Zm-.864.666.166-.055-.166-1.194.732-.277.963.888.166-.055.2.333-.599.222-.232-.222-.498.194.066.305-.532.222-.266-.36Zm-.864.028-.166.056-.133-.306.665-.194.299.722c-.1.083-.2.166-.3.194-.099.056-.232.083-.365.139-.133.028-.299.056-.398.056a.643.643 0 0 1-.333-.084c-.1-.055-.2-.11-.266-.194-.066-.083-.133-.167-.166-.278-.033-.11-.066-.222-.066-.333 0-.11.033-.194.1-.277a.812.812 0 0 1 .232-.222c.1-.056.233-.111.366-.167.066-.028.133-.028.2-.055.066 0 .132 0 .198-.028h.167c.033 0 .1 0 .133.028l-.034.388c-.066 0-.133-.028-.2-.028-.066 0-.132 0-.198.028-.067.028-.133.056-.167.083a.397.397 0 0 0-.1.111c-.032.056-.033.084-.033.14 0 .055 0 .11.034.166.033.055.033.083.066.139.033.027.067.083.1.083.033.028.1.028.133.055h.166c.033 0 .066-.027.066-.027.034 0 .034-.028.067-.028l-.067-.167Zm-3.19.916.166-.027-.199-.778-.166.028-.1-.36.764-.14.632.667-.2-.722.698-.139.1.361-.166.028.299 1.11-.565.111-.665-.638.2.721-.698.111-.1-.333Zm-1.163-.25-.2-.416-.099.444.3-.027Zm-1.097.39h.167l.332-1.167.797-.055.532 1.11h.166l.034.36-.632.056-.133-.277-.565.028-.066.277-.598.028-.034-.36Zm-1.063-.556c.067 0 .1 0 .133-.028s.033-.055.033-.083c0-.083-.033-.111-.166-.111h-.166v.222h.166Zm-.93.5h.166l.033-.778h-.166v-.36l.997.027c.1 0 .2.028.299.056.1.027.166.055.2.11.066.056.099.084.132.167.033.056.034.111.034.195 0 .055 0 .083-.034.11 0 .028-.033.056-.066.084-.034.028-.034.056-.067.083-.033.028-.066.028-.1.056l.1.083c.034.028.034.083.067.111 0 .028.033.056.066.083.033.028.067.028.1.028h.1v.361h-.432c-.067 0-.1-.028-.167-.028l-.1-.083c-.033-.028-.066-.083-.066-.111-.033-.056-.033-.083-.066-.139-.033-.028-.033-.083-.067-.11-.033-.029-.033-.056-.066-.084h-.1v.194h.166v.361l-.897-.028-.066-.388Zm-1.296-.14.166.029.133-.778-.166-.027.066-.361.93.11-.066.362-.166-.028-.133.777.166.028-.066.36-.93-.11.066-.361Zm-.898-.665c.1.027.167 0 .2-.084.033-.083-.033-.139-.133-.139l-.166-.027-.067.25h.166Zm-.996.333.166.027.2-.777-.167-.028.1-.36.897.166.299.083c.066.028.133.084.2.14l.099.166v.194c-.033.083-.033.139-.1.194a.375.375 0 0 1-.166.14c-.066.027-.133.055-.232.055-.1 0-.2 0-.3-.028l-.199-.028-.033.167.166.028-.1.36-.897-.166.066-.333Zm-.964-.583.033-.444-.299.36.266.084Zm-1.197-.028.167.055.864-.943.73.222-.033 1.193.167.056-.133.333-.598-.194.033-.306-.532-.166-.2.25-.564-.167.1-.333Zm-1.428-.722c.066.056.133.14.199.167.066.055.133.11.233.139.066.027.1.027.133.027s.066-.027.066-.027v-.084c0-.027-.033-.055-.1-.11a.783.783 0 0 1-.166-.167.585.585 0 0 1-.133-.167v-.11c0-.056.033-.112.067-.195.033-.056.1-.111.166-.167l.2-.083c.066-.028.165 0 .265 0l.3.083c.132.056.265.111.331.167.1.055.167.11.233.166l-.332.278-.067-.055-.066-.056c-.033-.028-.067-.056-.1-.056-.033-.027-.066-.027-.1-.055-.066-.028-.1-.028-.133-.028s-.066.028-.066.028v.028s0 .027.033.055c0 .028.034.028.067.084l.133.11c.1.084.166.195.199.278.033.083 0 .194-.033.305a.557.557 0 0 1-.366.278 1.05 1.05 0 0 1-.565-.083 8.309 8.309 0 0 1-.365-.195c-.1-.055-.166-.11-.266-.166l.233-.389Zm25.355-3.72c.066-.055.133-.083.166-.138a.64.64 0 0 1 .133-.139c.033-.056.033-.083.033-.111 0-.028-.033-.056-.066-.083h-.1c-.033 0-.033.027-.067.055-.033.028-.066.056-.066.084a.597.597 0 0 1-.1.138c-.033.056-.033.084-.033.111l-.83-.444.498-.722.365.167-.299.416.166.084c0-.028.033-.056.033-.084.034-.027.034-.055.034-.083a.549.549 0 0 1 .299-.222c.133-.028.232 0 .365.056a.717.717 0 0 1 .166.11l.1.167c0 .056.033.111 0 .194a.4.4 0 0 1-.1.222c-.033.084-.1.14-.166.195l-.199.166-.332-.138Zm-.731.944a.375.375 0 0 0 .166-.138c.033-.056.1-.084.133-.14.033-.055.066-.083.033-.11 0-.028-.033-.056-.067-.084 0 0-.033 0-.033-.027h-.066c-.034 0-.034.027-.067.027l-.1.084c-.033.055-.066.083-.1.139-.032.055-.032.083-.032.11l-.765-.5.565-.693.333.194-.333.417.166.11c0-.027.034-.055.034-.083.033-.027.033-.055.066-.055.1-.111.2-.167.332-.194.133-.028.233 0 .366.083.067.028.1.083.166.139.033.055.067.11.067.166v.194c-.034.056-.067.14-.1.195-.066.055-.1.139-.2.194-.066.056-.132.111-.199.139l-.365-.167Zm-.864.361c.033-.028.033-.055.033-.11 0-.029-.033-.056-.067-.084a.275.275 0 0 0-.133-.056c-.033 0-.066.028-.1.056-.032.028-.032.056-.032.111 0 .028.033.056.066.111.033.028.1.055.133.055l.1-.083Zm0 .583c.066-.028.133-.055.166-.083.066-.028.1-.083.166-.139.066-.055.066-.11.066-.194 0-.056-.033-.111-.1-.167 0 .056 0 .111-.032.139-.034.028-.034.083-.067.111-.066.056-.1.111-.166.139-.067.028-.133.055-.2.055-.066 0-.133 0-.199-.027l-.2-.084c-.066-.055-.132-.083-.165-.138-.034-.056-.067-.112-.067-.167 0-.056 0-.111.033-.194.034-.056.067-.14.133-.195.1-.083.166-.166.266-.194.1-.028.2-.055.266-.028.1 0 .166.028.266.084.1.027.166.083.232.138.1.056.166.14.233.222.066.084.1.14.133.222a.326.326 0 0 1 0 .25.53.53 0 0 1-.133.222l-.1.084-.1.083c-.033.028-.066.056-.1.056-.032.027-.066.027-.099.055l-.232-.25Zm-.731.805.166-.139-.532-.388-.133.166-.332-.25.398-.555.931.694.133-.139.299.223-.631.61-.3-.222ZM3.009 34.002l.532.166a.426.426 0 0 0 .166.028c.033 0 .1 0 .133-.028.033 0 .033-.028.067-.055 0-.028 0-.056-.034-.084-.033-.027-.033-.055-.1-.083a.77.77 0 0 0-.165-.083l.166-.306c.1.028.2.084.299.167.1.056.166.139.232.222.1.139.133.278.133.389a.37.37 0 0 1-.232.25.728.728 0 0 1-.266.055c-.1 0-.166 0-.266-.028-.1-.027-.166-.055-.266-.083a1.802 1.802 0 0 1-.232-.083c.066.028.132.083.166.11v.056c0 .028.033.028.066.028h.067l.166.278c-.067.027-.133.055-.2.055-.066 0-.133.028-.166 0-.066 0-.1-.028-.166-.083-.066-.028-.1-.111-.166-.194-.033-.028-.033-.056-.067-.084 0-.027-.033-.055-.033-.083 0-.028-.033-.055-.033-.083 0-.028-.033-.056-.066-.084-.034-.027-.034-.055-.067-.083l-.1-.083.432-.194Zm32.467 2.442.166.14.033-.029-.1-.055c-.033-.028-.066-.028-.1-.056 0 .028 0 0 0 0Zm.83-2.36.698-.97.698.333-.033.055a.797.797 0 0 1 .498.083c.1.056.167.084.233.167.067.055.1.139.133.222a.326.326 0 0 1 0 .25c-.033.083-.066.194-.133.277a1.598 1.598 0 0 1-.2.222c-.066.084-.165.14-.232.195l-.1.055-.033-.028v.028c.033.084 0 .167 0 .25a.912.912 0 0 1-.133.25c-.066.083-.133.139-.2.222a.802.802 0 0 1-.265.166l-.1.056-.166-.083c0 .027 0 .055.033.055a.477.477 0 0 1 0 .306.954.954 0 0 1-.166.305c-.033.028-.066.056-.1.111l-.1.083-.099.084c-.033.027-.066.055-.133.055l.067.056-.93.832-.566-.444.167-.139-.2-.138-.133.166-.631-.472.598-.86.332.25a.457.457 0 0 1-.066-.223c0-.083 0-.166.033-.25a.601.601 0 0 1 .166-.221c.1-.111.2-.195.366-.25.1-.028.2-.056.299-.056l-.233-.139.632-.86ZM18.729 39.47h-.067l-.066.444.166.028h.133l.033-.444-.2-.028Zm8.307-.5.067-.027-.166-1.194.997-.389.963.889.2-.084.365.639-.897.36-.233-.221-.232.083.066.305-.864.333-.066-.138-.034.027c-.1.084-.199.167-.332.25a2.263 2.263 0 0 1-.399.139c-.166.056-.332.056-.498.056-.133 0-.3-.028-.432-.084a.908.908 0 0 1-.332-.25c-.067-.055-.1-.138-.167-.222l.2.778-.864.166-.233-.222.067.278-1.097.194v-.028l-.964.056-.133-.278-.265.028-.067.277-.964.056v-.028h-.465c-.1 0-.2-.028-.266-.055l-.033-.028v.083l-1.296-.028v-.388l-.066.36-1.33-.166.133-.694.166.028.067-.444h-.033c-.034.083-.067.166-.1.222a.726.726 0 0 1-.233.194c-.1.056-.199.056-.332.084h-.2l-.132.527-1.263-.222h-.033l-.897-.278.033-.305-.233-.083-.2.25-.896-.278.1-.25c-.067.028-.134.056-.2.056-.233.055-.499-.028-.698-.111-.133-.056-.233-.111-.332-.167-.1-.056-.2-.139-.266-.194l-.1-.084.432-.694.1.084v-.14a.4.4 0 0 1 .1-.249c.066-.083.132-.166.199-.222.1-.056.2-.083.299-.111.1-.028.233 0 .332 0 .133.028.233.056.333.111.133.056.265.111.365.194.067.056.166.111.233.167l.133.11-.565.473c0 .028 0 .028.033.055.033.14.033.25-.033.361h.033l.864-.944 1.03.306-.033 1.193.133.056h.066l.1-.444-.1-.056.166-.694 1.097.195c.133.027.233.055.332.11.1.056.2.112.266.167.033.028.033.028.033.056l.034-.222 1.329.166.997.028c.133 0 .232.028.365.055.1.028.2.084.3.14a.602.602 0 0 1 .166.221c.033.084.066.167.033.25 0 .056 0 .111-.033.167-.034.055-.034.11-.067.139-.033.027-.066.055-.066.083.033.027.033.055.033.083v.028h.2l.332-1.166 1.13-.028.531 1.11.233-.027-.1-.444-.166.027-.166-.666 1.063-.194.2.194-.067-.222 1.097-.194.066.25s0-.028.033-.028a.855.855 0 0 1 .3-.278c.132-.083.265-.139.431-.194.067-.028.167-.028.233-.056.067 0 .133-.027.2-.027h.199c.033 0 .1 0 .133.027l.166.028-.066.444.199-.055.2.5Zm-21.5-2.664.133-.472.2.027c.132.028.265.056.398.111.133.056.233.14.332.223.133.138.266.277.266.444a.472.472 0 0 1-.232.416c-.1.083-.2.111-.333.139-.033 0-.1 0-.133.028l.166.194-.166.083a.57.57 0 0 1-.232.111c-.1.028-.167.056-.266.056-.1 0-.2-.028-.266-.083a1.612 1.612 0 0 1-.266-.195.399.399 0 0 1-.1-.11c-.033-.029-.033-.056-.066-.084-.033-.028-.033-.056-.066-.083l-.067-.056L4.771 37c-.034-.028-.067-.056-.1-.056l-.2-.111.333-.25-.465-.472c-.1 0-.2 0-.3-.027-.1-.028-.199-.056-.265-.112a.809.809 0 0 1-.233-.222 1.085 1.085 0 0 1-.166-.25c-.033-.083-.067-.166-.067-.25 0-.055 0-.083.034-.11h-.1c-.1-.028-.2-.056-.266-.111-.066-.056-.133-.14-.2-.222-.032-.028-.066-.084-.066-.111-.033-.028-.033-.056-.033-.084 0-.027-.033-.055-.033-.083 0-.028-.033-.056-.033-.056-.034-.027-.034-.055-.067-.055l-.1-.083-.166-.139.698-.36.399.11.332-.583.166.056c.133.055.266.11.366.166.1.084.2.167.266.278.1.139.2.305.166.5 0 .027-.033.083-.033.11.066 0 .133 0 .166.028a.57.57 0 0 1 .232.111c.067.056.133.111.2.195.066.055.1.139.133.222.033.083.066.138.066.222a.457.457 0 0 1-.066.222c-.033.083-.1.139-.2.194-.033.028-.066.028-.1.056-.033 0-.066.027-.099.027l.565.556Zm2.193.166a15.427 15.427 0 0 1-1.994-1.998 15.737 15.737 0 0 1-2.226-3.526l-.598 2.027-2.194-1.11c.632 1.443 1.496 2.775 2.526 3.997 1.063 1.304 2.36 2.47 3.788 3.47.233.138.432.221.598.25a.48.48 0 0 0 .4-.112c.398-.333-.067-.722-.532-1.11-.532-.444-1.03-.86-.499-1.305l.731-.583Zm12.76 2.027c-3.721 0-7.277-1.028-10.101-3.11-.167-.11-.333-.194-.499-.194a.48.48 0 0 0-.399.111L7.562 36.89c.266 0 .498.11.665.25 3.39 2.581 7.71 3.886 12.262 3.886 4.552 0 8.872-1.305 12.262-3.887.2-.138.399-.277.665-.25l-1.928-1.582c-.1-.083-.232-.11-.399-.11-.166 0-.332.083-.498.194-2.825 2.054-6.38 3.109-10.102 3.109Zm12.761-2.027a15.422 15.422 0 0 0 1.994-1.998 15.733 15.733 0 0 0 2.227-3.526l.598 2.027 2.193-1.11c-.631 1.443-1.495 2.775-2.526 3.997-1.063 1.304-2.359 2.47-3.788 3.47-.232.138-.432.221-.598.25a.48.48 0 0 1-.399-.112c-.399-.333.067-.722.532-1.11.532-.444 1.03-.86.498-1.305l-.73-.583ZM16.567 23.51l-.132-.111c-.266-.222-.565-.472-.864-.528v.111c-.266.084-.3.222-.4.444-.032.056-.066.14-.099.223l.266.027.033.472h.465v.139c.1-.056.2-.111.333-.139 0-.11 0-.166-.034-.25a.77.77 0 0 1 0-.388l.233.194c.067-.055.1-.139.2-.194Zm-6.08-7.44h.199v-.916h-.2v-.444h1.761v.444h-.864v.195h.632v.444h-.632v.25h.233v.416h-1.13v-.389Z" fill="#fff"/><path fill-rule="evenodd" clip-rule="evenodd" d="m20.223 25.285.465-.027-.1-.278h-.232l-.133.305Zm-4.22-.388-.1-.028.033 1h.133l-.066-.972Zm4.818.083.2.972.232-.028-.233-.944h-.199Zm-.133.444-.565.028-.1.222.732-.083-.067-.167Zm.897-.028h-.265l.033.14.266-.029-.034-.11Zm1.462.111c-.066 0-.1.195-.1.25 0 .028.034.25.1.25.067 0 .1-.194.1-.25 0-.055-.033-.25-.1-.25Zm-4.054.472c-.265 0-.365.472-.365.639 0 .166.1.638.365.638.266 0 .366-.472.366-.638 0-.167-.1-.639-.366-.639Zm-10.9 11.27a.993.993 0 0 0-.498-.222c-.166 0-.299.056-.399.111-.498.389.1.805.466 1.11.365.306.73.611.73.945l1.164-.944a27.933 27.933 0 0 1-1.462-1Zm12.529-13.99h5.616v-.666l1.994.666v-.666l1.993.666v-.666l1.961.666v1.555H22.449l-.033-.445c-.033-.388-.299-.583-.764-.583h-1.03v-.527Zm4.453-.194-.133-3.304h-.366l-.133 3.304h.632Zm7.809 14.184a.993.993 0 0 1 .498-.222c.166 0 .3.056.399.111.498.389-.1.805-.465 1.11-.366.306-.731.611-.731.945l-1.163-.944c.498-.333.997-.666 1.462-1ZM21.386 25.702l.033.194.532-.055v-.195l-.565.056Z" fill="#C6C6C6"/><path d="m16.534 26.646.266.027v-.083c0-.61.2-1.416.964-1.666.399-.138 1.163-.194 1.562 0l.1-.138c-.665-.14-1.263-.167-1.729 0-.631.194-.864.694-.997 1.193l-.166-.027v.694Zm-.365.055.166-.028v-.583l-.166.028v.583Zm-.2-.583-.365-.055v.555l.365.055v-.555Zm-.531-1.554c.166.083.365.139.531.166a.33.33 0 0 1-.199-.139.576.576 0 0 1-.1-.333h-.498c.033.14.133.222.266.306Zm3.157-.666h-.266l.133.11c-.034.028-.067.084-.133.111.1-.055.2-.11.266-.221Zm.265 0h-.033a.665.665 0 0 1-.598.388c-.066 0-.166-.028-.2-.028h-.199l-.033.306c.465-.111.997-.084 1.495 0l-.066-.389c-.1-.166-.166-.25-.366-.277Zm3.39 1.026-.067-.582c-.033-.306-.199-.417-.564-.417l-2.393-.027c.066.055.1.138.1.25l.066.443c.1.028.166.028.266.056l-.2.36c.167.14.3.306.4.473l.332-.666h1.395l.166.694.2-.028c.066-.195.166-.417.299-.556Zm-6.945-.11c-.366-.14-.798-.14-1.296-.084.266.194.498.417.698.666.265.334.432.694.598 1.083h.066v-.583l.332-.083-.033-.777a.81.81 0 0 0-.365-.223Z" fill="#EC6607"/><path d="M12.015 29.088c-.033-.027-.067-.055-.1-.055h-.066s-.034.028-.034.055v.056c0 .055 0 .083.034.139.033.027.066.055.1.055h.033s.033-.028.033-.055v-.056c.033-.055 0-.11 0-.139Zm-.067-.194c.067.028.133.056.167.139a.453.453 0 0 1 .066.194v.083c-.033.056-.033.084-.1.111a.282.282 0 0 1-.166.056h-.066c-.067-.028-.133-.056-.166-.139a.453.453 0 0 1-.067-.194v-.083c.033-.056.033-.084.1-.111a.282.282 0 0 1 .166-.056h.066Zm2.36.777-.1-.083h-.066c-.034 0-.034.028-.034.055v.056c0 .055 0 .111.034.139l.1.083h.066c.033 0 .033-.028.033-.055v-.056c.033-.055 0-.083-.033-.139Zm-.033-.194a.436.436 0 0 1 .199.139.453.453 0 0 1 .066.194v.083a.4.4 0 0 1-.1.111.282.282 0 0 1-.165.056h-.067c-.066-.028-.133-.056-.2-.139a.455.455 0 0 1-.066-.222v-.083c.034-.056.067-.084.1-.111a.282.282 0 0 1 .166-.056c.033.028.067.028.067.028Zm2.459.805-.1-.083h-.033c-.034 0-.034 0-.067.027-.033 0-.033.028-.033.056v.055c0 .056 0 .111.033.14l.1.083h.033c.034 0 .033 0 .067-.028.033 0 .033-.028.033-.056v-.055c.033-.028 0-.084-.033-.139Zm-.034-.194a.866.866 0 0 1 .2.138.456.456 0 0 1 .066.223c0 .027 0 .055-.033.083a.4.4 0 0 1-.1.11.282.282 0 0 1-.166.056h-.066a.864.864 0 0 1-.2-.138.456.456 0 0 1-.066-.223c0-.027 0-.055.033-.083a.4.4 0 0 1 .1-.11.282.282 0 0 1 .166-.056h.066Zm-5.05-2.36 3.754-.944.565.084-.997 1.637-.199-.055.964-1.61-3.722.971-.366-.083Zm11.397-2.776c-.365 0-.465.583-.465.805 0 .222.1.805.465.805.366 0 .466-.583.466-.805 0-.222-.1-.805-.466-.805Zm-3.389.472c-.2-.277-.465-.472-.764-.472-.3 0-.565.167-.765.472-.199.306-.332.722-.332 1.194s.133.888.332 1.193c.2.278.466.472.765.472s.565-.166.764-.472c.2-.305.332-.721.332-1.193 0-.444-.133-.888-.332-1.194Zm3.39-.083c.232 0 .299.277.299.416 0 .14-.067.417-.3.417-.232 0-.299-.278-.299-.417 0-.139.067-.416.3-.416Zm-4.055.472c.432 0 .565.527.565.805 0 .277-.166.805-.565.805-.432 0-.564-.528-.564-.805-.034-.278.132-.805.564-.805Zm-3.755-3.415c.266 0 .499-.055.731-.11.2-.056.366-.112.466-.167-.1 0-.233.028-.333.055-.066-.055-.1-.11-.166-.194-.1.028-.166.056-.232.083-.034 0-.133.028-.167.084-.033.055-.033.138-.033.194-.1 0-.166 0-.266.055Zm1.928 2.416c-.034-.112-.067-.361-.166-.417-.1-.055-.599-.111-.765-.111-.1 0-.166.028-.266.111-.033.028-.066.028-.1.056.034.055.067.11.134.166l.83.028.133.333.2-.166Zm-.798-.056.266.694.2-.333-.134-.361h-.332Zm-2.093 2.637a.705.705 0 0 0 .531.278.71.71 0 0 0 .233-.056l.299-.5-1.063.278Zm.033-2.193c-.033.056-.067.083-.1.139-.166.25-.266.583-.266.971 0 .223.034.445.1.611l.631-.166a.767.767 0 0 1-.133-.445c0-.166.034-.305.133-.416a.242.242 0 0 1 .133-.111c-.066-.083-.133-.194-.2-.278-.132-.11-.198-.222-.298-.305ZM9.755 28.34c.067.028.133.055.166.11.034.056.067.112.067.195v.084c-.033.055-.033.083-.1.11-.033.028-.066.028-.1.028-.033-.055-.066-.083-.066-.139h.1s.033-.027.033-.055v-.028c0-.055 0-.083-.033-.11-.034-.029-.034-.056-.067-.056H9.69s-.033.027-.033.055v.028c-.034-.056-.067-.111-.067-.167l.033-.027a.282.282 0 0 1 .166-.056c-.066.028-.033.028-.033.028Z" fill="#70706F"/><path d="M106.191 34.14c-.199 0-.366.028-.532.084a1.982 1.982 0 0 0-.432.222 1.19 1.19 0 0 0-.332.333.892.892 0 0 0-.199.388c.166 0 .299 0 .432.028h.365c.266 0 .465-.028.665-.055.166-.028.332-.056.432-.111.099-.056.199-.111.232-.195.034-.083.067-.138.067-.222a.391.391 0 0 0-.2-.36c-.133-.084-.299-.111-.498-.111Zm-.698 2.638a1.83 1.83 0 0 1-.565-.084.914.914 0 0 1-.399-.25c-.099-.11-.199-.222-.265-.388a1.1 1.1 0 0 1-.1-.472c0-.222.066-.444.166-.639.1-.222.233-.388.432-.555.166-.166.399-.277.631-.388a2.02 2.02 0 0 1 .798-.14c.133 0 .299.029.432.056.133.028.233.084.332.14.1.055.166.138.233.249.066.083.1.194.1.333 0 .278-.133.5-.432.639-.299.138-.765.222-1.363.222h-.399c-.133 0-.299 0-.465-.028v.166c0 .111.033.25.067.361a.94.94 0 0 0 .166.306c.066.083.166.138.299.194.133.056.266.083.399.083.099 0 .199 0 .332-.027.1-.028.199-.056.299-.112.1-.055.199-.11.266-.166.066-.056.166-.139.199-.222l.366.083a.86.86 0 0 1-.299.278 1.5 1.5 0 0 1-.366.222 1.876 1.876 0 0 1-.432.139c-.1-.028-.266 0-.432 0Zm-5.018 0c-.266 0-.498-.028-.698-.111-.232-.084-.398-.167-.531-.306l.266-.25c.299.25.631.389 1.063.389.299 0 .532-.056.698-.167.199-.11.266-.25.266-.444 0-.055-.034-.11-.067-.166-.033-.056-.1-.084-.166-.111-.066-.028-.166-.056-.266-.084a6.338 6.338 0 0 0-.365-.083c-.167-.028-.299-.083-.399-.11-.1-.029-.2-.084-.3-.112-.066-.056-.132-.083-.165-.166a.457.457 0 0 1-.067-.223c0-.166.033-.305.133-.416.067-.111.199-.222.332-.305.133-.084.299-.14.466-.195.166-.055.365-.055.565-.055.232 0 .465.028.631.11.166.084.332.167.432.279l-.266.221a.8.8 0 0 0-.365-.25 1.573 1.573 0 0 0-.499-.082c-.133 0-.233 0-.365.027-.1.028-.2.056-.3.111-.099.056-.166.111-.199.194-.033.084-.066.167-.066.278 0 .111.066.195.166.25.099.056.299.111.532.139.365.083.631.166.797.25.199.083.266.222.266.416a.76.76 0 0 1-.1.389.916.916 0 0 1-.299.305 1.338 1.338 0 0 1-.465.194 2.729 2.729 0 0 1-.665.084Zm-3.456-.334c.1 0 .233-.027.366-.055.133-.028.232-.083.365-.139.1-.055.233-.139.3-.222a.567.567 0 0 0 .199-.277l.2-.889a.417.417 0 0 0-.1-.277c-.067-.084-.133-.167-.2-.223a.758.758 0 0 0-.266-.138c-.1-.028-.2-.056-.332-.056-.2 0-.366.028-.565.111a2.497 2.497 0 0 0-.465.306 1.367 1.367 0 0 0-.3.444c-.066.166-.132.333-.132.5 0 .138.033.25.066.36.034.111.1.195.2.278.066.083.166.139.299.194.1.056.232.083.365.083Zm-.166.334a1.3 1.3 0 0 1-.498-.084 1.024 1.024 0 0 1-.366-.25c-.1-.11-.2-.222-.233-.388-.066-.139-.066-.305-.066-.444 0-.222.067-.445.166-.667.1-.222.233-.388.432-.555.166-.166.366-.305.598-.388a1.57 1.57 0 0 1 .698-.14c.266 0 .499.056.665.195.166.139.299.278.365.444l.166-.583h.433l-.599 2.36v.083c0 .056.034.083.133.083l-.1.334h-.166a.552.552 0 0 1-.232-.056c-.067-.028-.067-.083-.067-.139v-.11c0-.056.034-.14.067-.223-.166.194-.399.333-.632.444-.299.028-.531.084-.764.084Zm-3.29 0c-.266 0-.498-.028-.698-.111-.199-.084-.398-.167-.531-.306l.266-.25c.299.25.631.389 1.063.389.299 0 .532-.056.698-.167.2-.11.266-.25.266-.444 0-.055-.034-.11-.067-.166-.033-.056-.1-.084-.166-.111-.066-.028-.166-.056-.266-.084-.1-.027-.232-.055-.365-.083-.166-.028-.3-.083-.4-.11-.099-.029-.198-.084-.298-.112-.067-.056-.133-.083-.166-.166a.457.457 0 0 1-.067-.223c0-.166.033-.305.133-.416.067-.111.2-.222.332-.305.133-.084.3-.14.466-.195.166-.055.365-.055.565-.055.232 0 .465.028.631.11.166.084.332.167.432.279l-.266.221a.799.799 0 0 0-.365-.25 1.565 1.565 0 0 0-.499-.082c-.133 0-.233 0-.365.027-.1.028-.2.056-.3.111-.1.056-.166.111-.199.194-.066.084-.066.167-.066.278 0 .111.066.195.166.25.1.056.299.111.531.139.366.083.632.166.798.25.2.083.266.222.266.416a.765.765 0 0 1-.1.389.922.922 0 0 1-.299.305c-.133.083-.299.166-.465.194a3.183 3.183 0 0 1-.665.084Zm-3.356-.334c.166 0 .366-.027.532-.11.166-.084.332-.167.465-.306.133-.139.266-.277.332-.444a.972.972 0 0 0 .133-.528c0-.138-.033-.25-.066-.36a.467.467 0 0 0-.2-.278c-.066-.083-.166-.139-.299-.194a.773.773 0 0 0-.365-.083c-.166 0-.366.027-.532.11-.166.084-.332.167-.465.306-.133.139-.266.277-.333.444a.972.972 0 0 0-.133.527c0 .14.034.25.067.361.033.111.1.195.2.278.066.083.165.139.298.194a.875.875 0 0 0 .366.083Zm-.066.334c-.2 0-.366-.028-.532-.084a.91.91 0 0 1-.399-.25c-.1-.11-.2-.222-.266-.388a1.108 1.108 0 0 1-.1-.472c0-.222.067-.444.167-.666.1-.222.266-.389.432-.556.199-.166.398-.277.631-.388.233-.111.499-.139.764-.139.2 0 .366.028.532.083a.91.91 0 0 1 .399.25c.1.111.2.222.266.389.066.139.1.305.1.472 0 .222-.067.444-.167.666-.1.222-.266.389-.432.555-.2.167-.399.278-.631.389a2.304 2.304 0 0 1-.764.139Zm-2.958-1.805c.133 0 .299-.027.432-.083a.906.906 0 0 0 .332-.25c.1-.11.166-.222.233-.333.066-.111.1-.25.1-.389 0-.11 0-.194-.034-.277-.033-.084-.066-.167-.133-.222l-.199-.167c-.1-.028-.166-.055-.266-.055h-1.395l-.466 1.748h1.396v.028Zm-2.326 1.749.997-3.858h1.86c.167 0 .3.027.433.083.133.055.232.139.332.222.1.083.166.194.2.333.033.111.066.25.066.36 0 .167-.033.306-.1.473-.066.139-.166.277-.266.416a3.811 3.811 0 0 1-.398.306 1.755 1.755 0 0 1-.499.166l.698 1.499h-.499l-.664-1.416h-1.263l-.366 1.416h-.531Zm-3.722.056c-.266 0-.499-.028-.698-.111-.233-.084-.399-.167-.532-.306l.266-.25c.3.25.632.389 1.064.389.299 0 .531-.056.698-.167.199-.11.265-.25.265-.444 0-.055-.033-.11-.066-.166-.033-.056-.1-.084-.166-.111-.067-.028-.166-.056-.266-.084-.1-.027-.233-.055-.366-.083-.166-.028-.299-.083-.398-.11-.1-.029-.2-.084-.3-.112-.066-.056-.132-.083-.166-.166a.457.457 0 0 1-.066-.223c0-.166.033-.305.133-.416.066-.111.2-.222.332-.305.133-.084.3-.14.465-.195.166-.055.366-.055.565-.055.233 0 .466.028.632.11.166.084.332.167.432.279l-.266.221a.799.799 0 0 0-.366-.25 1.564 1.564 0 0 0-.498-.082c-.133 0-.233 0-.366.027-.1.028-.2.056-.299.111-.1.056-.166.111-.2.194-.032.084-.066.167-.066.278 0 .111.067.195.166.25.1.056.3.111.532.139.366.083.632.166.798.25.2.083.266.222.266.416a.766.766 0 0 1-.1.389.922.922 0 0 1-.3.305c-.132.083-.298.166-.464.194a2.727 2.727 0 0 1-.665.084Zm-3.456-.334c.1 0 .233-.027.365-.055.133-.028.233-.083.366-.139.1-.055.233-.139.3-.222a.568.568 0 0 0 .199-.277l.199-.889a.417.417 0 0 0-.1-.277c-.066-.084-.133-.167-.2-.223a.757.757 0 0 0-.265-.138c-.1-.028-.2-.056-.332-.056-.2 0-.366.028-.565.111a2.497 2.497 0 0 0-.466.306 1.367 1.367 0 0 0-.299.444c-.066.166-.132.333-.132.5 0 .138.033.25.066.36.033.111.1.195.2.278.066.083.165.139.298.194.1.056.233.083.366.083Zm-.166.334a1.3 1.3 0 0 1-.499-.084 1.024 1.024 0 0 1-.365-.25c-.1-.11-.2-.222-.233-.388-.066-.139-.066-.305-.066-.444 0-.222.066-.445.166-.667.1-.222.233-.388.432-.555.166-.166.365-.305.598-.388a1.57 1.57 0 0 1 .698-.14c.266 0 .498.056.665.195.166.139.299.278.365.444l.166-.583h.432l-.598 2.36v.083c0 .056.033.083.133.083l-.1.334h-.166a.551.551 0 0 1-.233-.056c-.066-.028-.066-.083-.066-.139v-.11c0-.056.033-.14.067-.223-.167.194-.4.333-.632.444-.299.028-.532.084-.764.084Zm-3.722-.334c.1 0 .233-.027.332-.055.133-.028.233-.083.366-.139a.756.756 0 0 0 .299-.222.567.567 0 0 0 .2-.277l.199-.889a.416.416 0 0 0-.1-.277 1.598 1.598 0 0 0-.2-.223.757.757 0 0 0-.265-.138c-.1-.028-.2-.056-.333-.056-.199 0-.365.028-.564.111a2.498 2.498 0 0 0-.466.306 2.383 2.383 0 0 0-.332.444c-.067.166-.133.333-.133.5 0 .138.033.25.067.36.033.111.1.195.199.278.066.083.166.139.299.194.166.056.299.083.432.083Zm-.166.334a1.3 1.3 0 0 1-.499-.084.799.799 0 0 1-.365-.25c-.1-.11-.2-.222-.233-.388-.066-.139-.066-.305-.066-.444 0-.222.066-.445.166-.667.1-.222.233-.388.432-.555a1.62 1.62 0 0 1 .598-.388 1.57 1.57 0 0 1 .698-.14c.266 0 .498.056.665.195.166.139.299.278.365.444l.432-1.72h.432l-.897 3.497v.055c0 .056.033.084.133.084l-.1.333h-.166c-.1 0-.2-.028-.233-.056-.066-.055-.066-.083-.066-.166v-.111c0-.056.033-.111.066-.25-.166.194-.398.333-.631.444a1.872 1.872 0 0 1-.731.167Zm-4.32-2.637c-.2 0-.366.027-.532.083-.166.055-.299.139-.432.222a1.188 1.188 0 0 0-.332.333.898.898 0 0 0-.2.388c.167 0 .3 0 .432.028h.366c.266 0 .465-.028.665-.055.166-.028.332-.056.432-.111.1-.056.199-.111.232-.195.033-.083.067-.138.067-.222a.39.39 0 0 0-.2-.36c-.133-.084-.299-.111-.498-.111Zm-.698 2.637c-.2 0-.399-.028-.565-.084a.911.911 0 0 1-.399-.25c-.1-.11-.2-.222-.266-.388a1.108 1.108 0 0 1-.1-.472c0-.222.067-.444.167-.639.1-.222.233-.388.432-.555.166-.166.399-.277.631-.388.266-.111.532-.14.798-.14a2.3 2.3 0 0 1 .432.056c.133.028.232.084.332.14.1.055.166.138.233.249.066.083.1.194.1.333 0 .278-.133.5-.433.639-.299.138-.764.222-1.362.222h-.399c-.133 0-.299 0-.465-.028v.166c0 .111.033.25.066.361.034.111.1.222.166.306.067.083.167.138.3.194.133.056.265.083.398.083.1 0 .2 0 .333-.027.1-.028.2-.056.299-.112.1-.055.2-.11.266-.166.066-.056.166-.139.199-.222l.365.083a.856.856 0 0 1-.299.278c-.1.083-.232.166-.365.222a1.872 1.872 0 0 1-.432.139c-.1-.028-.266 0-.432 0Zm-3.788-.334c.1 0 .232-.027.332-.055.133-.028.233-.083.365-.139a.755.755 0 0 0 .3-.222.567.567 0 0 0 .199-.277l.2-.889a.416.416 0 0 0-.1-.277 1.592 1.592 0 0 0-.2-.223.756.756 0 0 0-.266-.138c-.1-.028-.199-.056-.332-.056-.2 0-.365.028-.565.111a2.497 2.497 0 0 0-.465.306 2.383 2.383 0 0 0-.332.444c-.067.166-.133.333-.133.5 0 .138.033.25.066.36.033.111.1.195.2.278.066.083.166.139.299.194.166.056.266.083.432.083Zm-.2.334a1.3 1.3 0 0 1-.498-.084.799.799 0 0 1-.366-.25c-.1-.11-.2-.222-.232-.388-.067-.139-.067-.305-.067-.444 0-.222.067-.445.166-.667.1-.222.233-.388.432-.555.166-.166.366-.305.599-.388a1.57 1.57 0 0 1 .697-.14c.266 0 .499.056.665.195.166.139.299.278.365.444l.433-1.72h.431l-.897 3.497v.055c0 .056.034.084.133.084l-.1.333h-.166c-.1 0-.2-.028-.232-.056-.067-.055-.067-.083-.067-.166v-.111c0-.056.033-.111.067-.25-.166.194-.4.333-.632.444a1.75 1.75 0 0 1-.73.167Zm-3.722-.334c.1 0 .233-.027.366-.055.133-.028.233-.083.366-.139.1-.055.232-.139.299-.222a.567.567 0 0 0 .199-.277l.2-.889a.416.416 0 0 0-.1-.277 1.592 1.592 0 0 0-.2-.223.756.756 0 0 0-.266-.138c-.1-.028-.199-.056-.332-.056-.2 0-.366.028-.565.111a2.494 2.494 0 0 0-.465.306 1.365 1.365 0 0 0-.3.444c-.066.166-.132.333-.132.5 0 .138.033.25.066.36.034.111.1.195.2.278.066.083.166.139.299.194.1.056.233.083.365.083Zm-.166.334c-.2 0-.365-.028-.498-.084a1.025 1.025 0 0 1-.366-.25c-.1-.11-.2-.222-.232-.388-.067-.139-.067-.305-.067-.444 0-.222.067-.445.166-.667.1-.222.233-.388.432-.555a1.62 1.62 0 0 1 .599-.388 1.57 1.57 0 0 1 .697-.14c.266 0 .499.056.665.195.166.139.299.278.365.444l.167-.583h.432l-.599 2.36v.083c0 .056.034.083.133.083l-.1.334h-.165a.552.552 0 0 1-.233-.056.196.196 0 0 1-.067-.139v-.11c0-.056.034-.14.067-.223-.166.194-.399.333-.632.444-.298.028-.531.084-.764.084Zm-3.688-.334c.1 0 .232-.027.332-.055.133-.028.233-.083.365-.139a.755.755 0 0 0 .3-.222.567.567 0 0 0 .199-.277l.2-.889a.416.416 0 0 0-.1-.277c-.067-.084-.133-.167-.2-.223a.756.756 0 0 0-.266-.138c-.1-.028-.199-.056-.332-.056-.2 0-.365.028-.565.111a2.498 2.498 0 0 0-.465.306 1.367 1.367 0 0 0-.3.444c-.066.166-.132.333-.132.5 0 .138.033.25.066.36.034.111.1.195.2.278.066.083.166.139.299.194a.82.82 0 0 0 .399.083Zm-.2.334c-.2 0-.365-.028-.498-.084a.799.799 0 0 1-.366-.25c-.1-.11-.2-.222-.232-.388-.067-.139-.067-.305-.067-.444 0-.222.067-.445.166-.667.1-.222.233-.388.432-.555a1.62 1.62 0 0 1 .599-.388 1.57 1.57 0 0 1 .697-.14c.266 0 .499.056.665.195.166.139.299.278.366.444l.431-1.72h.432l-.897 3.497v.055c0 .056.034.084.133.084l-.1.333h-.166c-.1 0-.2-.028-.232-.056-.067-.055-.067-.083-.067-.166v-.111c0-.056.033-.111.067-.25-.166.194-.4.333-.632.444a1.871 1.871 0 0 1-.73.167Zm-1.695-4.026h.432l-.133.556h-.431l.133-.556Zm-.299 1.139h.432l-.73 2.831h-.433l.731-2.831Zm88.627.25c-.199 0-.366.027-.532.083-.166.055-.299.139-.432.222a1.19 1.19 0 0 0-.332.333.892.892 0 0 0-.199.388c.166 0 .299 0 .432.028h.365c.266 0 .465-.028.665-.055.166-.028.332-.056.432-.111.099-.056.199-.111.232-.195.034-.083.067-.138.067-.222a.391.391 0 0 0-.2-.36c-.133-.084-.299-.111-.498-.111Zm-.665 2.637c-.199 0-.398-.028-.565-.084a.905.905 0 0 1-.398-.25c-.1-.11-.2-.222-.266-.388a1.1 1.1 0 0 1-.1-.472c0-.222.067-.444.166-.639.1-.222.233-.388.432-.555.166-.166.399-.277.632-.388.232-.111.531-.14.797-.14.133 0 .299.029.432.056.133.028.233.084.332.14.1.055.167.138.233.249.067.083.1.194.1.333 0 .278-.133.5-.432.639-.299.138-.765.222-1.363.222h-.398c-.133 0-.3 0-.466-.028v.166c0 .111.034.25.067.361a.94.94 0 0 0 .166.306c.066.083.166.138.299.194.133.056.266.083.399.083.099 0 .199 0 .332-.027.1-.028.199-.056.299-.112.1-.055.2-.11.266-.166.066-.056.166-.139.199-.222l.366.083a.86.86 0 0 1-.299.278 1.5 1.5 0 0 1-.366.222 1.876 1.876 0 0 1-.432.139c-.133-.028-.299 0-.432 0Zm-2.758-2.887h.432l-.166.666a3 3 0 0 1 .565-.5c.199-.11.432-.194.665-.194h.166l-.1.333c-.266 0-.532.083-.798.194a2.017 2.017 0 0 0-.598.528l-.432 1.748h-.432l.698-2.775Zm-3.622 0h.465l.432 2.498c.366-.417.698-.833.964-1.25.266-.416.465-.832.598-1.248h.432c-.332.943-.93 1.887-1.861 2.831h-.465l-.565-2.831Zm-.665-1.139h.432l-.133.556h-.432l.133-.556Zm-.299 1.139h.432l-.731 2.831h-.432l.731-2.831Zm-3.256-1.027h.465l-.897 3.525h2.525l-.099.333h-2.958l.964-3.858Zm-4.985 3.58c.166 0 .366-.027.532-.11.166-.084.332-.167.465-.306.133-.139.266-.277.332-.444a.97.97 0 0 0 .133-.528c0-.138-.033-.25-.066-.36a.466.466 0 0 0-.2-.278c-.066-.083-.166-.139-.299-.194a.768.768 0 0 0-.365-.083c-.166 0-.366.027-.532.11-.166.084-.332.167-.465.306-.133.139-.266.277-.332.444a.97.97 0 0 0-.133.527c0 .14.033.25.066.361.033.111.1.195.199.278.067.083.167.139.3.194a.768.768 0 0 0 .365.083Zm-.1.334c-.199 0-.365-.028-.531-.084a.908.908 0 0 1-.399-.25 1.27 1.27 0 0 1-.266-.388 1.116 1.116 0 0 1-.1-.472c0-.222.067-.444.166-.666.1-.222.266-.389.433-.556.199-.166.398-.277.631-.388.232-.111.498-.139.764-.139.2 0 .366.028.532.083a.914.914 0 0 1 .399.25c.099.111.199.222.266.389.066.139.099.305.099.472 0 .222-.066.444-.166.666-.1.222-.266.389-.432.555a2.844 2.844 0 0 1-.631.389 2.162 2.162 0 0 1-.765.139Zm-3.622-.334c.166 0 .366-.027.532-.11.166-.084.332-.167.465-.306.133-.139.266-.277.332-.444a.97.97 0 0 0 .133-.528c0-.138-.033-.25-.066-.36a.466.466 0 0 0-.2-.278c-.066-.083-.166-.139-.299-.194a.768.768 0 0 0-.365-.083c-.166 0-.366.027-.532.11-.166.084-.332.167-.465.306-.133.139-.266.277-.332.444a.97.97 0 0 0-.133.527c0 .14.033.25.066.361.033.111.1.195.2.278.066.083.166.139.299.194a.768.768 0 0 0 .365.083Zm-.1.334c-.199 0-.365-.028-.531-.084a.914.914 0 0 1-.399-.25 1.27 1.27 0 0 1-.266-.388 1.116 1.116 0 0 1-.1-.472c0-.222.067-.444.167-.666.099-.222.265-.389.432-.556.199-.166.398-.277.631-.388.233-.111.498-.139.764-.139.2 0 .366.028.532.083a.914.914 0 0 1 .399.25c.1.111.199.222.266.389.066.139.099.305.099.472 0 .222-.066.444-.166.666-.099.222-.266.389-.432.555a2.844 2.844 0 0 1-.631.389 2.31 2.31 0 0 1-.765.139Zm-4.652-3.914h.465l.698 3.386 2.393-3.386h.465l-2.791 3.858h-.399l-.831-3.858Zm-4.22 3.58c.166 0 .365-.027.532-.11.166-.084.332-.167.465-.306.133-.139.266-.277.332-.444a.97.97 0 0 0 .133-.528c0-.138-.033-.25-.066-.36a.47.47 0 0 0-.2-.278c-.066-.083-.166-.139-.299-.194a.77.77 0 0 0-.365-.083c-.167 0-.366.027-.532.11-.166.084-.332.167-.465.306-.133.139-.266.277-.333.444-.066.166-.133.333-.133.527 0 .14.034.25.067.361.033.111.1.195.199.278.067.083.166.139.299.194a.877.877 0 0 0 .366.083Zm-.067.334c-.199 0-.365-.028-.531-.084a.914.914 0 0 1-.399-.25 1.27 1.27 0 0 1-.266-.388 1.116 1.116 0 0 1-.1-.472c0-.222.067-.444.167-.666.099-.222.265-.389.432-.556.199-.166.398-.277.631-.388.233-.111.498-.139.764-.139.2 0 .366.028.532.083a.914.914 0 0 1 .399.25c.099.111.199.222.266.389.066.139.099.305.099.472 0 .222-.066.444-.166.666-.1.222-.266.389-.432.555a2.844 2.844 0 0 1-.631.389 2.31 2.31 0 0 1-.765.139Zm-3.788-.334c.1 0 .233-.027.332-.055.133-.028.233-.083.366-.139a.751.751 0 0 0 .299-.222.563.563 0 0 0 .199-.277l.2-.889a.414.414 0 0 0-.1-.277 1.597 1.597 0 0 0-.199-.223.76.76 0 0 0-.266-.138c-.1-.028-.2-.056-.332-.056-.2 0-.366.028-.565.111a2.477 2.477 0 0 0-.466.306 1.373 1.373 0 0 0-.299.444c-.066.166-.133.333-.133.5 0 .138.034.25.067.36.033.111.1.195.199.278.067.083.166.139.299.194.133.056.266.083.399.083Zm-.166.334c-.199 0-.366-.028-.499-.084a.8.8 0 0 1-.365-.25c-.1-.11-.199-.222-.233-.388-.066-.139-.066-.305-.066-.444 0-.222.066-.445.166-.667.1-.222.233-.388.432-.555.166-.166.366-.305.598-.388a1.57 1.57 0 0 1 .698-.14c.266 0 .498.056.665.195.166.139.299.278.365.444l.432-1.72h.432l-.897 3.497v.055c0 .056.033.084.133.084l-.1.333h-.166a.446.446 0 0 1-.233-.056c-.066-.055-.066-.083-.066-.166v-.111c0-.056.033-.111.066-.25-.166.194-.398.333-.631.444a1.87 1.87 0 0 1-.731.167Zm-64.368-8.162h102.45v.25H46.143v-.25Zm99.36-18.654c-.033-.25-.066-.471-.199-.666-.1-.194-.266-.36-.432-.527a1.956 1.956 0 0 0-.599-.333 2.1 2.1 0 0 0-.731-.111c-.265 0-.498.027-.731.11a1.95 1.95 0 0 0-.598.334 1.435 1.435 0 0 0-.399.527 2.049 2.049 0 0 0-.199.666h3.888Zm-1.894 2.277c-.332 0-.665-.056-.964-.167a2.197 2.197 0 0 1-.764-.472 1.677 1.677 0 0 1-.499-.666 1.744 1.744 0 0 1-.199-.833c0-.277.066-.555.199-.805s.299-.472.499-.666c.199-.194.465-.333.764-.444a2.789 2.789 0 0 1 1.894 0c.299.11.565.277.765.444.199.194.365.416.498.666.133.25.166.528.166.805v.195h-4.287c.034.222.1.444.2.666a1.813 1.813 0 0 0 1.03.86c.233.084.465.14.731.14.166 0 .332-.029.499-.056.166-.028.299-.084.465-.167.133-.056.266-.139.365-.25.1-.083.2-.194.266-.305l.399.083a1.639 1.639 0 0 1-.299.417 2.502 2.502 0 0 1-.465.305 1.818 1.818 0 0 1-.599.194 5.95 5.95 0 0 1-.664.056Zm-5.782-.361c.166 0 .365-.028.531-.083.2-.056.366-.14.532-.25.166-.111.299-.222.432-.361.133-.139.199-.278.199-.416V9.434a1.614 1.614 0 0 0-.299-.416 1.544 1.544 0 0 0-.432-.333 2.885 2.885 0 0 0-.531-.223 1.783 1.783 0 0 0-1.296.083c-.233.112-.432.223-.598.39-.167.166-.3.36-.366.555a1.548 1.548 0 0 0 .033 1.332c.1.222.233.389.432.555.166.167.399.278.632.389.199.055.465.11.731.11Zm-.067.36c-.332 0-.664-.055-.93-.166a2.051 2.051 0 0 1-.731-.472 2.672 2.672 0 0 1-.499-.666 2.17 2.17 0 0 1-.166-.777c0-.278.066-.555.166-.805s.266-.472.465-.666c.2-.195.432-.361.698-.472a2.31 2.31 0 0 1 .898-.167c.199 0 .398.028.598.083.199.056.365.111.531.195.167.083.299.194.432.305.133.111.233.25.333.36V6.466h.465v5.19c0 .14.066.195.199.195v.36h-.166a.473.473 0 0 1-.332-.11c-.1-.083-.133-.167-.133-.25v-.444c-.199.277-.465.5-.798.638-.332.111-.664.195-1.03.195Zm-6.546-5.8h.465v4.912c0 .14.066.278.166.361a.64.64 0 0 0 .432.14c.067 0 .166 0 .233-.029a.732.732 0 0 0 .266-.055l.099.305a3.931 3.931 0 0 1-.398.083c-.167.028-.3.028-.399.028-.266 0-.466-.055-.632-.194-.166-.139-.232-.306-.232-.528V6.437Zm-3.789 5.495c.366 0 .698-.055.997-.166.299-.111.532-.278.698-.444.1-.111.166-.222.166-.306v-.75a3.175 3.175 0 0 0-.697-.166 6.51 6.51 0 0 0-.765-.055 4.86 4.86 0 0 0-.664.055c-.2.056-.366.111-.532.195-.133.083-.266.166-.332.277-.067.111-.133.25-.133.361a.77.77 0 0 0 .099.389 1.3 1.3 0 0 0 .266.305c.1.083.233.167.399.194.166.084.332.111.498.111Zm-.099.306c-.233 0-.432-.028-.632-.111a1.359 1.359 0 0 1-.498-.278 1.276 1.276 0 0 1-.332-.389c-.067-.166-.133-.333-.133-.5 0-.166.066-.332.166-.499.099-.139.232-.277.432-.389.166-.11.399-.194.631-.25a3.98 3.98 0 0 1 .831-.083c.266 0 .532.028.798.056.265.028.498.083.731.166v-.388c0-.389-.133-.694-.399-.916-.266-.222-.632-.333-1.064-.333-.232 0-.498.055-.764.138a3.357 3.357 0 0 0-.797.361l-.167-.277c.632-.361 1.23-.528 1.795-.528.598 0 1.063.14 1.396.417.332.277.498.666.498 1.193v1.999c0 .139.067.194.199.194v.361h-.199c-.133 0-.233-.028-.299-.11-.066-.084-.133-.167-.133-.25v-.334c-.233.25-.498.444-.864.555a3.466 3.466 0 0 1-1.196.195Zm-4.686-.361c.266 0 .532-.056.764-.139.233-.111.433-.222.599-.389.166-.166.299-.36.365-.555.1-.222.133-.416.133-.638 0-.222-.066-.472-.166-.666a1.49 1.49 0 0 0-.432-.556 1.754 1.754 0 0 0-.631-.388 2.31 2.31 0 0 0-.765-.139c-.166 0-.365.028-.531.083-.2.056-.366.14-.532.25a2.495 2.495 0 0 0-.432.36c-.133.14-.2.279-.2.417v1.333c.067.138.2.305.3.416.133.139.265.25.432.333.166.111.332.167.498.222.233.028.432.056.598.056Zm.133.36c-.432 0-.797-.083-1.13-.277a2.83 2.83 0 0 1-.797-.666v2.554h-.465V8.103h.431v.805c.2-.25.466-.472.798-.639.332-.166.698-.25 1.063-.25.333 0 .665.056.931.195.299.11.532.277.731.472.199.194.366.416.498.666.1.25.167.527.167.777 0 .278-.067.555-.167.805a1.94 1.94 0 0 1-.465.666c-.199.195-.432.333-.698.472a2.304 2.304 0 0 1-.897.167Zm-4.353-5.08v-.72h.465v.72h-.465Zm0 4.997v-4.08h.465v4.08h-.465Zm-5.45-2.054c0-.277.067-.555.166-.805.133-.25.299-.472.499-.666.199-.194.465-.333.764-.444a2.79 2.79 0 0 1 .964-.167 2.6 2.6 0 0 1 1.163.25c.332.167.598.389.764.694l-.465.139c-.133-.222-.366-.389-.632-.527a1.856 1.856 0 0 0-.864-.195c-.265 0-.531.056-.764.139a2.005 2.005 0 0 0-.598.36 1.828 1.828 0 0 0-.399.556c-.1.222-.166.444-.166.694 0 .25.066.472.166.694.1.222.233.416.399.555.166.167.366.278.598.389.233.083.499.139.731.139.166 0 .332-.028.499-.056.166-.055.332-.083.465-.166.133-.056.266-.14.365-.25a.723.723 0 0 0 .2-.278l.465.111a1.157 1.157 0 0 1-.299.389 1.743 1.743 0 0 1-.465.305 1.807 1.807 0 0 1-.598.194 2.793 2.793 0 0 1-1.629-.083 2.197 2.197 0 0 1-.764-.472 1.665 1.665 0 0 1-.498-.666c0-.278-.067-.527-.067-.833Zm-1.595-2.942v-.722h.465v.722h-.465Zm0 4.996v-4.08h.465v4.08h-.465Zm-1.429 0h-.465V9.88c0-.527-.1-.916-.266-1.166-.166-.25-.465-.36-.864-.36-.199 0-.399.027-.631.083-.2.055-.399.139-.565.277a2.002 2.002 0 0 0-.765.916v2.526h-.465v-4.08h.432v.971c.1-.166.233-.305.366-.416.133-.139.299-.25.498-.333.2-.083.366-.167.598-.222.2-.056.432-.083.632-.083.531 0 .897.166 1.13.471.232.306.332.75.332 1.333v2.36h.033Zm-8.009.084c-1.03 0-1.561-.611-1.561-1.805v-2.36h.465v2.305c0 1 .399 1.499 1.229 1.499.2 0 .399-.028.598-.083.2-.056.366-.14.532-.25.166-.111.332-.25.432-.389.133-.139.233-.333.299-.5V8.075h.465V11.6c0 .139.067.195.2.195v.36h-.166a.476.476 0 0 1-.333-.11c-.099-.056-.133-.167-.133-.25v-.611c-.199.333-.498.583-.864.777-.332.194-.731.278-1.163.278Zm-3.588-.084v-4.83l-2.626 3.776h-.299L92.8 7.353v4.83h-.465v-5.58h.465l2.791 3.998 2.792-3.997h.465v5.58h-.498v-.029Zm-12.362-.222c.365 0 .698-.055.997-.166.299-.111.531-.278.697-.444.1-.111.167-.222.167-.306v-.75a3.184 3.184 0 0 0-.698-.166 6.495 6.495 0 0 0-.765-.055c-.232 0-.465.027-.664.055a2.85 2.85 0 0 0-.532.195c-.166.083-.266.166-.332.277-.067.111-.133.25-.133.361 0 .139.033.278.1.389.066.11.166.222.265.305.1.083.233.167.4.194.165.084.331.111.498.111Zm-.1.306c-.233 0-.432-.028-.631-.111a1.357 1.357 0 0 1-.499-.278 1.286 1.286 0 0 1-.332-.389c-.067-.166-.133-.333-.133-.5 0-.166.066-.332.166-.499.1-.139.233-.277.432-.389.166-.11.399-.194.631-.25.266-.055.532-.083.831-.083a7.7 7.7 0 0 1 .798.056c.266.028.498.083.73.166v-.388c0-.389-.132-.694-.398-.916-.266-.222-.631-.333-1.063-.333-.233 0-.499.055-.765.138a3.378 3.378 0 0 0-.797.361l-.166-.277c.631-.361 1.23-.528 1.794-.528.598 0 1.064.14 1.396.417.332.277.498.666.498 1.193v1.999c0 .139.067.194.2.194v.361h-.2c-.133 0-.232-.028-.299-.11-.066-.084-.133-.167-.133-.25v-.334c-.232.25-.498.444-.864.555a3.466 3.466 0 0 1-1.196.195ZM83.86 8.436c-.432 0-.83.11-1.163.333-.332.194-.565.5-.698.86v2.554h-.465v-4.08h.465v.999c.166-.278.399-.527.665-.694.265-.194.564-.278.897-.305H83.86v.333Zm-6.314 3.803c-1.03 0-1.562-.611-1.562-1.805v-2.36h.465v2.305c0 1 .4 1.499 1.23 1.499.2 0 .399-.028.598-.083a1.8 1.8 0 0 0 .532-.25c.166-.111.332-.25.432-.389a1.6 1.6 0 0 0 .299-.5V8.075h.465V11.6c0 .139.067.195.2.195v.36h-.167a.474.474 0 0 1-.332-.11c-.1-.056-.133-.167-.133-.25v-.611c-.2.333-.498.583-.864.777-.332.194-.731.278-1.163.278Zm-2.326-.278c-.033 0-.067.028-.133.056a1.798 1.798 0 0 1-.233.083l-.299.083c-.1.028-.232.028-.365.028-.133 0-.266-.028-.366-.056a.928.928 0 0 1-.299-.138.448.448 0 0 1-.2-.222c-.066-.084-.066-.195-.066-.306V8.408h-.698v-.333h.698V6.687h.466v1.388h1.13v.333h-1.13v2.97c0 .139.066.278.199.333a.762.762 0 0 0 .432.111c.2 0 .365-.027.498-.083.133-.056.233-.083.266-.111l.1.333ZM71.1 7.16v-.722h.465v.722h-.466Zm0 4.996v-4.08h.465v4.08h-.466Zm-1.496-2.193c-.033-.25-.067-.471-.2-.666-.1-.194-.265-.36-.431-.527a1.946 1.946 0 0 0-.599-.333 2.103 2.103 0 0 0-.73-.111c-.267 0-.5.027-.732.11a1.945 1.945 0 0 0-.598.334 1.43 1.43 0 0 0-.399.527c-.1.195-.166.417-.2.666h3.889Zm-1.927 2.277a2.79 2.79 0 0 1-.964-.167 2.2 2.2 0 0 1-.764-.472 1.675 1.675 0 0 1-.499-.666c-.133-.25-.2-.527-.2-.833 0-.277.067-.555.2-.805s.3-.472.498-.666c.2-.194.466-.333.765-.444a2.791 2.791 0 0 1 1.894 0c.299.11.565.277.764.444.2.194.366.416.499.666.133.25.166.528.166.805v.195h-4.287c.033.222.1.444.2.666.1.194.265.388.431.527.167.139.366.25.599.333.232.084.465.14.73.14.167 0 .333-.029.5-.056.165-.028.298-.084.464-.167.133-.056.266-.139.366-.25.1-.083.2-.194.266-.305l.399.083a1.63 1.63 0 0 1-.3.417c-.132.11-.299.222-.465.305a1.808 1.808 0 0 1-.598.194c-.2.028-.432.056-.664.056Zm-4.586-.084V8.408h-.698v-.333h.698v-.139c0-.5.133-.888.365-1.166.233-.277.598-.416 1.03-.416.2 0 .366.028.532.083.166.056.332.111.432.194l-.166.278c-.1-.056-.2-.111-.332-.139-.133-.028-.266-.055-.4-.055-.332 0-.564.11-.73.305-.166.222-.266.527-.266.916v.139h1.396v.333h-1.396v3.747h-.465Zm-1.662-2.193c-.033-.25-.066-.471-.2-.666-.099-.194-.265-.36-.431-.527a1.945 1.945 0 0 0-.599-.333c-.199-.084-.465-.111-.697-.111-.266 0-.499.027-.731.11a1.945 1.945 0 0 0-.599.334 1.43 1.43 0 0 0-.398.527c-.1.195-.166.417-.2.666h3.855Zm-1.927 2.277a2.79 2.79 0 0 1-.964-.167 2.201 2.201 0 0 1-.764-.472 1.676 1.676 0 0 1-.499-.666c-.133-.25-.2-.527-.2-.833 0-.277.067-.555.2-.805s.3-.472.499-.666c.2-.194.465-.333.764-.444.3-.111.598-.167.93-.167.333 0 .665.056.964.167.3.11.565.277.764.444.2.167.366.416.499.666.133.25.166.528.166.805v.195h-4.287c.034.222.1.444.2.666.1.194.266.388.432.527.166.139.365.25.598.333.232.084.465.14.73.14.167 0 .333-.029.5-.056.166-.028.299-.084.465-.167.133-.056.265-.139.365-.25.1-.083.2-.194.266-.305l.399.083a1.63 1.63 0 0 1-.3.417c-.132.11-.298.222-.465.305a1.81 1.81 0 0 1-.598.194c-.232.028-.432.056-.664.056Zm-2.725-3.803c-.432 0-.831.11-1.163.333-.333.194-.565.5-.698.86v2.554h-.465v-4.08h.465v.999c.166-.278.399-.527.665-.694.265-.194.564-.278.897-.305H56.777v.333Zm-7.544 1.249h2.293c.233 0 .432-.028.598-.111.167-.083.333-.167.432-.306.133-.138.233-.277.266-.444.067-.166.1-.333.1-.527a.973.973 0 0 0-.133-.527c-.066-.167-.2-.306-.332-.445-.133-.138-.3-.222-.465-.305a1.27 1.27 0 0 0-.565-.111h-2.194v2.776Zm-.465 2.47v-5.58h2.758c.266 0 .532.056.765.14.232.11.432.222.631.388.166.167.3.361.399.555.1.195.133.417.133.611 0 .222-.034.444-.133.639-.1.222-.233.388-.399.555a1.619 1.619 0 0 1-.598.388 2.304 2.304 0 0 1-.764.14h-2.327V12.1h-.465v.055Zm2.958 24.595c-.266 0-.499-.056-.698-.139a1.52 1.52 0 0 1-.499-.36 1.455 1.455 0 0 1-.299-.528 1.8 1.8 0 0 1 .1-1.416c.133-.278.3-.527.565-.722a2.63 2.63 0 0 1 .83-.527 2.658 2.658 0 0 1 1.064-.222c.399 0 .698.083.93.222.233.166.4.36.466.61l-.399.195c-.033-.139-.1-.222-.166-.333a.945.945 0 0 0-.266-.222c-.1-.056-.2-.084-.332-.111-.133-.028-.233-.028-.366-.028-.299 0-.598.055-.83.166-.267.111-.466.278-.665.445-.166.194-.333.388-.432.61-.1.222-.166.444-.166.666 0 .167.033.334.1.5.066.167.132.306.265.416.1.112.233.223.399.278.166.056.332.111.532.111.133 0 .265 0 .398-.028.133-.027.266-.083.4-.138.132-.056.265-.14.398-.223.133-.083.233-.194.332-.333l.332.167a1.57 1.57 0 0 1-.398.389 4.487 4.487 0 0 1-.499.277 1.958 1.958 0 0 1-.531.167c-.2.083-.4.11-.565.11Z" fill="#000"/><path d="m142.08 21.954-1.096-3.192-1.13 3.192h2.226Zm-2.625-6.384h3.09l4.254 10.298h-3.423l-.731-2.026h-3.29l-.731 2.026h-3.456l4.287-10.298Zm-7.676 9.438c-.864.61-1.894.916-3.024.916a7.031 7.031 0 0 1-2.293-.361c-.731-.25-1.363-.583-1.894-1.027a5.1 5.1 0 0 1-1.296-1.666c-.333-.666-.499-1.415-.499-2.248 0-.722.166-1.388.499-2.026a5.137 5.137 0 0 1 1.329-1.61 5.956 5.956 0 0 1 1.994-1.083c.764-.278 1.595-.389 2.492-.389.565 0 1.097.056 1.595.14.499.11.997.249 1.429.443.432.194.831.444 1.163.722.332.277.631.583.864.944l-2.525 1.61c-.233-.417-.599-.722-1.097-.972a3.328 3.328 0 0 0-1.529-.36c-.398 0-.764.055-1.096.194a2.84 2.84 0 0 0-.864.555c-.233.25-.432.527-.565.86-.133.333-.2.694-.2 1.083 0 .416.067.777.2 1.11.133.333.332.611.565.86.232.25.531.417.897.556.332.139.731.194 1.163.194.997 0 1.861-.333 2.592-1.027h-2.127V20.4h5.051v5.468h-2.791v-.86h-.033Zm-18.045-4.22v5.053h-3.389V15.542h2.625l4.951 5.246v-5.246h3.39v10.299h-2.692l-4.885-5.053Zm-9.138 1.166-1.097-3.192-1.13 3.192h2.227Zm-2.625-6.384h3.09l4.254 10.298h-3.423l-.731-2.026h-3.29l-.731 2.026h-3.456l4.287-10.298ZM90.44 20.233h2.126c.2 0 .4-.083.565-.277.166-.195.266-.472.266-.805 0-.361-.1-.639-.299-.833a.919.919 0 0 0-.631-.278h-2.06v2.193h.033Zm-3.39 5.635V15.57h5.65c.597 0 1.162.11 1.66.305.5.194.931.472 1.297.805.365.333.664.722.864 1.138.2.417.299.86.299 1.305 0 .61-.166 1.166-.465 1.665-.3.528-.731.944-1.296 1.277l2.592 3.776h-3.822l-2.16-3.165h-1.263v3.165H87.05v.027Zm-5.516 0V15.57h3.39v10.298h-3.39Zm-7.41-5.635h1.794c.2 0 .398-.083.565-.25.166-.166.266-.444.266-.86 0-.417-.1-.722-.3-.86a.976.976 0 0 0-.631-.223h-1.695v2.193Zm-3.39 5.635V15.57h5.317c.598 0 1.163.11 1.661.305.499.194.93.472 1.296.805.366.333.665.722.864 1.138.2.417.3.86.3 1.305 0 .444-.1.888-.3 1.332-.2.417-.465.805-.83 1.138a4.16 4.16 0 0 1-1.297.805 4.585 4.585 0 0 1-1.661.306h-2.027v3.164h-3.323Zm-5.75-3.914-1.096-3.192-1.13 3.192h2.227ZM62.36 15.57h3.09l4.254 10.298H66.28l-.765-2.026h-3.29l-.73 2.026H58.04l4.32-10.298Zm-6.115 3.359a11.61 11.61 0 0 0-1.063-.472c-.3-.111-.665-.222-1.064-.333a4.086 4.086 0 0 0-1.13-.14c-.299 0-.531.029-.73.112-.167.083-.267.194-.267.389 0 .138.067.25.167.333.1.083.266.166.465.25.2.083.432.138.731.221.3.056.598.14.964.25.565.14 1.063.306 1.528.472.466.167.864.389 1.163.61.333.25.565.528.731.861.167.334.266.75.266 1.222 0 .61-.133 1.138-.398 1.554-.266.417-.632.75-1.064 1-.432.25-.963.444-1.495.555a8.772 8.772 0 0 1-1.695.166c-.465 0-.93-.027-1.396-.083-.465-.055-.93-.139-1.429-.25-.465-.11-.93-.222-1.362-.388a7.305 7.305 0 0 1-1.196-.5l1.462-2.47c.399.221.83.388 1.263.555.365.138.797.277 1.262.388.465.111.93.167 1.43.167.365 0 .63-.028.764-.111.133-.084.232-.195.232-.333a.392.392 0 0 0-.232-.361c-.133-.111-.333-.195-.599-.278a6.095 6.095 0 0 0-.864-.222c-.332-.083-.664-.166-1.063-.277a16.298 16.298 0 0 1-1.396-.5 3.206 3.206 0 0 1-.963-.61 1.996 1.996 0 0 1-.565-.778c-.133-.278-.166-.61-.166-1 0-.582.133-1.082.365-1.498.233-.445.598-.805 1.03-1.083.432-.278.93-.5 1.462-.666a7.156 7.156 0 0 1 1.728-.222c.466 0 .898.027 1.33.11.432.084.83.167 1.23.278.398.111.764.222 1.129.361.332.139.665.25.93.361l-1.495 2.36Z" fill="#005693"/></svg>