<svg width="107" height="15" fill="none" xmlns="http://www.w3.org/2000/svg"><path d="M13.253.916v12.297H.979V.916h12.274ZM14.167 0H.065v14.13h14.102V0ZM23.615 1.804l-3.657 10.021h.942l.776-1.998h3.85l.777 1.998h.97l-3.658-10.02Zm-1.634 7.079 1.634-4.497 1.69 4.497H21.98ZM58.387 1.804 54.73 11.825h.942l.776-1.998h3.85l.776 1.998h.97l-3.657-10.02Zm-1.635 7.079 1.635-4.497 1.69 4.497h-3.325ZM37.358 11.853V1.749l3.574 5.524 3.63-5.524v10.104h-.887V4.774L40.96 9.022l-2.771-4.248v7.079h-.831ZM99.559 11.853V1.749l3.574 5.524 3.657-5.524v10.104h-.914V4.774l-2.715 4.248-2.743-4.248v7.079h-.86ZM89.39 2.22h-.941v9.605h.942V2.221ZM78.336 5.496c0-1.027-.388-1.915-1.164-2.581a3.012 3.012 0 0 0-1.524-.694h-.11c-.167-.028-.278 0-.278 0H72.046v9.604h.942V8.661h1.968l2.05 3.136h1.191L76.12 8.633c1.053-.389 2.217-1.305 2.217-3.137Zm-5.32-2.332h2.355c.028 0 .637-.027 1.22.472.553.472.83 1.083.83 1.86 0 1.416-.97 1.999-1.607 2.249h-2.798v-4.58Z" fill="#000"/><path d="M9.845 5.496c0-1.027-.388-1.915-1.164-2.581a3.012 3.012 0 0 0-1.524-.694h-.11c-.167-.028-.277 0-.277 0H4.193v.943h2.66c.027 0 .637-.027 1.219.472.554.472.831 1.083.831 1.86 0 1.416-.97 1.999-1.607 2.249H4.221v.944h2.272l2.05 3.136h1.191L7.656 8.661c.998-.417 2.189-1.333 2.189-3.165Z" fill="#000"/></svg>