<svg width="82" height="55" fill="none" xmlns="http://www.w3.org/2000/svg"><path d="M6.027 39.117V53.55c0 .777-.25 1.027-1.025 1.027h-3.27c-.61 0-.886-.277-.942-.888V36.896c0-.139 0-.25.028-.389.083-.444.332-.666.803-.694h1.69c3.16 0 6.318-.027 9.448.028 1.746.028 3.408.527 4.766 1.749.97.86 1.496 1.943 1.607 3.22.25 2.581-1.302 4.691-3.934 5.357-.277.084-.582.111-.915.195.084.11.167.222.25.305 1.856 2.11 3.685 4.22 5.541 6.33.443.526.443 1.137-.083 1.415a1.24 1.24 0 0 1-.526.139h-4.6c-.138 0-.332-.111-.415-.223-2.217-2.83-4.406-5.662-6.622-8.494-.25-.305-.333-.61-.167-.971.167-.361.5-.472.86-.472.914 0 1.8 0 2.715-.028.277 0 .554-.055.83-.139 1.774-.5 2.494-2.387 1.552-3.97-.498-.804-1.302-1.137-2.188-1.165-1.746-.056-3.52-.056-5.265-.056-.055.028-.083.056-.138.084ZM56.536 6.639c2.383.472 4.405 1.443 6.012 3.192.499.527.914 1.166 1.33 1.749.11.139.166.333.194.527.11.472-.166.805-.637.777-.582-.027-1.136-.138-1.718-.222-2.577-.305-5.126-.138-7.647.417-2.66.583-5.181 1.526-7.48 3.053-.749.5-1.442 1.138-2.162 1.694-.138.11-.25.25-.415.333-.416.25-.887.083-1.081-.361-.056-.167-.139-.333-.139-.5.028-1.554-.055-3.137.167-4.663.803-5.219 3.685-8.966 8.506-11.132C53.737.476 56.176.033 58.669.004c1.275-.027 2.55.084 3.824.14.332 0 .582.138.692.471.111.333.111.666-.166.916-.443.389-.886.75-1.357 1.11-1.635 1.25-3.297 2.527-4.96 3.776.056.055-.028.11-.166.222Z" fill="#C40D0E"/><path d="M27.333 14.19c-.221-.167-.332-.278-.47-.362-1.94-1.47-3.852-2.942-5.791-4.413-.333-.25-.665-.5-.61-1 .055-.444.277-.694.72-.721 1.109-.056 2.245-.14 3.38-.14 2.882 0 5.68.5 8.285 1.805 4.433 2.22 7.037 5.802 7.868 10.687.277 1.583.194 3.165.194 4.747 0 .694-.36 1.055-.886.972a.935.935 0 0 1-.527-.25c-2.493-2.415-5.541-3.748-8.81-4.664a20.88 20.88 0 0 0-5.985-.805c-1.33.028-2.632.222-3.934.333-.028 0-.056.028-.056.028-.304.028-.665.083-.859-.222-.221-.277-.11-.61.028-.888.582-1.083 1.385-1.999 2.355-2.776 1.413-1.222 3.103-1.971 5.098-2.332ZM56.591 21.795c.97.36 1.967.638 2.882 1.055 1.8.805 3.214 2.082 4.267 3.747.055.084.11.167.166.278.166.305.277.638.083.971-.222.334-.582.278-.887.223-1.496-.306-2.992-.39-4.516-.334-3.352.111-6.539.889-9.586 2.304-1.718.805-3.297 1.777-4.627 3.137-.277.278-.582.389-.97.25-.36-.139-.471-.5-.471-.833 0-1.332-.028-2.692.055-4.025.139-2.137.831-4.136 1.94-5.996 2.078-3.47 5.153-5.58 8.977-6.634 2.41-.666 4.848-.833 7.342-.666.443.027.859.055 1.302.083.305.028.582.111.72.444.14.333.14.639-.138.916a3.383 3.383 0 0 1-.471.417c-1.912 1.47-3.823 2.914-5.735 4.385-.111.111-.25.223-.333.278Z" fill="#EB6630"/><path d="M68.838 51.358V41.06c0-.833.221-1.027 1.052-1.027h2.91c.637 0 .914.277.914.916v13.629h-8.256c-1.164 0-2.356-.139-3.436-.61-1.635-.75-2.521-2.027-2.521-3.831-.028-1.777 0-3.553 0-5.33 0-1.277-.028-2.554-.028-3.83 0-.722.25-.944.942-.944h2.964c.72 0 .97.25.97.971v8.467c0 1.277.527 1.86 1.801 1.915.887 0 1.773-.028 2.688-.028ZM53.599 40.033h2.743c.554 0 .831.277.831.832v1.277c0 .583-.277.86-.859.86h-4.35c-.388 0-.776.056-1.163.112-.167.028-.36.11-.5.222-.498.333-.47 1.027.084 1.249.942.36 1.912.639 2.826 1.027.859.333 1.746.694 2.55 1.138 2.659 1.471 2.243 4.997.498 6.468-1.192 1-2.605 1.471-4.1 1.666-2.55.36-4.988-.223-7.343-1.139-.388-.138-.554-.471-.416-.916.222-.694.444-1.415.665-2.11.194-.527.665-.638 1.22-.332.692.388 1.413.805 2.133 1.11.914.389 1.856.61 2.854.36.332-.082.692-.249.942-.471.47-.416.388-1.027-.194-1.277a42.821 42.821 0 0 0-2.632-1c-.998-.332-1.968-.693-2.854-1.276-2.438-1.582-2.272-4.72-.166-6.301 1.136-.861 2.41-1.305 3.795-1.388 1.109-.084 2.245-.028 3.38-.028.056-.056.056-.056.056-.083ZM39.884 43.03c-.886 0-1.773-.027-2.66 0-.304 0-.61.112-.886.223-.305.11-.471.388-.471.721 0 .306.194.528.498.639.915.333 1.857.638 2.771.971.86.333 1.718.667 2.494 1.11 2.715 1.5 2.41 5.025.443 6.607-1.164.944-2.549 1.36-3.99 1.583-2.576.36-4.987-.25-7.342-1.139-.36-.138-.526-.471-.416-.86.222-.722.444-1.444.693-2.137.194-.556.693-.694 1.22-.361 1.024.638 2.105 1.193 3.296 1.443.638.139 1.303.194 1.94-.028a2.25 2.25 0 0 0 .803-.527c.36-.416.277-.916-.221-1.138a18.001 18.001 0 0 0-1.829-.75c-1.136-.416-2.3-.721-3.353-1.332-.942-.555-1.69-1.277-1.994-2.36-.416-1.554.138-3.136 1.468-4.163a6.946 6.946 0 0 1 3.824-1.416c2.022-.083 4.072-.056 6.123-.083.388 0 .665.277.692.666a16.7 16.7 0 0 1 0 1.665c-.027.417-.304.639-.775.667h-2.328s0-.028 0 0ZM81.25 45.251v8.356c0 .75-.25 1-.997 1h-2.965c-.637 0-.914-.279-.914-.917V36.785c0-.638.277-.888.914-.888h3.02c.665 0 .942.277.942.943v8.411ZM28.275 47.306v6.3c0 .722-.25 1-.997 1h-2.91c-.692 0-.97-.278-.97-.944v-9.715c0-.75-.165-.916-.913-.916h-.915c-.47-.028-.748-.306-.748-.75v-1.443c0-.472.305-.778.776-.778h5.874c.526 0 .803.306.803.889v6.357ZM25.81 38.062c-2.051.028-2.827-1.777-2.19-3.192.444-1 1.663-1.5 2.937-1.166.86.222 1.441.75 1.607 1.637.167.889 0 1.721-.775 2.304-.471.333-1.026.444-1.58.417Z" fill="#C40D0E"/></svg>