<svg width="94" height="46" fill="none" xmlns="http://www.w3.org/2000/svg"><path d="M93.621 0H.251v45.663h93.37V0Z" fill="#312783"/><path d="m83.037 38.973.5-.055a.628.628 0 0 0 .165.36c.084.084.222.112.36.112.167 0 .278-.028.36-.111.084-.056.112-.139.112-.25a.212.212 0 0 0-.056-.139c-.027-.028-.083-.083-.194-.11-.055-.029-.194-.056-.415-.112-.277-.055-.471-.139-.582-.25a.603.603 0 0 1-.222-.5c0-.138.028-.25.111-.36a.678.678 0 0 1 .305-.25 1.34 1.34 0 0 1 .499-.083c.304 0 .554.083.72.222a.7.7 0 0 1 .25.555l-.5.028c-.027-.14-.055-.223-.138-.278a.497.497 0 0 0-.305-.083.59.59 0 0 0-.332.083c-.056.028-.083.083-.083.167 0 .055.027.11.083.166.055.056.221.111.47.167.25.055.416.11.555.194.11.056.222.139.277.25.055.11.11.25.11.389a.784.784 0 0 1-.11.416.648.648 0 0 1-.333.278 1.555 1.555 0 0 1-.554.083c-.304 0-.554-.084-.72-.222a.915.915 0 0 1-.333-.667Zm-3.213.833V37.28h.498l1.025 1.693V37.28h.471v2.526h-.498l-1.025-1.665v1.665h-.471Zm-3.131 0V37.28h1.856v.416h-1.358v.556h1.247v.416h-1.247v.694h1.386v.416h-1.884v.028Zm-2.383-.916v-.416h1.08v1c-.11.11-.249.193-.47.277a1.578 1.578 0 0 1-.61.11c-.25 0-.499-.055-.693-.166a1.21 1.21 0 0 1-.443-.472c-.11-.194-.139-.416-.139-.666 0-.25.056-.5.167-.694.11-.194.277-.36.47-.472.167-.083.36-.139.61-.139.305 0 .554.056.72.195a.944.944 0 0 1 .333.555l-.499.083a.718.718 0 0 0-.194-.305c-.083-.084-.221-.111-.36-.111a.709.709 0 0 0-.526.222c-.139.139-.194.36-.194.638 0 .306.055.528.194.666a.709.709 0 0 0 .526.223c.111 0 .222-.028.305-.056.11-.028.194-.083.277-.139v-.305h-.554v-.028Zm-3.159-.083-.36-.944-.332.944h.692Zm.915 1h-.554l-.222-.584h-.998l-.221.583h-.527l.97-2.526h.526l1.026 2.526Zm-5.07-1.444h.387c.25 0 .388 0 .444-.028.055-.028.11-.056.138-.111a.4.4 0 0 0 .055-.194c0-.084-.027-.167-.055-.195a.446.446 0 0 0-.194-.11h-.748v.638h-.028Zm-.527 1.443V37.28h1.08c.278 0 .472.028.582.056.111.055.222.138.305.25.083.11.111.25.111.388a.7.7 0 0 1-.166.472.836.836 0 0 1-.499.222c.11.056.194.139.277.222.083.083.166.222.277.416l.305.5h-.61l-.36-.555a3.46 3.46 0 0 0-.277-.36c-.055-.056-.11-.084-.138-.112-.056-.028-.139-.028-.25-.028h-.11v1.055h-.527Zm-2.826-1.443h.388c.25 0 .388 0 .443-.028.055-.028.111-.056.139-.111.027-.056.055-.111.055-.194 0-.084-.028-.167-.055-.195a.446.446 0 0 0-.194-.11h-.748v.638h-.028Zm-.499 1.443V37.28h1.08c.278 0 .472.028.583.056.11.055.221.138.304.25.084.11.111.25.111.388a.701.701 0 0 1-.166.472c-.11.139-.277.194-.499.222.111.056.194.139.277.222.083.083.166.222.277.416l.305.5h-.61l-.36-.555a3.45 3.45 0 0 0-.277-.36c-.055-.056-.11-.084-.166-.112-.055-.028-.138-.028-.25-.028h-.11v1.055h-.499Zm-3.158 0V37.28h1.856v.416h-1.358v.556h1.247v.416h-1.247v.694h1.386v.416h-1.884v.028Zm-2.937 0V37.28h1.718v.416h-1.22v.584H58.6v.416h-1.053v1.055h-.498v.055Zm-5.098 0V37.28h1.856v.416H52.45v.556h1.247v.416H52.45v.694h1.386v.416H51.95v.028Zm-5.21-.833.5-.055a.628.628 0 0 0 .166.36c.083.084.222.112.36.112.166 0 .277-.028.36-.111.083-.056.111-.139.111-.25a.212.212 0 0 0-.055-.139c-.028-.028-.083-.083-.194-.11-.056-.029-.194-.056-.416-.112-.277-.055-.47-.139-.582-.25a.603.603 0 0 1-.221-.5c0-.138.027-.25.11-.36a.678.678 0 0 1 .305-.25 1.34 1.34 0 0 1 .499-.083c.305 0 .554.083.72.222a.7.7 0 0 1 .25.555l-.499.028c-.028-.14-.056-.223-.139-.278a.497.497 0 0 0-.304-.083.59.59 0 0 0-.333.083c-.055.028-.083.083-.083.167 0 .055.028.11.083.166.056.056.222.111.471.167.25.055.416.11.554.194.111.056.222.139.277.25.056.11.111.25.111.389a.785.785 0 0 1-.11.416.648.648 0 0 1-.333.278 1.554 1.554 0 0 1-.554.083c-.305 0-.554-.084-.72-.222a.914.914 0 0 1-.333-.667Zm-2.991-.444c0 .278.055.5.194.639a.693.693 0 0 0 .498.222c.194 0 .36-.083.499-.222s.194-.361.194-.666c0-.278-.055-.5-.194-.639a.693.693 0 0 0-.499-.222.608.608 0 0 0-.498.222c-.111.167-.194.389-.194.666Zm-.527.028c0-.25.028-.472.111-.638a.997.997 0 0 1 .222-.333.995.995 0 0 1 .332-.223c.166-.055.333-.11.554-.11.36 0 .665.11.887.333.221.222.332.555.332.971 0 .416-.11.722-.332.944-.222.222-.526.333-.887.333-.36 0-.665-.111-.886-.333-.222-.222-.333-.555-.333-.944Zm-1.607.305.499.14c-.083.277-.194.471-.388.61-.166.139-.388.194-.665.194-.332 0-.61-.11-.831-.333-.222-.222-.333-.527-.333-.944 0-.416.111-.75.333-.971.221-.222.498-.361.859-.361.304 0 .554.083.748.277a.95.95 0 0 1 .25.472l-.5.111a.455.455 0 0 0-.193-.305c-.084-.083-.222-.111-.333-.111-.194 0-.332.056-.443.194-.111.14-.166.361-.166.639 0 .305.055.555.166.666.11.139.25.194.443.194.139 0 .25-.055.36-.139.083 0 .139-.138.194-.333Zm-3.408.944V37.28h.499v2.526h-.499Zm-2.909 0v-2.498h.499v2.054h1.247v.416h-1.746v.028Zm-3.352-2.526h.498v1.36c0 .222 0 .361.028.417a.404.404 0 0 0 .166.25.59.59 0 0 0 .333.083.59.59 0 0 0 .332-.084c.083-.055.111-.138.139-.221.028-.084.027-.223.027-.417V37.28h.5v1.332c0 .306 0 .528-.029.639a1.027 1.027 0 0 1-.138.305c-.083.084-.166.167-.305.195-.11.055-.277.083-.47.083-.25 0-.416-.028-.555-.083a.868.868 0 0 1-.305-.222c-.083-.084-.11-.195-.138-.278a3.378 3.378 0 0 1-.056-.639V37.28h-.027Zm-2.55-.222.25-.5h.526l-.47.5h-.305Zm.527 1.749-.36-.944-.333.944h.693Zm.942 1h-.554l-.222-.584h-.997l-.222.583h-.526l.97-2.526h.554l.997 2.526Zm-5.098-1.444h.388c.25 0 .388 0 .443-.028.056-.028.111-.056.139-.111a.4.4 0 0 0 .055-.194c0-.084-.027-.167-.055-.195a.446.446 0 0 0-.194-.11h-.748v.638h-.028Zm-.499 1.443V37.28h1.08c.278 0 .472.028.583.056.11.055.221.138.304.25.084.11.111.25.111.388a.701.701 0 0 1-.166.472c-.11.139-.277.194-.499.222.111.056.194.139.277.222.084.083.167.222.277.416l.305.5h-.61l-.36-.555a3.446 3.446 0 0 0-.277-.36c-.055-.056-.11-.084-.138-.112-.055-.028-.139-.028-.25-.028h-.11v1.055h-.527Zm-2.826-2.082v1.666h.388c.139 0 .25 0 .305-.028a.445.445 0 0 0 .194-.111.537.537 0 0 0 .138-.25c.028-.11.056-.277.056-.472 0-.194-.028-.333-.056-.444a.537.537 0 0 0-.138-.25c-.055-.055-.139-.11-.222-.11-.083-.029-.221-.029-.415-.029h-.25v.028Zm-.526-.444h.914c.222 0 .36.028.471.056.139.055.277.11.388.222.11.11.194.25.25.416.055.167.083.361.083.583 0 .194-.028.389-.084.527a.818.818 0 0 1-.277.445c-.083.083-.194.138-.36.194-.11.028-.25.056-.443.056h-.942V37.28Zm-1.773 2.526V37.28h.498v2.526h-.498Zm-3.325 0V37.28h.498v1h.998v-1h.499v2.526h-.499v-1.11h-.998v1.11h-.498Zm66.219-4.747.498-.055a.628.628 0 0 0 .166.36c.084.084.222.112.36.112.167 0 .278-.028.36-.111.084-.056.112-.139.112-.25a.212.212 0 0 0-.056-.139c-.027-.028-.083-.083-.194-.11-.055-.029-.194-.056-.415-.112-.277-.055-.471-.139-.582-.25a.603.603 0 0 1-.222-.5c0-.138.028-.25.111-.36a.678.678 0 0 1 .305-.25 1.34 1.34 0 0 1 .499-.083c.304 0 .554.083.72.222a.7.7 0 0 1 .25.555l-.5.028c-.027-.14-.055-.222-.138-.278a.496.496 0 0 0-.305-.083.59.59 0 0 0-.332.083c-.056.028-.083.083-.083.167 0 .055.027.11.083.138.055.056.221.111.47.167.25.055.416.111.555.194.11.056.222.139.277.25.055.111.11.25.11.389a.784.784 0 0 1-.11.416.648.648 0 0 1-.333.278 1.555 1.555 0 0 1-.554.083c-.304 0-.554-.083-.72-.222-.194-.139-.305-.361-.333-.639Zm-2.993-.444c0 .278.056.5.194.639a.693.693 0 0 0 .499.222c.194 0 .36-.084.499-.222.138-.139.194-.361.194-.666 0-.278-.056-.5-.194-.639a.693.693 0 0 0-.5-.222.608.608 0 0 0-.498.222c-.138.167-.194.389-.194.666Zm-.526.028c0-.25.027-.472.11-.638a.999.999 0 0 1 .222-.334.996.996 0 0 1 .333-.222c.166-.055.332-.11.554-.11.36 0 .665.11.886.333.222.222.333.555.333.971 0 .416-.11.722-.332.944-.222.222-.527.333-.887.333s-.665-.111-.887-.333c-.221-.222-.332-.555-.332-.944Zm-1.635.305.499.14c-.083.277-.194.471-.388.61-.166.139-.388.194-.665.194-.332 0-.61-.11-.831-.333-.222-.222-.333-.527-.333-.944 0-.416.111-.75.333-.971.221-.222.499-.361.859-.361.304 0 .554.083.748.277a.95.95 0 0 1 .25.472l-.5.111a.455.455 0 0 0-.194-.305c-.083-.083-.221-.111-.332-.111-.194 0-.332.056-.443.194-.111.14-.167.361-.167.639 0 .305.056.555.167.666.11.139.249.194.443.194.139 0 .25-.055.36-.139.111-.083.166-.138.194-.333Zm-3.38.944v-2.526h.499v2.526h-.5Zm-2.826-1.471h.388c.25 0 .388 0 .443-.028.055-.028.11-.055.139-.11a.402.402 0 0 0 .055-.195c0-.083-.028-.167-.055-.194a.447.447 0 0 0-.194-.111h-.748v.638h-.028Zm-.499 1.471v-2.526h1.08c.278 0 .472.028.582.056.111.055.222.138.305.25.083.11.111.25.111.388a.701.701 0 0 1-.166.472c-.11.139-.277.194-.499.222.111.056.194.139.277.222.083.083.166.222.277.417l.305.5h-.61l-.36-.556a3.467 3.467 0 0 0-.277-.36c-.055-.056-.11-.084-.166-.112-.055-.028-.138-.028-.25-.028h-.11v1.055h-.499Zm-2.383 0V33.81h-.748v-.416h1.995v.416h-.748v2.082h-.499Zm-3.02-2.748.25-.5h.526l-.47.5h-.306Zm-.692 2.748v-2.526h1.856v.416h-1.358v.556h1.247v.416h-1.247v.694h1.386v.416h-1.884v.028Zm-2.937 0v-2.498h.498v2.054h1.247v.416h-1.745v.028Zm-3.159 0v-2.526h1.856v.416h-1.357v.556h1.247v.416h-1.247v.694h1.385v.416h-1.884v.028Zm-5.209-.833.5-.055a.628.628 0 0 0 .165.36c.083.084.222.112.36.112.167 0 .278-.028.36-.111.084-.056.112-.139.112-.25a.212.212 0 0 0-.056-.139c-.028-.028-.083-.083-.194-.11-.055-.029-.194-.056-.415-.112-.277-.055-.471-.139-.582-.25a.603.603 0 0 1-.222-.5c0-.138.028-.25.11-.36a.678.678 0 0 1 .306-.25 1.34 1.34 0 0 1 .498-.083c.305 0 .555.083.72.222a.7.7 0 0 1 .25.555l-.498.028c-.028-.14-.056-.222-.14-.278a.496.496 0 0 0-.304-.083.59.59 0 0 0-.332.083c-.056.028-.084.083-.084.167 0 .055.028.11.084.138.055.056.221.111.47.167.25.055.416.111.555.194.11.056.221.139.277.25.055.111.11.25.11.389a.785.785 0 0 1-.11.416.647.647 0 0 1-.333.278 1.554 1.554 0 0 1-.554.083c-.304 0-.554-.083-.72-.222-.194-.139-.305-.361-.333-.639Zm-1.662.833v-2.526h.499v2.526h-.499Zm-1.995-1-.36-.943-.333.944h.693Zm.914 1h-.554l-.221-.583h-.998l-.221.583h-.527l.97-2.526h.526l1.025 2.526Zm-4.045 0v-2.526h.499v2.526h-.499Zm-2.798-1.471h.388c.25 0 .388 0 .443-.028.056-.028.11-.055.139-.11.027-.056.055-.112.055-.195s-.028-.167-.055-.194a.447.447 0 0 0-.194-.111h-.748v.638h-.028Zm-.526 1.471v-2.526h1.08c.277 0 .471.028.582.056.11.055.221.138.305.25.083.11.11.25.11.388a.701.701 0 0 1-.166.472.837.837 0 0 1-.498.222c.11.056.194.139.277.222.083.083.166.222.277.417l.304.5h-.61l-.36-.556a3.448 3.448 0 0 0-.276-.36c-.056-.056-.111-.084-.139-.112-.055-.028-.139-.028-.25-.028h-.11v1.055h-.526Zm-3.131 0v-2.526h1.856v.416h-1.358v.556h1.247v.416h-1.247v.694h1.386v.416h-1.884v.028Zm-2.383 0V33.81h-.748v-.416H39.4v.416h-.748v2.082h-.5Zm-2.328-1-.36-.943-.332.944h.692Zm.942 1h-.554l-.221-.583h-.998l-.221.583h-.527l.97-2.526h.526l1.026 2.526Zm-5.984 0v-2.526h.748l.443 1.721.444-1.72h.775v2.525h-.47v-1.97l-.5 1.97h-.498l-.499-1.97v1.97h-.443Z" fill="#fff"/><path d="m80.212 19.376-2.079 2.526H70.93l1.911-6.773h3.602l-1.191 4.247h4.96Zm-2.799-7.745-.72 2.47H73.09l.693-2.47h3.63Zm-6.4 3.498-1.857 6.773h-3.601l1.884-6.773h3.574Zm.886-3.498-.692 2.47h-3.574l.72-2.47H71.9Zm-6.206 3.498-1.912 6.773H60.07l1.717-6.08-2.52 2.027-2.079-2.026-1.718 6.079h-3.435l1.884-6.773h11.775Zm.942-3.498-.693 2.47H54.195l.693-2.47h3.49l2.05 1.999 2.522-1.999h3.685Zm-28.593 7.523-.776 2.776h-4.71c-1.634 0-2.687-.528-3.13-1.583-.14-.305-.167-.75-.14-1.304 0-.111.028-.306.056-.583l.86-3.304 3.684-.027-1.053 3.275c.028.139.056.25.083.389.084.194.277.305.554.36h4.572Zm2.106-7.523-.72 2.47h-8.894a3.81 3.81 0 0 1 1.025-1.637c.554-.556 1.163-.833 1.773-.833h6.816Zm-11.582 3.498-.72 2.692h-4.82l-.389 1.416h4.793l-.72 2.665h-8.7l1.801-6.773h8.755Zm.97-3.498-.665 2.47h-9.67l1.607-2.47h8.728Zm-14.574 3.498-1.8 6.773h-3.38l1.828-6.773h3.352Zm3.852-3.498-.693 2.47H8.23l1.579-2.47h9.005Z" fill="#E30613"/><path fill-rule="evenodd" clip-rule="evenodd" d="M50.316 5.802h28.261c5.79 0 10.528 4.746 10.528 10.548v.805c0 5.801-4.738 10.548-10.528 10.548H56.024v-.86h22.553c5.32 0 9.67-4.358 9.67-9.688v-.805c0-5.33-4.35-9.688-9.67-9.688H50.815l-2.632 5.274 4.931.139L44 23.817l3.048-7.8-4.516-.056 1.33-4.136c.166-.5.692-2.193.72-2.526v-.083c0-1.305-1.136-2.582-3.74-2.582H10.972c-2.937 0-5.348 2.415-5.348 5.358v4.94c-.055.417-.11.834-.11 1.25 0 .416.027.833.11 1.25A5.354 5.354 0 0 0 7.4 23.344a9.528 9.528 0 0 0 2.438 2.138c-2.882-.556-5.07-3.082-5.07-6.107v-7.384c0-3.415 2.798-6.218 6.206-6.218H40.84c2.799 0 5.403 1.332 4.6 4.469l-1.607 4.525 4.904-.028-1.773 3.997 4.377-5.718-5.375.139 4.35-7.356Z" fill="#fff"/><path fill-rule="evenodd" clip-rule="evenodd" d="M46.326 28.48h2.91v-2.359h-2.993v-.555h2.992V23.9h1.469v.778h3.879v1.86h1.745v1.637h-1.745v1.527h-3.88v.75h-1.468v-1.166h-2.66l-.249-.805Z" fill="#fff"/></svg>